<?xml version="1.0" standalone="no"?>
<!DOCTYPE svg PUBLIC "-//W3C//DTD SVG 20010904//EN"
 "http://www.w3.org/TR/2001/REC-SVG-20010904/DTD/svg10.dtd">
<svg version="1.0" xmlns="http://www.w3.org/2000/svg"
 width="510.000000pt" height="616.000000pt" viewBox="0 0 510.000000 616.000000"
 preserveAspectRatio="xMidYMid meet">

<g transform="translate(0.000000,616.000000) scale(0.100000,-0.100000)"
fill="#000000" stroke="none">
<path d="M4120 5549 c-115 -12 -596 -58 -770 -74 -572 -50 -600 -55 -705 -123
-72 -46 -126 -104 -158 -169 -14 -26 -82 -191 -152 -366 -122 -306 -127 -320
-116 -357 6 -20 11 -82 11 -137 0 -121 -28 -240 -94 -406 -25 -61 -48 -120
-52 -130 -6 -16 -4 -16 27 2 81 47 200 63 263 37 53 -22 76 -60 76 -123 0
-195 -162 -462 -397 -654 l-42 -34 51 -133 c28 -73 48 -135 45 -139 -22 -21
-213 113 -345 242 l-112 111 -19 -51 c-11 -27 -91 -232 -179 -455 -206 -521
-419 -1065 -472 -1204 -47 -124 -54 -199 -25 -261 21 -43 78 -92 121 -104 17
-5 262 -30 545 -57 517 -49 649 -70 255 -39 -207 15 -282 22 -361 30 -22 2
-121 11 -220 20 -210 19 -243 26 -286 62 -29 24 -31 25 -20 5 19 -36 96 -87
157 -105 48 -13 571 -73 804 -91 30 -3 190 -18 354 -35 165 -17 323 -31 352
-31 80 0 173 34 255 93 88 63 143 138 183 252 16 44 34 94 41 110 36 86 135
397 129 407 -5 7 -3 8 6 3 9 -5 10 -2 6 12 -6 19 24 114 184 573 108 312 325
912 345 955 21 45 136 359 224 613 64 182 75 224 64 233 -7 6 -13 17 -13 23 0
6 7 2 15 -8 8 -11 17 -17 20 -15 6 6 111 300 148 414 14 44 83 247 152 450
121 352 127 373 122 432 -8 109 -73 186 -183 219 -51 15 -115 16 -234 3z m310
-267 c-13 -37 -26 -71 -31 -76 -4 -5 3 26 17 68 13 42 25 84 25 94 1 15 2 15
6 -1 2 -9 -5 -48 -17 -85z m-83 -239 c-25 -70 -86 -243 -136 -383 -49 -140
-176 -500 -281 -800 -285 -811 -492 -1398 -580 -1645 -43 -121 -97 -275 -121
-342 -23 -68 -44 -121 -47 -119 -3 4 44 141 453 1301 95 270 302 858 460 1308
159 449 290 815 292 813 3 -2 -16 -62 -40 -133z m-118 -571 c-12 -36 -25 -59
-31 -56 -6 4 -6 9 2 14 7 4 9 13 6 19 -4 6 -2 11 4 11 7 0 10 7 6 15 -3 8 -2
15 3 15 5 0 12 12 15 26 4 15 9 24 11 22 3 -3 -5 -32 -16 -66z m-65 -185 c-15
-45 -30 -74 -36 -71 -6 4 -6 9 2 14 7 4 9 13 6 19 -4 6 -2 11 4 11 7 0 10 7 6
15 -3 8 -1 15 5 15 6 0 9 7 5 15 -3 8 -1 15 5 15 6 0 9 6 7 12 -4 11 13 40 19
34 2 -1 -9 -37 -23 -79z m-34 -97 c0 -5 -2 -10 -4 -10 -3 0 -8 5 -11 10 -3 6
-1 10 4 10 6 0 11 -4 11 -10z m-29 -81 c-5 -13 -10 -19 -10 -12 -1 15 10 45
15 40 3 -2 0 -15 -5 -28z m-947 -2453 c-14 -42 -28 -75 -30 -73 -2 2 8 38 22
81 14 42 28 75 30 73 2 -2 -8 -38 -22 -81z m-60 -170 c-14 -42 -28 -75 -30
-73 -2 2 8 38 22 81 14 42 28 75 30 73 2 -2 -8 -38 -22 -81z m-547 -62 c-3 -3
-12 -4 -19 -1 -8 3 -5 6 6 6 11 1 17 -2 13 -5z m150 -10 c-3 -3 -12 -4 -19 -1
-8 3 -5 6 6 6 11 1 17 -2 13 -5z m151 -11 c-10 -2 -28 -2 -40 0 -13 2 -5 4 17
4 22 1 32 -1 23 -4z m203 -30 c-12 -20 -14 -14 -5 12 4 9 9 14 11 11 3 -2 0
-13 -6 -23z m-31 -90 c-11 -17 -11 -17 -6 0 3 10 6 24 7 30 0 9 2 9 5 0 3 -7
0 -20 -6 -30z m-25 -73 c-18 -51 -18 -53 -4 -44 19 12 -1 -59 -23 -81 -19 -18
-20 -18 -14 -2 3 10 6 30 6 43 0 17 4 23 12 18 8 -5 9 -2 5 9 -6 16 21 112 29
104 2 -2 -3 -23 -11 -47z m-777 -307 c-16 -2 -40 -2 -55 0 -16 2 -3 4 27 4 30
0 43 -2 28 -4z m105 -10 c-13 -2 -33 -2 -45 0 -13 2 -3 4 22 4 25 0 35 -2 23
-4z m110 -10 c-7 -2 -21 -2 -30 0 -10 3 -4 5 12 5 17 0 24 -2 18 -5z m150 -10
c-13 -2 -35 -2 -50 0 -16 2 -5 4 22 4 28 0 40 -2 28 -4z"/>
<path d="M2375 744 c-344 -32 -615 -81 -615 -113 0 -61 781 -21 1035 54 69 20
83 31 67 47 -10 10 -67 13 -230 14 -119 1 -235 0 -257 -2z"/>
</g>
</svg>
