<?xml version="1.0" encoding="UTF-8" standalone="no"?>
<!-- Created with Inkscape (http://www.inkscape.org/) -->

<svg
   width="89.30545mm"
   height="67.769508mm"
   viewBox="0 0 89.30545 67.769508"
   version="1.1"
   id="svg2595"
   inkscape:version="1.2 (dc2aedaf03, 2022-05-15)"
   sodipodi:docname="2-rank.svg"
   xmlns:inkscape="http://www.inkscape.org/namespaces/inkscape"
   xmlns:sodipodi="http://sodipodi.sourceforge.net/DTD/sodipodi-0.dtd"
   xmlns="http://www.w3.org/2000/svg"
   xmlns:svg="http://www.w3.org/2000/svg">
  <sodipodi:namedview
     id="namedview2597"
     pagecolor="#505050"
     bordercolor="#eeeeee"
     borderopacity="1"
     inkscape:showpageshadow="0"
     inkscape:pageopacity="0"
     inkscape:pagecheckerboard="0"
     inkscape:deskcolor="#505050"
     inkscape:document-units="mm"
     showgrid="false"
     inkscape:zoom="0.46769781"
     inkscape:cx="322.85804"
     inkscape:cy="299.33858"
     inkscape:window-width="1366"
     inkscape:window-height="705"
     inkscape:window-x="-8"
     inkscape:window-y="-8"
     inkscape:window-maximized="1"
     inkscape:current-layer="layer1" />
  <defs
     id="defs2592" />
  <g
     inkscape:label="Camada 1"
     inkscape:groupmode="layer"
     id="layer1"
     transform="translate(-10.787281,-69.640963)">
    <path
       style="fill:#ebf0f1;stroke-width:0.327797"
       d="m 66.06618,137.31189 c 0,0 19.43033,-2.98421 29.21082,-24.7005 14.45024,-32.084893 -7.94192,-29.410693 -10.90323,-16.365523 -2.96131,13.045163 -2.87252,15.308223 1.63958,19.282653 -0.38562,-1.52655 -7.29539,-15.49577 -11.22186,-7.58196 -3.92646,7.91381 0.31974,16.45896 0.2156,16.39856 0,-0.0191 -1.22989,-11.18476 -7.44354,-3.87919 -6.21365,7.30557 -2.10396,17.27205 -1.71404,16.81756 z"
       id="path63-2"
       sodipodi:nodetypes="cszczczcc" />
    <path
       style="fill:#ebf0f1;stroke-width:0.327797"
       d="m 44.81383,137.41047 c 0,0 -19.43033,-2.98421 -29.21082,-24.70051 -14.45024,-32.084893 7.94192,-29.410683 10.90323,-16.365513 2.96131,13.045163 2.87252,15.308223 -1.63958,19.282653 0.38562,-1.52655 7.29539,-15.49577 11.22186,-7.58196 3.92646,7.91381 -0.31974,16.45896 -0.2156,16.39856 0,-0.0191 1.22989,-11.18476 7.44354,-3.87919 6.21365,7.30557 2.10396,17.27205 1.71404,16.81756 z"
       id="path63-3-0"
       sodipodi:nodetypes="cszczczcc" />
    <path
       d="m 65.41462,116.128 c -0.441449,0 -1.13011,-0.0806 -2.065983,-0.24181 -3.209451,-0.55183 -6.517134,-0.28962 -9.77369,-0.30225 -0.671003,0 -1.686337,0.10075 -3.046001,0.30225 -1.359664,0.18136 -2.383827,0.27203 -3.072488,0.27203 -0.194238,0 -0.476765,-0.0403 -0.847583,-0.1209 -0.370817,-0.0806 -0.653345,-0.1209 -0.847583,-0.1209 -1.589218,0 -2.666354,-0.73549 -3.23141,-2.20648 -0.35316,-0.92691 -0.52974,-2.35759 -0.52974,-4.29203 0,-3.76813 0.732807,-6.92168 2.198419,-9.460631 1.130111,-1.954591 2.957711,-3.909183 5.482802,-5.863774 2.383827,-1.793388 4.758825,-3.576701 7.124994,-5.349938 2.78996,-2.317299 4.18494,-4.94693 4.18494,-7.888892 0,-0.765716 -0.556226,-1.521357 -1.668679,-2.266923 -1.112452,-0.765716 -2.198418,-1.148574 -3.257896,-1.148574 -1.871746,0 -3.858268,0.957145 -5.959568,2.871435 -2.083641,1.89414 -3.513937,2.84121 -4.290888,2.84121 -0.935873,0 -1.756968,-0.261955 -2.463288,-0.785866 -0.882899,-0.644814 -1.324348,-1.541508 -1.324348,-2.690082 0,-1.229176 0.441449,-2.287074 1.324348,-3.173692 2.136616,-2.156096 3.999532,-3.727829 5.58875,-4.7152 2.295537,-1.43068 4.670535,-2.14602 7.124994,-2.14602 3.05483,0 5.809474,0.916844 8.263933,2.750533 2.807618,2.095644 4.211427,4.836102 4.211427,8.221374 0,3.425572 -0.688661,6.337309 -2.065983,8.73521 -1.077137,1.91429 -2.781132,3.778205 -5.111984,5.591743 -2.207248,1.591884 -4.414495,3.173692 -6.621742,4.745426 -3.355015,2.498651 -5.156129,5.349941 -5.40334,8.553851 0.971188,-0.14105 2.401484,-0.30225 4.290888,-0.48361 3.761149,-0.22165 6.45399,-0.33248 8.078524,-0.33248 1.518586,0 3.019514,0.37278 4.502784,1.11835 1.83643,0.92692 2.754644,2.11579 2.754644,3.56663 0,1.04782 -0.326672,1.96466 -0.980017,2.75053 -0.688661,0.84632 -1.545073,1.26948 -2.569236,1.26948 z"
       id="path505"
       sodipodi:nodetypes="scccssscscccscscscsccscscccccscscs"
       style="font-weight:bold;font-size:240px;font-family:'Comic Sans MS';-inkscape-font-specification:'Comic Sans MS, Bold';white-space:pre;shape-inside:url(#rect397-3);display:inline;fill:#ebf0f1;stroke-width:0.463096" />
  </g>
</svg>
