<?xml version="1.0" encoding="UTF-8" standalone="no"?>
<!-- Created with Inkscape (http://www.inkscape.org/) -->

<svg
   width="85.194931mm"
   height="155.59311mm"
   viewBox="0 0 85.194931 155.59311"
   version="1.1"
   id="svg4491"
   xml:space="preserve"
   inkscape:version="1.2 (dc2aedaf03, 2022-05-15)"
   sodipodi:docname="tela de 404.svg"
   xmlns:inkscape="http://www.inkscape.org/namespaces/inkscape"
   xmlns:sodipodi="http://sodipodi.sourceforge.net/DTD/sodipodi-0.dtd"
   xmlns="http://www.w3.org/2000/svg"
   xmlns:svg="http://www.w3.org/2000/svg"><sodipodi:namedview
     id="namedview4493"
     pagecolor="#505050"
     bordercolor="#eeeeee"
     borderopacity="1"
     inkscape:showpageshadow="0"
     inkscape:pageopacity="0"
     inkscape:pagecheckerboard="0"
     inkscape:deskcolor="#505050"
     inkscape:document-units="mm"
     showgrid="false"
     inkscape:zoom="0.33071229"
     inkscape:cx="-235.85455"
     inkscape:cy="456.59022"
     inkscape:window-width="1366"
     inkscape:window-height="705"
     inkscape:window-x="-8"
     inkscape:window-y="-8"
     inkscape:window-maximized="1"
     inkscape:current-layer="svg4491" /><defs
     id="defs4488" /><path
     id="path5780"
     style="fill:#f0b6bc;fill-opacity:1;stroke-width:0.393557"
     d="m 40.611369,5.36274e-4 c -2.2738,-0.015000004 -4.59819,0.284299996 -6.951,0.944639996 -2.29668,0.64460003 -4.57797,1.64409003 -6.80784,2.95279003 l 3.25457,25.7849897 23.66264,4.51497 -16.88424,43.59837 5.7118,-36.3802 -21.79763,1.81281 -4.39818,-30.48652 C 5.5371592,25.094626 -1.8762808,44.977556 0.41744916,65.492656 3.8074492,95.812626 28.524599,142.15558 54.162479,155.59311 c -1.98542,-9.46053 -3.39072,-12.98803 -5.41982,-21.27157 21.81329,-11.99733 36.74566,-33.76396 36.4479,-47.956254 -0.23038,-10.97816 -18.56792,-10.21293 -26.92704,-4.32738 9.20894,-16.2311 19.00881,-34.50079 15.11381,-51.52709 C 69.969139,15.612786 56.528009,0.10554627 40.611369,5.36274e-4 Z" /></svg>
