<svg width="321" height="367" viewBox="0 0 321 367" fill="none" xmlns="http://www.w3.org/2000/svg">
<rect x="0.841797" width="319.16" height="367" rx="18" fill="#F0B6BC"/>
<path d="M46.3825 65.4V71.08H55.5425V76.36H46.3825V82.52H56.7425V88H39.5425V59.92H56.7425V65.4H46.3825ZM70.2631 88.32C68.3165 88.32 66.5831 87.9867 65.0631 87.32C63.5431 86.6533 62.3431 85.7467 61.4631 84.6C60.5831 83.4267 60.0898 82.12 59.9831 80.68H66.7431C66.8231 81.4533 67.1831 82.08 67.8231 82.56C68.4631 83.04 69.2498 83.28 70.1831 83.28C71.0365 83.28 71.6898 83.12 72.1431 82.8C72.6231 82.4533 72.8631 82.0133 72.8631 81.48C72.8631 80.84 72.5298 80.3733 71.8631 80.08C71.1965 79.76 70.1165 79.4133 68.6231 79.04C67.0231 78.6667 65.6898 78.28 64.6231 77.88C63.5565 77.4533 62.6365 76.8 61.8631 75.92C61.0898 75.0133 60.7031 73.8 60.7031 72.28C60.7031 71 61.0498 69.84 61.7431 68.8C62.4631 67.7333 63.5031 66.8933 64.8631 66.28C66.2498 65.6667 67.8898 65.36 69.7831 65.36C72.5831 65.36 74.7831 66.0533 76.3831 67.44C78.0098 68.8267 78.9431 70.6667 79.1831 72.96H72.8631C72.7565 72.1867 72.4098 71.5733 71.8231 71.12C71.2631 70.6667 70.5165 70.44 69.5831 70.44C68.7831 70.44 68.1698 70.6 67.7431 70.92C67.3165 71.2133 67.1031 71.6267 67.1031 72.16C67.1031 72.8 67.4365 73.28 68.1031 73.6C68.7965 73.92 69.8631 74.24 71.3031 74.56C72.9565 74.9867 74.3031 75.4133 75.3431 75.84C76.3831 76.24 77.2898 76.9067 78.0631 77.84C78.8631 78.7467 79.2765 79.9733 79.3031 81.52C79.3031 82.8267 78.9298 84 78.1831 85.04C77.4631 86.0533 76.4098 86.8533 75.0231 87.44C73.6631 88.0267 72.0765 88.32 70.2631 88.32ZM90.3278 68.84C90.9945 67.8 91.9145 66.96 93.0878 66.32C94.2611 65.68 95.6345 65.36 97.2078 65.36C99.0478 65.36 100.714 65.8267 102.208 66.76C103.701 67.6933 104.874 69.0267 105.728 70.76C106.608 72.4933 107.048 74.5067 107.048 76.8C107.048 79.0933 106.608 81.12 105.728 82.88C104.874 84.6133 103.701 85.96 102.208 86.92C100.714 87.8533 99.0478 88.32 97.2078 88.32C95.6611 88.32 94.2878 88 93.0878 87.36C91.9145 86.72 90.9945 85.8933 90.3278 84.88V98.64H83.4878V65.68H90.3278V68.84ZM100.088 76.8C100.088 75.0933 99.6078 73.76 98.6478 72.8C97.7145 71.8133 96.5545 71.32 95.1678 71.32C93.8078 71.32 92.6478 71.8133 91.6878 72.8C90.7545 73.7867 90.2878 75.1333 90.2878 76.84C90.2878 78.5467 90.7545 79.8933 91.6878 80.88C92.6478 81.8667 93.8078 82.36 95.1678 82.36C96.5278 82.36 97.6878 81.8667 98.6478 80.88C99.6078 79.8667 100.088 78.5067 100.088 76.8ZM131.676 76.48C131.676 77.12 131.636 77.7867 131.556 78.48H116.076C116.183 79.8667 116.623 80.9333 117.396 81.68C118.196 82.4 119.17 82.76 120.316 82.76C122.023 82.76 123.21 82.04 123.876 80.6H131.156C130.783 82.0667 130.103 83.3867 129.116 84.56C128.156 85.7333 126.943 86.6533 125.476 87.32C124.01 87.9867 122.37 88.32 120.556 88.32C118.37 88.32 116.423 87.8533 114.716 86.92C113.01 85.9867 111.676 84.6533 110.716 82.92C109.756 81.1867 109.276 79.16 109.276 76.84C109.276 74.52 109.743 72.4933 110.676 70.76C111.636 69.0267 112.97 67.6933 114.676 66.76C116.383 65.8267 118.343 65.36 120.556 65.36C122.716 65.36 124.636 65.8133 126.316 66.72C127.996 67.6267 129.303 68.92 130.236 70.6C131.196 72.28 131.676 74.24 131.676 76.48ZM124.676 74.68C124.676 73.5067 124.276 72.5733 123.476 71.88C122.676 71.1867 121.676 70.84 120.476 70.84C119.33 70.84 118.356 71.1733 117.556 71.84C116.783 72.5067 116.303 73.4533 116.116 74.68H124.676ZM125.156 59.96L115.516 64V59.28L125.156 54.64V59.96ZM133.925 76.84C133.925 74.52 134.391 72.4933 135.325 70.76C136.285 69.0267 137.605 67.6933 139.285 66.76C140.991 65.8267 142.938 65.36 145.125 65.36C147.925 65.36 150.258 66.0933 152.125 67.56C154.018 69.0267 155.258 71.0933 155.845 73.76H148.565C147.951 72.0533 146.765 71.2 145.005 71.2C143.751 71.2 142.751 71.6933 142.005 72.68C141.258 73.64 140.885 75.0267 140.885 76.84C140.885 78.6533 141.258 80.0533 142.005 81.04C142.751 82 143.751 82.48 145.005 82.48C146.765 82.48 147.951 81.6267 148.565 79.92H155.845C155.258 82.5333 154.018 84.5867 152.125 86.08C150.231 87.5733 147.898 88.32 145.125 88.32C142.938 88.32 140.991 87.8533 139.285 86.92C137.605 85.9867 136.285 84.6533 135.325 82.92C134.391 81.1867 133.925 79.16 133.925 76.84ZM162.943 63.36C161.743 63.36 160.757 63.0133 159.983 62.32C159.237 61.6 158.863 60.72 158.863 59.68C158.863 58.6133 159.237 57.7333 159.983 57.04C160.757 56.32 161.743 55.96 162.943 55.96C164.117 55.96 165.077 56.32 165.823 57.04C166.597 57.7333 166.983 58.6133 166.983 59.68C166.983 60.72 166.597 61.6 165.823 62.32C165.077 63.0133 164.117 63.36 162.943 63.36ZM166.343 65.68V88H159.503V65.68H166.343ZM192.34 76.48C192.34 77.12 192.3 77.7867 192.22 78.48H176.74C176.847 79.8667 177.287 80.9333 178.06 81.68C178.86 82.4 179.834 82.76 180.98 82.76C182.687 82.76 183.874 82.04 184.54 80.6H191.82C191.447 82.0667 190.767 83.3867 189.78 84.56C188.82 85.7333 187.607 86.6533 186.14 87.32C184.674 87.9867 183.034 88.32 181.22 88.32C179.034 88.32 177.087 87.8533 175.38 86.92C173.674 85.9867 172.34 84.6533 171.38 82.92C170.42 81.1867 169.94 79.16 169.94 76.84C169.94 74.52 170.407 72.4933 171.34 70.76C172.3 69.0267 173.634 67.6933 175.34 66.76C177.047 65.8267 179.007 65.36 181.22 65.36C183.38 65.36 185.3 65.8133 186.98 66.72C188.66 67.6267 189.967 68.92 190.9 70.6C191.86 72.28 192.34 74.24 192.34 76.48ZM185.34 74.68C185.34 73.5067 184.94 72.5733 184.14 71.88C183.34 71.1867 182.34 70.84 181.14 70.84C179.994 70.84 179.02 71.1733 178.22 71.84C177.447 72.5067 176.967 73.4533 176.78 74.68H185.34Z" fill="#EBF0F1"/>
</svg>
