<svg width="26" height="26" viewBox="0 0 26 26" fill="none" xmlns="http://www.w3.org/2000/svg">
<path d="M26 13C26 20.1797 20.1797 26 13 26C5.8203 26 0 20.1797 0 13C0 5.8203 5.8203 0 13 0C20.1797 0 26 5.8203 26 13ZM13 6.5C12.13 6.5 11.4501 7.25121 11.5367 8.11694L12.1067 13.8165C12.1525 14.2755 12.5388 14.625 13 14.625C13.4612 14.625 13.8475 14.2755 13.8933 13.8165L14.4633 8.11694C14.5499 7.25121 13.87 6.5 13 6.5ZM13.0025 16.25C12.105 16.25 11.3775 16.9775 11.3775 17.875C11.3775 18.7725 12.105 19.5 13.0025 19.5C13.9 19.5 14.6275 18.7725 14.6275 17.875C14.6275 16.9775 13.9 16.25 13.0025 16.25Z" fill="#EBF0F1"/>
</svg>
