<?xml version="1.0" encoding="UTF-8" standalone="no"?>
<!-- Created with Inkscape (http://www.inkscape.org/) -->

<svg
   width="191.7885"
   height="102.53411"
   viewBox="0 0 50.744039 27.128818"
   version="1.1"
   id="svg5"
   xml:space="preserve"
   inkscape:export-filename="flecha.svg"
   inkscape:export-xdpi="96"
   inkscape:export-ydpi="96"
   inkscape:version="1.2 (dc2aedaf03, 2022-05-15)"
   sodipodi:docname="flecha.svg"
   xmlns:inkscape="http://www.inkscape.org/namespaces/inkscape"
   xmlns:sodipodi="http://sodipodi.sourceforge.net/DTD/sodipodi-0.dtd"
   xmlns="http://www.w3.org/2000/svg"
   xmlns:svg="http://www.w3.org/2000/svg"><sodipodi:namedview
     id="namedview7"
     pagecolor="#505050"
     bordercolor="#eeeeee"
     borderopacity="1"
     inkscape:showpageshadow="0"
     inkscape:pageopacity="0"
     inkscape:pagecheckerboard="0"
     inkscape:deskcolor="#505050"
     inkscape:document-units="mm"
     showgrid="false"
     inkscape:zoom="2.6456983"
     inkscape:cx="98.461716"
     inkscape:cy="46.112589"
     inkscape:window-width="1366"
     inkscape:window-height="705"
     inkscape:window-x="-8"
     inkscape:window-y="-8"
     inkscape:window-maximized="1"
     inkscape:current-layer="layer1"
     inkscape:lockguides="false" /><defs
     id="defs2"><inkscape:path-effect
       effect="bspline"
       id="path-effect6237"
       is_visible="true"
       lpeversion="1"
       weight="33.333333"
       steps="2"
       helper_size="0"
       apply_no_weight="true"
       apply_with_weight="true"
       only_selected="false" /><inkscape:path-effect
       effect="powerstroke"
       id="path-effect375"
       is_visible="true"
       lpeversion="1"
       offset_points="1.1921916,3.0001529"
       not_jump="true"
       sort_points="true"
       interpolator_type="CentripetalCatmullRom"
       interpolator_beta="0.75"
       start_linecap_type="round"
       linejoin_type="spiro"
       miter_limit="4"
       scale_width="1"
       end_linecap_type="round" /><inkscape:path-effect
       effect="simplify"
       id="path-effect373"
       is_visible="true"
       lpeversion="1"
       steps="1"
       threshold="0.012334921"
       smooth_angles="0"
       helper_size="0"
       simplify_individual_paths="false"
       simplify_just_coalesce="false"
       step="1" /><inkscape:path-effect
       effect="powerstroke"
       id="path-effect368"
       is_visible="true"
       lpeversion="1"
       offset_points="0.7176358,3.0001529"
       not_jump="true"
       sort_points="true"
       interpolator_type="CentripetalCatmullRom"
       interpolator_beta="0.75"
       start_linecap_type="round"
       linejoin_type="spiro"
       miter_limit="4"
       scale_width="1"
       end_linecap_type="round" /><inkscape:path-effect
       effect="simplify"
       id="path-effect366"
       is_visible="true"
       lpeversion="1"
       steps="1"
       threshold="0.012334921"
       smooth_angles="0"
       helper_size="0"
       simplify_individual_paths="false"
       simplify_just_coalesce="false"
       step="1" /></defs><g
     inkscape:label="Camada 1"
     inkscape:groupmode="layer"
     id="layer1"
     transform="translate(-111.98388,-91.469578)"><g
       id="path6235"><g
         id="g9087"><path
           style="color:#000000;fill:#04574d;stroke-linecap:round;-inkscape-stroke:none"
           d="m 156.91552,91.95183 c -0.50359,-0.121751 -1.19596,0.364589 -1.19596,0.364589 l -7.6512,4.910143 c -0.51801,0.332064 -0.66846,1.021348 -0.33594,1.539063 0.33206,0.518008 1.02135,0.66846 1.53906,0.335937 l 6.97461,-4.476562 4.16016,7.16797 c 0.30864,0.53286 0.9912,0.714 1.52344,0.4043 0.53215,-0.30931 0.71237,-0.99171 0.40234,-1.52344 l -4.53386,-7.812934 c 0,0 -0.37907,-0.787315 -0.88265,-0.909066 z"
           id="path9105"
           sodipodi:nodetypes="zcccccccccz" /></g><path
         style="color:#000000;fill:#04574d;fill-rule:evenodd;stroke-linecap:round;stroke-linejoin:round;stroke-miterlimit:70;paint-order:normal;stroke-width:0.6;stroke-dasharray:none;stroke:none;stroke-opacity:1"
         d="m 156.70898,93.072266 a 1.5145,1.5145 0 0 0 -1.82812,1.117187 c -1.3762,5.693506 -3.26539,10.847587 -7.83594,13.628907 -2.38661,1.45233 -6.13389,2.23319 -9.75976,2.25391 -0.33188,0.002 -0.6163,-0.0809 -0.94532,-0.0918 0.82654,-1.79516 1.40804,-3.62725 1.30274,-5.39258 -0.16771,-2.81152 -1.95503,-4.94993 -4.09571,-6.031249 -2.14067,-1.08132 -4.7125,-1.271135 -6.8496,-0.158204 -2.1371,1.112937 -3.46206,3.354043 -3.61914,5.771483 -0.15709,2.41745 1.00692,5.08008 3.68359,6.67578 1.21014,0.72143 2.72187,1.20727 4.33203,1.57618 -1.41131,1.50853 -3.01313,2.7166 -4.53906,2.96289 -2.32223,0.3748 -5.04155,0.14205 -7.28321,-0.53516 -2.24165,-0.67721 -3.92538,-1.8542 -4.4414,-2.80469 a 1.5145,1.5145 0 0 0 -2.05469,-0.60742 1.5145,1.5145 0 0 0 -0.60742,2.05273 c 1.1672,2.14994 3.53832,3.44706 6.22851,4.25977 2.6902,0.81271 5.77774,1.08707 8.64063,0.625 3.12178,-0.50385 5.74963,-2.72493 7.64648,-5.33789 0.0379,-0.0521 0.0525,-0.11353 0.0898,-0.16602 0.85324,0.0655 1.64951,0.2355 2.52929,0.23047 4.02314,-0.023 8.18529,-0.78992 11.31641,-2.69531 5.66256,-3.44584 7.78155,-9.60848 9.20703,-15.505859 a 1.5145,1.5145 0 0 0 -1.11719,-1.828125 z m -26.68164,7.634764 c 0.71833,0.0275 1.47262,0.21134 2.15235,0.55469 1.35946,0.68671 2.34065,1.84962 2.43945,3.50586 0.0768,1.28694 -0.58406,3.12226 -1.54102,4.89648 -1.94333,-0.32177 -3.68892,-0.77804 -4.76562,-1.41992 -1.79811,-1.07195 -2.30389,-2.4785 -2.21289,-3.87891 0.091,-1.4004 0.93279,-2.72751 1.99609,-3.28125 0.53166,-0.27686 1.21332,-0.40444 1.93164,-0.37695 z"
         id="path9095" /></g></g></svg>
