<svg width="179" height="179" viewBox="0 0 179 179" fill="none" xmlns="http://www.w3.org/2000/svg">
<path d="M117.469 95.0938C117.469 110.54 104.947 123.062 89.5 123.062C74.0533 123.062 61.5312 110.54 61.5312 95.0938C61.5312 79.647 74.0533 67.125 89.5 67.125C104.947 67.125 117.469 79.647 117.469 95.0938Z" fill="#EBF0F1"/>
<path d="M22.375 44.75C10.0176 44.75 0 54.7676 0 67.125V134.25C0 146.607 10.0176 156.625 22.375 156.625H156.625C168.982 156.625 179 146.607 179 134.25V67.125C179 54.7676 168.982 44.75 156.625 44.75H143.518C137.584 44.75 131.893 42.3926 127.697 38.1965L118.428 28.9285C114.232 24.7324 108.541 22.375 102.607 22.375H76.393C70.4588 22.375 64.7676 24.7324 60.5715 28.9285L51.3035 38.1965C47.1074 42.3926 41.4162 44.75 35.482 44.75H22.375ZM27.9688 67.125C24.8794 67.125 22.375 64.6206 22.375 61.5312C22.375 58.4419 24.8794 55.9375 27.9688 55.9375C31.0581 55.9375 33.5625 58.4419 33.5625 61.5312C33.5625 64.6206 31.0581 67.125 27.9688 67.125ZM128.656 95.0938C128.656 116.719 111.125 134.25 89.5 134.25C67.8746 134.25 50.3438 116.719 50.3438 95.0938C50.3438 73.4683 67.8746 55.9375 89.5 55.9375C111.125 55.9375 128.656 73.4683 128.656 95.0938Z" fill="#EBF0F1"/>
</svg>
