<svg width="320" height="367" viewBox="0 0 320 367" fill="none" xmlns="http://www.w3.org/2000/svg">
<rect width="319.16" height="367" rx="18" fill="#F0B6BC"/>
<path d="M47.4202 82.4H59.5002V88H39.6602V82.8L51.6602 65.52H39.6602V59.92H59.5002V65.12L47.4202 82.4ZM74.1283 88.32C71.9416 88.32 69.9683 87.8533 68.2083 86.92C66.4749 85.9867 65.1016 84.6533 64.0883 82.92C63.1016 81.1867 62.6083 79.16 62.6083 76.84C62.6083 74.5467 63.1149 72.5333 64.1283 70.8C65.1416 69.04 66.5283 67.6933 68.2883 66.76C70.0483 65.8267 72.0216 65.36 74.2083 65.36C76.3949 65.36 78.3683 65.8267 80.1283 66.76C81.8883 67.6933 83.2749 69.04 84.2883 70.8C85.3016 72.5333 85.8083 74.5467 85.8083 76.84C85.8083 79.1333 85.2883 81.16 84.2483 82.92C83.2349 84.6533 81.8349 85.9867 80.0483 86.92C78.2883 87.8533 76.3149 88.32 74.1283 88.32ZM74.1283 82.4C75.4349 82.4 76.5416 81.92 77.4483 80.96C78.3816 80 78.8483 78.6267 78.8483 76.84C78.8483 75.0533 78.3949 73.68 77.4883 72.72C76.6083 71.76 75.5149 71.28 74.2083 71.28C72.8749 71.28 71.7683 71.76 70.8883 72.72C70.0083 73.6533 69.5683 75.0267 69.5683 76.84C69.5683 78.6267 69.9949 80 70.8483 80.96C71.7283 81.92 72.8216 82.4 74.1283 82.4ZM103.037 65.44C105.65 65.44 107.73 66.2933 109.277 68C110.85 69.68 111.637 72 111.637 74.96V88H104.837V75.88C104.837 74.3867 104.45 73.2267 103.677 72.4C102.904 71.5733 101.864 71.16 100.557 71.16C99.2504 71.16 98.2104 71.5733 97.437 72.4C96.6637 73.2267 96.277 74.3867 96.277 75.88V88H89.437V65.68H96.277V68.64C96.9704 67.6533 97.9037 66.88 99.077 66.32C100.25 65.7333 101.57 65.44 103.037 65.44ZM115.03 76.8C115.03 74.5067 115.457 72.4933 116.31 70.76C117.19 69.0267 118.377 67.6933 119.87 66.76C121.363 65.8267 123.03 65.36 124.87 65.36C126.443 65.36 127.817 65.68 128.99 66.32C130.19 66.96 131.11 67.8 131.75 68.84V65.68H138.59V88H131.75V84.84C131.083 85.88 130.15 86.72 128.95 87.36C127.777 88 126.403 88.32 124.83 88.32C123.017 88.32 121.363 87.8533 119.87 86.92C118.377 85.96 117.19 84.6133 116.31 82.88C115.457 81.12 115.03 79.0933 115.03 76.8ZM131.75 76.84C131.75 75.1333 131.27 73.7867 130.31 72.8C129.377 71.8133 128.23 71.32 126.87 71.32C125.51 71.32 124.35 71.8133 123.39 72.8C122.457 73.76 121.99 75.0933 121.99 76.8C121.99 78.5067 122.457 79.8667 123.39 80.88C124.35 81.8667 125.51 82.36 126.87 82.36C128.23 82.36 129.377 81.8667 130.31 80.88C131.27 79.8933 131.75 78.5467 131.75 76.84ZM152.619 88.32C150.672 88.32 148.939 87.9867 147.419 87.32C145.899 86.6533 144.699 85.7467 143.819 84.6C142.939 83.4267 142.445 82.12 142.339 80.68H149.099C149.179 81.4533 149.539 82.08 150.179 82.56C150.819 83.04 151.605 83.28 152.539 83.28C153.392 83.28 154.045 83.12 154.499 82.8C154.979 82.4533 155.219 82.0133 155.219 81.48C155.219 80.84 154.885 80.3733 154.219 80.08C153.552 79.76 152.472 79.4133 150.979 79.04C149.379 78.6667 148.045 78.28 146.979 77.88C145.912 77.4533 144.992 76.8 144.219 75.92C143.445 75.0133 143.059 73.8 143.059 72.28C143.059 71 143.405 69.84 144.099 68.8C144.819 67.7333 145.859 66.8933 147.219 66.28C148.605 65.6667 150.245 65.36 152.139 65.36C154.939 65.36 157.139 66.0533 158.739 67.44C160.365 68.8267 161.299 70.6667 161.539 72.96H155.219C155.112 72.1867 154.765 71.5733 154.179 71.12C153.619 70.6667 152.872 70.44 151.939 70.44C151.139 70.44 150.525 70.6 150.099 70.92C149.672 71.2133 149.459 71.6267 149.459 72.16C149.459 72.8 149.792 73.28 150.459 73.6C151.152 73.92 152.219 74.24 153.659 74.56C155.312 74.9867 156.659 75.4133 157.699 75.84C158.739 76.24 159.645 76.9067 160.419 77.84C161.219 78.7467 161.632 79.9733 161.659 81.52C161.659 82.8267 161.285 84 160.539 85.04C159.819 86.0533 158.765 86.8533 157.379 87.44C156.019 88.0267 154.432 88.32 152.619 88.32Z" fill="#EBF0F1"/>
</svg>
