<svg width="150" height="150" viewBox="0 0 150 150" fill="none" xmlns="http://www.w3.org/2000/svg">
<rect width="150" height="150" rx="75" fill="#EBF0F1"/>
<path d="M92.8453 35.9754C93.4138 34.3542 92.3769 32.6355 90.5294 32.1366C88.6819 31.6378 86.7233 32.5477 86.1549 34.1689L58.1549 114.025C57.5864 115.646 58.6233 117.365 60.4708 117.863C62.3183 118.362 64.2768 117.452 64.8453 115.831L92.8453 35.9754Z" fill="#EC9399"/>
<path d="M53.4749 51.3286C54.8417 52.528 54.8417 54.4727 53.4749 55.6721L31.4497 74.9999L53.4749 94.3277C54.8417 95.5272 54.8417 97.4719 53.4749 98.6713C52.108 99.8708 49.892 99.8708 48.5251 98.6713L24.0251 77.1717C22.6583 75.9723 22.6583 74.0276 24.0251 72.8281L48.5251 51.3286C49.892 50.1291 52.108 50.1291 53.4749 51.3286Z" fill="#EC9399"/>
<path d="M97.5251 51.3286C96.1583 52.528 96.1583 54.4727 97.5251 55.6721L119.55 74.9999L97.5251 94.3277C96.1583 95.5272 96.1583 97.4719 97.5251 98.6713C98.892 99.8708 101.108 99.8708 102.475 98.6713L126.975 77.1717C128.342 75.9723 128.342 74.0276 126.975 72.8281L102.475 51.3286C101.108 50.1291 98.892 50.1291 97.5251 51.3286Z" fill="#EC9399"/>
</svg>
