<svg width="150" height="150" viewBox="0 0 150 150" fill="none" xmlns="http://www.w3.org/2000/svg">
<rect width="150" height="150" rx="75" fill="#EBF0F1"/>
<path d="M76.2158 40.0256C75.4452 39.6581 74.5549 39.6581 73.7842 40.0256L30.6592 60.5881C29.6205 61.0834 28.969 62.1617 29.0011 63.3324C29.0333 64.5031 29.743 65.5424 30.8073 65.9774L73.9323 83.6024C74.6177 83.8825 75.3823 83.8825 76.0678 83.6024L109.5 69.9388V104.375C106.324 104.375 103.75 107.005 103.75 110.25V122H121V110.25C121 107.005 118.426 104.375 115.25 104.375V67.5888L119.193 65.9774C120.257 65.5424 120.967 64.5031 120.999 63.3324C121.031 62.1617 120.38 61.0834 119.341 60.5881L76.2158 40.0256Z" fill="#EA8C94"/>
<path d="M53.0095 81.062C52.2616 80.7755 51.4307 80.8197 50.716 81.1843C50.0013 81.5488 49.4672 82.2006 49.2418 82.9836L46.3668 92.9711C45.9484 94.4246 46.6805 95.9647 48.0573 96.5274L73.9323 107.102C74.6177 107.383 75.3823 107.383 76.0678 107.102L101.943 96.5274C103.319 95.9647 104.052 94.4246 103.633 92.9711L100.758 82.9836C100.533 82.2006 99.9987 81.5488 99.2841 81.1843C98.5694 80.8197 97.7385 80.7755 96.9905 81.062L75 89.4877L53.0095 81.062Z" fill="#EA8C94"/>
</svg>
