<svg width="329" height="375" viewBox="0 0 329 375" fill="none" xmlns="http://www.w3.org/2000/svg">
<g filter="url(#filter0_d_459_312)">
<rect x="4.91992" width="319.16" height="367" rx="18" fill="#F0B6BC"/>
<path d="M49.2497 65.4V71.08H58.4097V76.36H49.2497V82.52H59.6097V88H42.4097V59.92H59.6097V65.4H49.2497ZM73.1303 88.32C71.1836 88.32 69.4503 87.9867 67.9303 87.32C66.4103 86.6533 65.2103 85.7467 64.3303 84.6C63.4503 83.4267 62.957 82.12 62.8503 80.68H69.6103C69.6903 81.4533 70.0503 82.08 70.6903 82.56C71.3303 83.04 72.117 83.28 73.0503 83.28C73.9036 83.28 74.557 83.12 75.0103 82.8C75.4903 82.4533 75.7303 82.0133 75.7303 81.48C75.7303 80.84 75.397 80.3733 74.7303 80.08C74.0636 79.76 72.9836 79.4133 71.4903 79.04C69.8903 78.6667 68.557 78.28 67.4903 77.88C66.4236 77.4533 65.5036 76.8 64.7303 75.92C63.957 75.0133 63.5703 73.8 63.5703 72.28C63.5703 71 63.917 69.84 64.6103 68.8C65.3303 67.7333 66.3703 66.8933 67.7303 66.28C69.117 65.6667 70.757 65.36 72.6503 65.36C75.4503 65.36 77.6503 66.0533 79.2503 67.44C80.877 68.8267 81.8103 70.6667 82.0503 72.96H75.7303C75.6236 72.1867 75.277 71.5733 74.6903 71.12C74.1303 70.6667 73.3836 70.44 72.4503 70.44C71.6503 70.44 71.037 70.6 70.6103 70.92C70.1836 71.2133 69.9703 71.6267 69.9703 72.16C69.9703 72.8 70.3036 73.28 70.9703 73.6C71.6636 73.92 72.7303 74.24 74.1703 74.56C75.8236 74.9867 77.1703 75.4133 78.2103 75.84C79.2503 76.24 80.157 76.9067 80.9303 77.84C81.7303 78.7467 82.1436 79.9733 82.1703 81.52C82.1703 82.8267 81.797 84 81.0503 85.04C80.3303 86.0533 79.277 86.8533 77.8903 87.44C76.5303 88.0267 74.9436 88.32 73.1303 88.32ZM93.195 68.84C93.8617 67.8 94.7817 66.96 95.955 66.32C97.1283 65.68 98.5017 65.36 100.075 65.36C101.915 65.36 103.582 65.8267 105.075 66.76C106.568 67.6933 107.742 69.0267 108.595 70.76C109.475 72.4933 109.915 74.5067 109.915 76.8C109.915 79.0933 109.475 81.12 108.595 82.88C107.742 84.6133 106.568 85.96 105.075 86.92C103.582 87.8533 101.915 88.32 100.075 88.32C98.5283 88.32 97.155 88 95.955 87.36C94.7817 86.72 93.8617 85.8933 93.195 84.88V98.64H86.355V65.68H93.195V68.84ZM102.955 76.8C102.955 75.0933 102.475 73.76 101.515 72.8C100.582 71.8133 99.4217 71.32 98.035 71.32C96.675 71.32 95.515 71.8133 94.555 72.8C93.6217 73.7867 93.155 75.1333 93.155 76.84C93.155 78.5467 93.6217 79.8933 94.555 80.88C95.515 81.8667 96.675 82.36 98.035 82.36C99.395 82.36 100.555 81.8667 101.515 80.88C102.475 79.8667 102.955 78.5067 102.955 76.8ZM134.543 76.48C134.543 77.12 134.503 77.7867 134.423 78.48H118.943C119.05 79.8667 119.49 80.9333 120.263 81.68C121.063 82.4 122.037 82.76 123.183 82.76C124.89 82.76 126.077 82.04 126.743 80.6H134.023C133.65 82.0667 132.97 83.3867 131.983 84.56C131.023 85.7333 129.81 86.6533 128.343 87.32C126.877 87.9867 125.237 88.32 123.423 88.32C121.237 88.32 119.29 87.8533 117.583 86.92C115.877 85.9867 114.543 84.6533 113.583 82.92C112.623 81.1867 112.143 79.16 112.143 76.84C112.143 74.52 112.61 72.4933 113.543 70.76C114.503 69.0267 115.837 67.6933 117.543 66.76C119.25 65.8267 121.21 65.36 123.423 65.36C125.583 65.36 127.503 65.8133 129.183 66.72C130.863 67.6267 132.17 68.92 133.103 70.6C134.063 72.28 134.543 74.24 134.543 76.48ZM127.543 74.68C127.543 73.5067 127.143 72.5733 126.343 71.88C125.543 71.1867 124.543 70.84 123.343 70.84C122.197 70.84 121.223 71.1733 120.423 71.84C119.65 72.5067 119.17 73.4533 118.983 74.68H127.543ZM128.023 59.96L118.383 64V59.28L128.023 54.64V59.96ZM136.792 76.84C136.792 74.52 137.259 72.4933 138.192 70.76C139.152 69.0267 140.472 67.6933 142.152 66.76C143.859 65.8267 145.805 65.36 147.992 65.36C150.792 65.36 153.125 66.0933 154.992 67.56C156.885 69.0267 158.125 71.0933 158.712 73.76H151.432C150.819 72.0533 149.632 71.2 147.872 71.2C146.619 71.2 145.619 71.6933 144.872 72.68C144.125 73.64 143.752 75.0267 143.752 76.84C143.752 78.6533 144.125 80.0533 144.872 81.04C145.619 82 146.619 82.48 147.872 82.48C149.632 82.48 150.819 81.6267 151.432 79.92H158.712C158.125 82.5333 156.885 84.5867 154.992 86.08C153.099 87.5733 150.765 88.32 147.992 88.32C145.805 88.32 143.859 87.8533 142.152 86.92C140.472 85.9867 139.152 84.6533 138.192 82.92C137.259 81.1867 136.792 79.16 136.792 76.84ZM165.811 63.36C164.611 63.36 163.624 63.0133 162.851 62.32C162.104 61.6 161.731 60.72 161.731 59.68C161.731 58.6133 162.104 57.7333 162.851 57.04C163.624 56.32 164.611 55.96 165.811 55.96C166.984 55.96 167.944 56.32 168.691 57.04C169.464 57.7333 169.851 58.6133 169.851 59.68C169.851 60.72 169.464 61.6 168.691 62.32C167.944 63.0133 166.984 63.36 165.811 63.36ZM169.211 65.68V88H162.371V65.68H169.211ZM195.207 76.48C195.207 77.12 195.168 77.7867 195.088 78.48H179.608C179.714 79.8667 180.154 80.9333 180.928 81.68C181.728 82.4 182.701 82.76 183.848 82.76C185.554 82.76 186.741 82.04 187.408 80.6H194.688C194.314 82.0667 193.634 83.3867 192.648 84.56C191.688 85.7333 190.474 86.6533 189.008 87.32C187.541 87.9867 185.901 88.32 184.088 88.32C181.901 88.32 179.954 87.8533 178.248 86.92C176.541 85.9867 175.208 84.6533 174.248 82.92C173.288 81.1867 172.808 79.16 172.808 76.84C172.808 74.52 173.274 72.4933 174.208 70.76C175.168 69.0267 176.501 67.6933 178.208 66.76C179.914 65.8267 181.874 65.36 184.088 65.36C186.248 65.36 188.168 65.8133 189.848 66.72C191.528 67.6267 192.834 68.92 193.768 70.6C194.728 72.28 195.207 74.24 195.207 76.48ZM188.208 74.68C188.208 73.5067 187.808 72.5733 187.008 71.88C186.208 71.1867 185.208 70.84 184.008 70.84C182.861 70.84 181.888 71.1733 181.088 71.84C180.314 72.5067 179.834 73.4533 179.648 74.68H188.208Z" fill="#EBF0F1"/>
</g>
<defs>
<filter id="filter0_d_459_312" x="0.919922" y="0" width="327.16" height="375" filterUnits="userSpaceOnUse" color-interpolation-filters="sRGB">
<feFlood flood-opacity="0" result="BackgroundImageFix"/>
<feColorMatrix in="SourceAlpha" type="matrix" values="0 0 0 0 0 0 0 0 0 0 0 0 0 0 0 0 0 0 127 0" result="hardAlpha"/>
<feOffset dy="4"/>
<feGaussianBlur stdDeviation="2"/>
<feComposite in2="hardAlpha" operator="out"/>
<feColorMatrix type="matrix" values="0 0 0 0 0 0 0 0 0 0 0 0 0 0 0 0 0 0 0.25 0"/>
<feBlend mode="normal" in2="BackgroundImageFix" result="effect1_dropShadow_459_312"/>
<feBlend mode="normal" in="SourceGraphic" in2="effect1_dropShadow_459_312" result="shape"/>
</filter>
</defs>
</svg>
