<svg width="321" height="367" viewBox="0 0 321 367" fill="none" xmlns="http://www.w3.org/2000/svg">
<rect x="0.841797" width="319.16" height="367" rx="18" fill="#F0B6BC"/>
<path d="M60.9425 68.96C60.9425 70.5867 60.5692 72.08 59.8225 73.44C59.0758 74.7733 57.9292 75.8533 56.3825 76.68C54.8358 77.5067 52.9158 77.92 50.6225 77.92H46.3825V88H39.5425V59.92H50.6225C52.8625 59.92 54.7558 60.3067 56.3025 61.08C57.8492 61.8533 59.0092 62.92 59.7825 64.28C60.5558 65.64 60.9425 67.2 60.9425 68.96ZM50.1025 72.48C51.4092 72.48 52.3825 72.1733 53.0225 71.56C53.6625 70.9467 53.9825 70.08 53.9825 68.96C53.9825 67.84 53.6625 66.9733 53.0225 66.36C52.3825 65.7467 51.4092 65.44 50.1025 65.44H46.3825V72.48H50.1025ZM71.3434 58.4V88H64.5034V58.4H71.3434ZM74.9403 76.8C74.9403 74.5067 75.367 72.4933 76.2203 70.76C77.1003 69.0267 78.287 67.6933 79.7803 66.76C81.2736 65.8267 82.9403 65.36 84.7803 65.36C86.3536 65.36 87.727 65.68 88.9003 66.32C90.1003 66.96 91.0203 67.8 91.6603 68.84V65.68H98.5003V88H91.6603V84.84C90.9936 85.88 90.0603 86.72 88.8603 87.36C87.687 88 86.3136 88.32 84.7403 88.32C82.927 88.32 81.2736 87.8533 79.7803 86.92C78.287 85.96 77.1003 84.6133 76.2203 82.88C75.367 81.12 74.9403 79.0933 74.9403 76.8ZM91.6603 76.84C91.6603 75.1333 91.1803 73.7867 90.2203 72.8C89.287 71.8133 88.1403 71.32 86.7803 71.32C85.4203 71.32 84.2603 71.8133 83.3003 72.8C82.367 73.76 81.9003 75.0933 81.9003 76.8C81.9003 78.5067 82.367 79.8667 83.3003 80.88C84.2603 81.8667 85.4203 82.36 86.7803 82.36C88.1403 82.36 89.287 81.8667 90.2203 80.88C91.1803 79.8933 91.6603 78.5467 91.6603 76.84ZM117.049 65.44C119.662 65.44 121.742 66.2933 123.289 68C124.862 69.68 125.649 72 125.649 74.96V88H118.849V75.88C118.849 74.3867 118.462 73.2267 117.689 72.4C116.915 71.5733 115.875 71.16 114.569 71.16C113.262 71.16 112.222 71.5733 111.449 72.4C110.675 73.2267 110.289 74.3867 110.289 75.88V88H103.449V65.68H110.289V68.64C110.982 67.6533 111.915 66.88 113.089 66.32C114.262 65.7333 115.582 65.44 117.049 65.44ZM142.842 82.2V88H139.362C136.882 88 134.949 87.4 133.562 86.2C132.175 84.9733 131.482 82.9867 131.482 80.24V71.36H128.762V65.68H131.482V60.24H138.322V65.68H142.802V71.36H138.322V80.32C138.322 80.9867 138.482 81.4667 138.802 81.76C139.122 82.0533 139.655 82.2 140.402 82.2H142.842ZM145.292 76.8C145.292 74.5067 145.719 72.4933 146.572 70.76C147.452 69.0267 148.639 67.6933 150.132 66.76C151.625 65.8267 153.292 65.36 155.132 65.36C156.705 65.36 158.079 65.68 159.252 66.32C160.452 66.96 161.372 67.8 162.012 68.84V65.68H168.852V88H162.012V84.84C161.345 85.88 160.412 86.72 159.212 87.36C158.039 88 156.665 88.32 155.092 88.32C153.279 88.32 151.625 87.8533 150.132 86.92C148.639 85.96 147.452 84.6133 146.572 82.88C145.719 81.12 145.292 79.0933 145.292 76.8ZM162.012 76.84C162.012 75.1333 161.532 73.7867 160.572 72.8C159.639 71.8133 158.492 71.32 157.132 71.32C155.772 71.32 154.612 71.8133 153.652 72.8C152.719 73.76 152.252 75.0933 152.252 76.8C152.252 78.5067 152.719 79.8667 153.652 80.88C154.612 81.8667 155.772 82.36 157.132 82.36C158.492 82.36 159.639 81.8667 160.572 80.88C161.532 79.8933 162.012 78.5467 162.012 76.84ZM182.88 88.32C180.934 88.32 179.2 87.9867 177.68 87.32C176.16 86.6533 174.96 85.7467 174.08 84.6C173.2 83.4267 172.707 82.12 172.6 80.68H179.36C179.44 81.4533 179.8 82.08 180.44 82.56C181.08 83.04 181.867 83.28 182.8 83.28C183.654 83.28 184.307 83.12 184.76 82.8C185.24 82.4533 185.48 82.0133 185.48 81.48C185.48 80.84 185.147 80.3733 184.48 80.08C183.814 79.76 182.734 79.4133 181.24 79.04C179.64 78.6667 178.307 78.28 177.24 77.88C176.174 77.4533 175.254 76.8 174.48 75.92C173.707 75.0133 173.32 73.8 173.32 72.28C173.32 71 173.667 69.84 174.36 68.8C175.08 67.7333 176.12 66.8933 177.48 66.28C178.867 65.6667 180.507 65.36 182.4 65.36C185.2 65.36 187.4 66.0533 189 67.44C190.627 68.8267 191.56 70.6667 191.8 72.96H185.48C185.374 72.1867 185.027 71.5733 184.44 71.12C183.88 70.6667 183.134 70.44 182.2 70.44C181.4 70.44 180.787 70.6 180.36 70.92C179.934 71.2133 179.72 71.6267 179.72 72.16C179.72 72.8 180.054 73.28 180.72 73.6C181.414 73.92 182.48 74.24 183.92 74.56C185.574 74.9867 186.92 75.4133 187.96 75.84C189 76.24 189.907 76.9067 190.68 77.84C191.48 78.7467 191.894 79.9733 191.92 81.52C191.92 82.8267 191.547 84 190.8 85.04C190.08 86.0533 189.027 86.8533 187.64 87.44C186.28 88.0267 184.694 88.32 182.88 88.32Z" fill="#EBF0F1"/>
</svg>
