<svg width="150" height="150" viewBox="0 0 150 150" fill="none" xmlns="http://www.w3.org/2000/svg">
<rect width="150" height="150" rx="75" fill="#EBF0F1"/>
<path d="M78.125 51.6181C82.21 48.3041 89.2626 47.3548 97.577 48.0005C105.288 48.5994 113.219 50.5165 118.75 52.296V100.053C113.014 98.3688 105.582 96.7228 98.2042 96.1498C91.3709 95.6191 83.9681 95.9692 78.125 98.52V51.6181ZM75 47.2693C68.8443 43.1951 59.9177 42.5815 51.7958 43.2123C42.3326 43.9473 32.7787 46.4477 26.8319 48.5291C25.7163 48.9196 25 49.7761 25 50.7197V103.657C25 104.475 25.5399 105.237 26.4332 105.68C27.3265 106.123 28.4509 106.186 29.4181 105.848C34.9297 103.919 43.8132 101.607 52.423 100.938C61.2228 100.255 68.6092 101.358 72.5598 105.16C73.1528 105.731 74.0507 106.063 75 106.063C75.9493 106.063 76.8472 105.731 77.4402 105.16C81.3908 101.358 88.7772 100.255 97.577 100.938C106.187 101.607 115.07 103.919 120.582 105.848C121.549 106.186 122.674 106.123 123.567 105.68C124.46 105.237 125 104.475 125 103.657V50.7197C125 49.7761 124.284 48.9196 123.168 48.5291C117.221 46.4477 107.667 43.9473 98.2042 43.2123C90.0823 42.5815 81.1557 43.1951 75 47.2693Z" fill="#EA8C94"/>
</svg>
