<?xml version="1.0" encoding="UTF-8" standalone="no"?>
<!-- Created with Inkscape (http://www.inkscape.org/) -->

<svg
   version="1.1"
   id="svg5812"
   width="580.79999"
   height="504"
   viewBox="0 0 580.79999 504"
   sodipodi:docname="imagem-bottom.png"
   xml:space="preserve"
   inkscape:version="1.2 (dc2aedaf03, 2022-05-15)"
   xmlns:inkscape="http://www.inkscape.org/namespaces/inkscape"
   xmlns:sodipodi="http://sodipodi.sourceforge.net/DTD/sodipodi-0.dtd"
   xmlns="http://www.w3.org/2000/svg"
   xmlns:svg="http://www.w3.org/2000/svg"><defs
     id="defs5816" /><sodipodi:namedview
     id="namedview5814"
     pagecolor="#505050"
     bordercolor="#eeeeee"
     borderopacity="1"
     inkscape:showpageshadow="0"
     inkscape:pageopacity="0"
     inkscape:pagecheckerboard="0"
     inkscape:deskcolor="#505050"
     showgrid="false"
     inkscape:zoom="1.0416667"
     inkscape:cx="288"
     inkscape:cy="252.48"
     inkscape:window-width="1366"
     inkscape:window-height="705"
     inkscape:window-x="-8"
     inkscape:window-y="-8"
     inkscape:window-maximized="1"
     inkscape:current-layer="svg5812"><inkscape:page
       x="0"
       y="0"
       width="580.79999"
       height="504"
       id="page8854" /><inkscape:page
       x="590.79999"
       y="0"
       width="465.81921"
       height="465.81921"
       id="page8856" /></sodipodi:namedview><g
     inkscape:groupmode="layer"
     id="layer2"
     inkscape:label="SVG"><path
       style="fill:#5b9a7d;fill-opacity:1;stroke-width:0.409511"
       d="M 59.250118,161.89977 C 32.573018,147.91753 3.9106177,99.107897 0.38324792,67.558936 -3.1441255,36.009983 18.331448,6.4804034 37.916836,0.98352177 57.502242,-4.513359 75.190858,14.031141 79.243793,31.747632 c 4.052921,17.716506 -6.14444,36.726824 -15.726621,53.615861 8.697923,-6.124146 27.778889,-6.920758 28.018573,4.502357 0.309852,14.76761 -15.227557,37.4169 -37.925128,49.90057 2.111419,8.6193 3.573574,12.28931 5.639501,22.13335 z"
       id="path465"
       sodipodi:nodetypes="cccccscc" /><path
       style="display:inline;fill:#ec9399;fill-opacity:1;stroke-width:0.258049"
       d="m 183.97543,130.21298 c -18.15661,-5.52726 -41.62795,-32.384045 -47.51277,-51.502915 -5.88484,-19.118864 3.94709,-39.920555 15.428,-45.62133 11.48094,-5.700778 24.60778,3.705509 29.19534,14.198739 4.58755,10.493236 0.50421,23.459186 -3.4471,35.03964 4.66667,-4.811942 16.38666,-7.543503 17.87509,-0.499312 1.92419,9.106609 -5.03839,24.951968 -17.62653,35.343488 2.31835,5.08872 3.65412,7.18938 6.08797,13.04169 z"
       id="path465-7"
       sodipodi:nodetypes="cccccscc" /><path
       style="fill:#5b9a7d;fill-opacity:1;stroke-width:0.317494"
       d="m 263.26761,252.95146 c -22.05443,-7.67405 -49.61055,-41.82817 -55.9201,-65.61799 -6.30955,-23.78981 6.78475,-48.88784 21.17546,-55.34078 14.39074,-6.45293 30.0738,5.74662 35.20594,18.86917 5.13211,13.12257 -0.51554,28.86547 -5.93383,42.91137 5.97016,-5.68999 20.51108,-8.48097 22.00004,0.25132 1.92489,11.2889 -7.40191,30.43241 -23.38093,42.59863 2.60394,6.36834 4.14448,9.01558 6.85342,16.32828 z"
       id="path465-7-0"
       sodipodi:nodetypes="cccccscc" /><path
       style="fill:#5b9a7d;fill-opacity:1;stroke-width:0.386184"
       d="m 436.30354,224.28341 c -28.17588,-3.58901 -69.55563,-37.30882 -83.04466,-64.03492 -13.48902,-26.72607 -4.21447,-59.88662 11.28974,-71.183626 15.50426,-11.297011 37.23518,-0.720667 46.64155,13.606336 9.40632,14.32704 6.64239,34.48221 3.72485,52.56018 5.67476,-8.27236 22.27825,-15.24905 26.2453,-5.23111 5.12848,12.95101 -1.15917,38.07808 -17.11746,56.57369 4.69974,6.92437 7.19859,9.68759 12.26068,17.70945 z"
       id="path465-7-0-7"
       sodipodi:nodetypes="cccccscc" /><path
       style="fill:#5b9a7d;fill-opacity:1;stroke-width:0.586337"
       d="M 109.99113,397.5394 C 71.933387,377.25778 31.375537,307.09187 26.63546,261.88646 c -4.740078,-45.20537 26.298353,-87.27361 54.394084,-94.95124 28.095796,-7.67761 53.239356,19.04774 58.867976,44.45346 5.62853,25.40576 -9.15863,52.5238 -23.04418,76.61069 12.51364,-8.6828 39.84091,-9.63571 40.07175,6.7219 0.29832,21.14678 -22.17026,53.42247 -54.79073,71.0729 2.93833,12.36158 4.9957,17.63058 7.85677,31.74523 z"
       id="path465-7-0-7-4"
       sodipodi:nodetypes="cccccscc" /><path
       style="fill:#5b9a7d;fill-opacity:1;stroke-width:0.533423"
       d="m 337.52479,504 c -34.6232,-18.4513 -71.52089,-82.28505 -75.8332,-123.41088 -4.31231,-41.12579 23.92504,-79.39756 49.48526,-86.38232 25.56028,-6.98474 48.43475,17.32877 53.55541,40.44174 5.12058,23.113 -8.3321,47.78376 -20.96454,69.69692 11.38434,-7.89922 36.24545,-8.76613 36.45545,6.11528 0.2714,19.23838 -20.16949,48.60133 -49.84611,64.65889 2.67316,11.24601 4.54486,16.0395 7.14773,28.88037 z"
       id="path465-7-0-7-4-4"
       sodipodi:nodetypes="cccccscc" /><path
       style="fill:#5b9a7d;fill-opacity:1;stroke-width:0.598947"
       d="m 544.78445,457.8877 c -40.90852,-16.34253 -89.92767,-83.05731 -99.79008,-128.42853 -9.8624,-45.37119 16.9544,-91.55343 44.62466,-102.48742 27.67034,-10.93398 56.18582,13.39389 64.73882,38.56164 8.55291,25.1678 -3.4326,54.35465 -14.84121,80.36301 11.73623,-10.21412 39.37737,-14.23412 41.43889,2.34929 2.665,21.43871 -16.54397,56.72053 -47.69461,78.28612 4.3643,12.2235 7.04186,17.34373 11.52353,31.35589 z"
       id="path465-7-0-7-4-4-3"
       sodipodi:nodetypes="cccccscc" /></g></svg>
