<?xml version="1.0" encoding="UTF-8" standalone="no"?>
<!-- Created with Inkscape (http://www.inkscape.org/) -->

<svg
   version="1.1"
   id="svg4959"
   width="421.12"
   height="522.88"
   viewBox="0 0 421.12 522.88"
   sodipodi:docname="imagem-top.png"
   xml:space="preserve"
   inkscape:version="1.2 (dc2aedaf03, 2022-05-15)"
   xmlns:inkscape="http://www.inkscape.org/namespaces/inkscape"
   xmlns:sodipodi="http://sodipodi.sourceforge.net/DTD/sodipodi-0.dtd"
   xmlns="http://www.w3.org/2000/svg"
   xmlns:svg="http://www.w3.org/2000/svg"><defs
     id="defs4963" /><sodipodi:namedview
     id="namedview4961"
     pagecolor="#505050"
     bordercolor="#eeeeee"
     borderopacity="1"
     inkscape:showpageshadow="0"
     inkscape:pageopacity="0"
     inkscape:pagecheckerboard="0"
     inkscape:deskcolor="#505050"
     showgrid="false"
     inkscape:zoom="1.0040545"
     inkscape:cx="208.15604"
     inkscape:cy="341.61494"
     inkscape:window-width="1366"
     inkscape:window-height="705"
     inkscape:window-x="-8"
     inkscape:window-y="-8"
     inkscape:window-maximized="1"
     inkscape:current-layer="svg4959"><inkscape:page
       x="0"
       y="0"
       width="421.12"
       height="522.88"
       id="page7403" /><inkscape:page
       x="431.12"
       y="0"
       width="465.81921"
       height="465.81921"
       id="page7405" /></sodipodi:namedview><g
     inkscape:groupmode="layer"
     id="layer1"
     inkscape:label="SVG"
     style="fill:#5a997c;fill-opacity:1"><path
       style="fill:#5a997c;fill-opacity:1;stroke-width:0.292295"
       d="m 78.393928,176.31187 c -19.041151,-9.98 -39.499334,-44.81855 -42.017043,-67.33706 -2.517711,-22.5185 12.810773,-43.595643 26.790117,-47.519118 13.979354,-3.923475 26.604848,9.312917 29.497685,21.95831 2.892831,12.645397 -4.385679,26.214278 -11.225092,38.269058 6.208263,-4.37119 19.827565,-4.93979 19.998645,3.21362 0.22116,10.54059 -10.86888,26.70683 -27.069586,35.61722 1.507058,6.15215 2.550688,8.77167 4.025274,15.79797 z"
       id="path465"
       sodipodi:nodetypes="cccccscc" /><path
       style="fill:#5a997c;fill-opacity:1;stroke-width:0.445217"
       d="m 222.6565,267.18015 c -29.44842,-14.3195 -62.19639,-66.42065 -67.06421,-100.58904 -4.86783,-34.16839 17.50109,-66.96232 38.60417,-73.578045 21.10308,-6.615737 40.93335,12.956365 45.91867,32.075855 4.98531,19.1195 -5.47267,40.11234 -15.33166,58.7798 9.25113,-6.94031 29.96017,-8.43177 30.59526,3.97381 0.82102,16.03773 -15.3206,41.16014 -39.57652,55.47042 2.57716,9.29733 4.28643,13.23754 6.85429,23.8672 z"
       id="path465-4"
       sodipodi:nodetypes="cccccscc" /><path
       style="fill:#5a997c;fill-opacity:1;stroke-width:0.233344"
       d="M 41.236609,300.23684 C 25.1235,294.32848 5.2906064,268.89412 0.9442868,251.33518 -3.4020331,233.77624 6.5265336,215.49272 17.180286,210.92637 c 10.653758,-4.56637 22.029615,4.58983 25.640857,14.29555 3.611241,9.70573 -0.731019,21.2055 -4.884022,31.46103 4.456593,-4.10845 15.176052,-5.982 16.163669,0.45308 1.276766,8.31914 -5.810619,22.27296 -17.701202,31.01836 1.835788,4.71154 2.935561,6.67566 4.837021,12.08245 z"
       id="path465-6"
       sodipodi:nodetypes="cccccscc" /><path
       style="fill:#5a997c;fill-opacity:1;stroke-width:0.504811"
       d="m 404.54565,189.25325 c -36.23137,-8.11165 -85.96728,-57.04953 -100.25891,-93.479487 -14.2916,-36.429969 1.8282,-78.454222 23.3858,-91.2633815 21.55756,-12.8092002 48.54778,3.6091485 59.04012,23.4037195 10.49233,19.794589 4.43392,45.688085 -1.57076,68.859391 8.39561,-10.073082 30.85624,-17.125366 34.79579,-3.603045 5.09298,17.481383 -6.1586,49.415233 -29.18611,71.537603 5.27088,9.58565 8.18556,13.48699 13.79407,24.5452 z"
       id="path465-6-0"
       sodipodi:nodetypes="cccccscc" /><path
       style="fill:#5a997c;fill-opacity:1;stroke-width:0.489279"
       d="M 232.33019,470.11974 C 196.96941,463.441 147.19851,417.6539 132.16901,382.82971 c -15.02947,-34.82421 -0.78185,-76.05706 19.68391,-89.16658 20.46572,-13.10956 47.14503,1.91645 57.95291,20.74977 10.80788,18.83336 5.78171,44.11318 0.71904,66.7543 7.80493,-10.03084 29.33278,-17.59314 33.58896,-4.62244 5.50233,16.76827 -4.35783,48.06827 -25.94444,70.24722 5.41774,9.11397 8.36808,12.79832 14.1608,23.32776 z"
       id="path465-6-0-1"
       sodipodi:nodetypes="cccccscc" /><path
       style="fill:#5a997c;fill-opacity:1;stroke-width:0.428953"
       d="m 379.34755,373.47358 c -29.88407,-10.1137 -67.5058,-55.93868 -76.30401,-88.00616 -8.79819,-32.0675 8.6032,-66.12582 27.97082,-75.00947 19.3676,-8.88368 40.69599,7.41737 47.78065,25.08686 7.08465,17.66954 -0.36405,39.00331 -7.52243,58.04179 8.00017,-7.75596 27.61288,-11.69406 29.72503,0.0861 2.73056,15.2292 -9.64957,41.19957 -31.09711,57.82023 3.59125,8.57365 5.70301,12.13235 9.44705,21.98062 z"
       id="path465-6-0-1-8"
       sodipodi:nodetypes="cccccscc" /><path
       style="fill:#5a997c;fill-opacity:1;stroke-width:0.249969"
       d="m 380.76001,523.53682 c -16.2323,-8.63256 -33.54865,-38.5309 -35.58601,-57.8012 -2.03737,-19.27029 11.17954,-37.21624 23.15457,-40.49965 11.975,-3.28345 22.70404,8.10094 25.11294,18.92987 2.4089,10.82895 -3.88526,22.39539 -9.79614,32.66921 5.33164,-3.70625 16.9815,-4.12251 17.0859,2.85098 0.13497,9.01524 -9.4321,22.78328 -23.33239,30.32 1.25719,5.26892 2.13621,7.51446 3.36113,13.53077 z"
       id="path465-6-0-1-8-0"
       sodipodi:nodetypes="cccccscc" /></g></svg>
