<?xml version="1.0" encoding="UTF-8" standalone="no"?>
<!-- Created with Inkscape (http://www.inkscape.org/) -->

<svg
   width="249.79443mm"
   height="42.660393mm"
   viewBox="0 0 249.79443 42.660393"
   version="1.1"
   id="svg5"
   inkscape:version="1.2 (dc2aedaf03, 2022-05-15)"
   sodipodi:docname="isologo-greengo.svg"
   xml:space="preserve"
   xmlns:inkscape="http://www.inkscape.org/namespaces/inkscape"
   xmlns:sodipodi="http://sodipodi.sourceforge.net/DTD/sodipodi-0.dtd"
   xmlns="http://www.w3.org/2000/svg"
   xmlns:svg="http://www.w3.org/2000/svg"><sodipodi:namedview
     id="namedview7"
     pagecolor="#505050"
     bordercolor="#eeeeee"
     borderopacity="1"
     inkscape:showpageshadow="0"
     inkscape:pageopacity="0"
     inkscape:pagecheckerboard="0"
     inkscape:deskcolor="#505050"
     inkscape:document-units="mm"
     showgrid="false"
     inkscape:zoom="0.46769781"
     inkscape:cx="620.05849"
     inkscape:cy="474.66547"
     inkscape:window-width="1366"
     inkscape:window-height="705"
     inkscape:window-x="-8"
     inkscape:window-y="-8"
     inkscape:window-maximized="1"
     inkscape:current-layer="layer1"><inkscape:page
       x="0"
       y="0"
       width="249.79443"
       height="42.660393"
       id="page473" /><inkscape:page
       x="246.58438"
       y="55.647858"
       width="361.42084"
       height="203.2"
       id="page475" /></sodipodi:namedview><defs
     id="defs2"><rect
       x="-239.47087"
       y="286.5098"
       width="945.05469"
       height="233.87367"
       id="rect741" /><inkscape:path-effect
       effect="bspline"
       id="path-effect240"
       is_visible="true"
       lpeversion="1"
       weight="33.333333"
       steps="2"
       helper_size="0"
       apply_no_weight="true"
       apply_with_weight="true"
       only_selected="false" /></defs><g
     inkscape:label="Camada 1"
     inkscape:groupmode="layer"
     id="layer1"
     transform="translate(163.74209,-22.929483)"><g
       aria-label="Green GO"
       transform="matrix(0.26458333,0,0,0.26458333,-100.45774,-56.571429)"
       id="text739"
       style="font-weight:bold;font-size:192px;font-family:Poppins;-inkscape-font-specification:'Poppins Bold';white-space:pre;shape-inside:url(#rect741);display:inline;fill:#ffffff;stroke:none;stroke-width:11.7165;stroke-linecap:round;stroke-linejoin:round;paint-order:stroke fill markers"
       inkscape:label="text739"><path
         d="m -142.3187,363.69377 q -3.264,-5.376 -9.024,-8.256 -5.568,-2.88 -13.248,-2.88 -14.208,0 -22.464,9.216 -8.064,9.216 -8.064,24.768 0,17.472 8.64,26.688 8.832,9.024 25.536,9.024 19.776,0 28.224,-17.856 h -37.824 v -27.072 h 70.272 v 36.48 q -4.416,10.752 -13.056,20.16 -8.448,9.408 -21.504,15.552 -13.056,5.952 -29.76,5.952 -20.352,0 -36.096,-8.64 -15.552,-8.832 -24.192,-24.384 -8.448,-15.744 -8.448,-35.904 0,-19.968 8.448,-35.52 8.64,-15.744 24.192,-24.384 15.552,-8.832 35.904,-8.832 25.536,0 42.24,12.288 16.704,12.288 20.736,33.6 z"
         id="path345"
         style="fill:#338a5f;fill-opacity:1;stroke:none" /><path
         d="m -45.742709,365.80577 q 6.336,-9.216 15.36,-14.592 9.024,-5.376 19.392,-5.376 v 40.128 h -10.56 q -12.288,0 -18.24,4.8 -5.952,4.8 -5.952,16.704 v 47.04 h -37.632 v -107.712 h 37.632 z"
         id="path347"
         style="fill:#338a5f;fill-opacity:1;stroke:none" /><path
         d="m 105.36139,399.40577 q 0,4.416 -0.576,8.832 H 33.553388 q 0.576,8.832 4.8,13.248 4.416,4.224 11.136,4.224 9.408,0 13.44,-8.448 h 40.128002 q -2.496,11.136 -9.792002,19.968 -7.104,8.64 -18.048,13.632 -10.944,4.992 -24.192,4.992 -15.936,0 -28.416,-6.72 -12.288,-6.72 -19.3920003,-19.2 -6.912,-12.48 -6.912,-29.376 0,-16.896 6.912,-29.184 6.9120003,-12.48 19.2000003,-19.2 12.48,-6.72 28.608,-6.72 15.936,0 28.224,6.528 12.288,6.528 19.2,18.816 6.912002,12.096 6.912002,28.608 z m -38.400002,-9.408 q 0,-6.912 -4.608,-10.752 -4.608,-4.032 -11.52,-4.032 -6.912,0 -11.328,3.84 -4.416,3.648 -5.76,10.944 z"
         id="path349"
         style="fill:#338a5f;fill-opacity:1;stroke:none" /><path
         d="m 223.63324,399.40577 q 0,4.416 -0.576,8.832 h -71.232 q 0.576,8.832 4.8,13.248 4.416,4.224 11.136,4.224 9.408,0 13.44,-8.448 h 40.128 q -2.496,11.136 -9.792,19.968 -7.104,8.64 -18.048,13.632 -10.944,4.992 -24.192,4.992 -15.936,0 -28.416,-6.72 -12.288,-6.72 -19.392,-19.2 -6.912,-12.48 -6.912,-29.376 0,-16.896 6.912,-29.184 6.912,-12.48 19.2,-19.2 12.48,-6.72 28.608,-6.72 15.936,0 28.224,6.528 12.288,6.528 19.2,18.816 6.912,12.096 6.912,28.608 z m -38.4,-9.408 q 0,-6.912 -4.608,-10.752 -4.608,-4.032 -11.52,-4.032 -6.912,0 -11.328,3.84 -4.416,3.648 -5.76,10.944 z"
         id="path351"
         style="fill:#338a5f;fill-opacity:1;stroke:none" /><path
         d="m 309.45709,345.83777 q 18.624,0 29.568,12.48 10.944,12.288 10.944,33.408 v 62.784 h -37.632 v -57.792 q 0,-9.216 -4.8,-14.4 -4.8,-5.376 -12.864,-5.376 -8.448,0 -13.248,5.376 -4.8,5.184 -4.8,14.4 v 57.792 h -37.632 v -107.712 h 37.632 v 15.36 q 4.992,-7.296 13.44,-11.712 8.448,-4.608 19.392,-4.608 z"
         id="path353"
         style="fill:#338a5f;fill-opacity:1;stroke:none" /><path
         d="m 493.77724,363.69377 q -3.264,-5.376 -9.024,-8.256 -5.568,-2.88 -13.248,-2.88 -14.208,0 -22.464,9.216 -8.064,9.216 -8.064,24.768 0,17.472 8.64,26.688 8.832,9.024 25.536,9.024 19.776,0 28.224,-17.856 h -37.824 v -27.072 h 70.272 v 36.48 q -4.416,10.752 -13.056,20.16 -8.448,9.408 -21.504,15.552 -13.056,5.952 -29.76,5.952 -20.352,0 -36.096,-8.64 -15.552,-8.832 -24.192,-24.384 -8.448,-15.744 -8.448,-35.904 0,-19.968 8.448,-35.52 8.64,-15.744 24.192,-24.384 15.552,-8.832 35.904,-8.832 25.536,0 42.24,12.288 16.704,12.288 20.736,33.6 z"
         id="path355"
         style="fill:#338a5f;fill-opacity:1;stroke:none" /><path
         d="m 617.61724,455.85377 c -12.672,0 -24.32,-2.944 -34.944,-8.832 -10.624,-6.016 -19.072,-14.272 -25.344,-24.768 -6.144,-10.624 -9.216,-22.592 -9.216,-35.904 0,-13.312 3.072,-25.216 9.216,-35.712 6.272,-10.624 14.72,-18.88 25.344,-24.768 10.624,-5.888 22.272,-8.832 34.944,-8.832 12.8,0 24.448,2.944 34.944,8.832 10.624,5.888 19.008,14.144 25.152,24.768 6.144,10.496 9.216,22.4 9.216,35.712 0,13.312 -3.072,25.28 -9.216,35.904 -6.144,10.496 -14.528,18.752 -25.152,24.768 -10.624,5.888 -22.272,8.832 -34.944,8.832 z"
         id="path357"
         sodipodi:nodetypes="sccscssccsccs"
         style="fill:#338a5f;fill-opacity:1;stroke:none" /></g><path
       style="fill:#ec9399;stroke-width:0.104432;fill-opacity:1"
       d="m 55.397902,56.962411 c -1.899964,-7.442239 2.463637,-21.201683 7.842647,-27.251972 5.37903,-6.050281 14.640218,-7.01632 19.02312,-4.241181 4.382913,2.775139 3.884765,9.291669 1.217608,13.082053 -2.667157,3.790385 -8.010393,5.100046 -12.846569,6.164481 2.644641,0.604208 6.050475,4.08549 3.925889,6.079477 -2.746631,2.577791 -9.690616,3.495875 -15.92887,1.32257 -1.273792,1.870539 -1.720102,2.773752 -3.233825,4.844572 z"
       id="path465"
       sodipodi:nodetypes="cccccscc" /></g></svg>
