<svg width="723" height="398" viewBox="0 0 723 398" fill="none" xmlns="http://www.w3.org/2000/svg">
<g clip-path="url(#clip0_602_350)">
<path d="M168.31 73.3411L170.899 203.651L172.167 207.577L172.171 207.575L172.324 208.064L185.974 250.311L165.784 261.599L150.301 279.288L131.772 285.325V285.447L126.821 291.836L107.682 270.191L107.907 231.308L173.07 210.441L172.324 208.064L172.167 207.577L107.827 227.558H104.08H18.7624V231.308L49.8356 293.072L6.28809 292.997V298.212H131.772V289.048L150.431 282.949L150.564 297.154L143.451 298.212L143.104 360.837H165.783V297.154H153.494V281.798L177.551 274.223L199.516 272.657L199.518 362.637H207.289L205.611 265.681L283.318 266.542L283.711 389.369L291.312 388.84L317.202 330.916H335.137L336.042 305.487H313.972L313.539 327.082L287.122 386.573V263.73L291.535 247.735L300.95 234.231L337.514 234.176L373.432 283.711L374.782 396.962L510.749 397.033L510.883 348.326L539.886 348.325L540.243 382.472H582.54V368.727L582.542 340.806L548.744 340.807V297.769V264.029L590.826 264.465L594.218 256.373L673.659 257.648L674.38 124.688L680.889 124.744L681.029 94.0399L558.766 95.8095L535.826 96.3379L536.031 131.849H502.888L502.896 124.894L492.297 124.957L492.527 132.478L436.073 131.848L424.657 116.853H345.672C345.672 116.853 327.467 112.138 323.105 101.599C317.827 88.851 305.565 94.866 305.104 109.516C304.766 120.296 304.191 138.332 306.641 142.628C310.207 148.882 314.24 149.213 314.271 148.962L314.811 179.705L293.937 179.526C298.41 141.656 297.347 107.999 298.305 73.5627C255.412 73.5612 211.203 73.3434 168.31 73.3411V73.3411ZM173.848 82.9263L292.774 83.2328C290.815 112.153 295.603 138.265 289.682 172.039C268.152 181.94 261.934 183.016 248.505 190.945L243.116 184.917L240.355 188.218L245.779 193.702L233.962 209.823L230.757 199.399L245.779 181.805L232.996 168.17L216.91 185.27L228.64 200.368L232.666 211.787L217.867 233.533L190.102 246.917L176.308 202.839L173.848 82.9263ZM669.888 112.809V124.647V180.769L641.414 181.17L641.693 186.108L669.889 185.884L669.806 254.804L592.897 254.216L589.772 262.21L548.744 261.404V236.509V197.948L561.159 197.946L560.229 177.016L549.807 176.58L548.744 116.855H558.767L669.888 112.809ZM410.487 126.496L411.363 142.625H390.466V124.991L410.487 126.496ZM440.573 137.758H536.382L537.952 289.267L510.266 231.255L471.479 232.193L461.443 220.003L461.441 142.628H444.279L440.573 137.758ZM289.325 174.272C289.006 175.921 288.694 177.564 288.323 179.254L290.392 179.494L288.41 178.82L288.739 223.337L234.347 223.264L221.96 230.464L232.98 214.294C250.681 187.828 257.715 187.688 289.325 174.272H289.325ZM293.379 182.253H314.855L315.035 192.52L340.464 192.816L341.018 214.294H352.845L353.251 221.214L390.466 221.599V231.23L338.059 230.032L337.941 229.886L300.46 229.35L293.193 223.155L293.379 182.253ZM457.828 221.237L465.095 230.822L443.17 274.076L430.482 245.405L428.315 221.578L457.828 221.237ZM420.576 221.668L421.061 231.337L395.124 231.624V221.961L420.576 221.668ZM235.603 227.558H291.994L296.891 233.533L288.082 244.814L284.405 260.301H199.517V268.806L178.647 270.051L155.934 277.453L168.049 264.156L235.603 227.558ZM104.081 231.308V266.118V271.961L122.223 293.288L73.9923 292.77L104.081 231.308ZM341.596 234.403L421.322 236.502V236.506L421.496 236.891V276.807H375.913L341.596 234.403ZM426.353 247.578L439.635 276.807H427.262L426.353 247.578ZM501.778 261.691L527.946 283.711L538.084 301.982L538.383 330.916H524.318L507.607 327.082L510.334 289.045L501.778 261.691Z" stroke="#5F5F5F" stroke-width="1.13386" stroke-linecap="round"/>
<path d="M371.296 116.854L371.724 148.829L323.106 149.151L323.393 161.956L328.056 161.824L328.217 179.289L352.928 179.345L353.142 214.294L457.829 213.802L456.685 149.757L381.891 149.132L381.462 117.101L371.296 116.854Z" fill="#BCC4C4"/>
<path d="M455.36 25.8655L456.039 131.527L492.043 131.849L491.81 124.632L522.15 124.271L521.524 25.7516L455.36 25.8655Z" fill="#BCC4C4"/>
<path d="M558.769 74.5476L560.18 134.482L641.728 133.951L641.801 142.494L658.275 142.627L657.828 113.929L669.889 113.569L669.013 74.2823L558.769 74.5476Z" fill="#BCC4C4"/>
<path d="M558.769 158.385V207.105L643.032 206.48L640.96 157.4L558.769 158.385Z" fill="#BCC4C4"/>
<path d="M674.354 281.271L682.663 281.231L683.378 294.756L674.694 294.415L674.354 281.271Z" fill="#BCC4C4"/>
<path d="M627.774 297.997L628.453 340.296L548.763 340.807L548.744 297.77L627.774 297.997Z" fill="#BCC4C4"/>
<path d="M567.328 348.345L567.06 368.481L598.024 368.727L597.774 348.326L567.328 348.345Z" fill="#BCC4C4"/>
<path d="M386.762 337.168L386.443 382.473L434.299 382.127L434.531 354.841L418.087 354.421L410.497 337.237L386.762 337.168Z" fill="#BCC4C4"/>
<path d="M463.355 327.081L461.443 382.473H484.278L485.511 327.384L463.355 327.081Z" fill="#BCC4C4"/>
<path d="M464.606 289.046L446.381 278.692L465.41 237.303L506.202 236.507L527.947 283.636L526.339 330.917L506.523 327.081L508.006 290.91L494.909 263.5L476.595 262.421L464.606 289.046Z" fill="#BCC4C4"/>
<path d="M410.487 310.014V327.081H450.479L450.139 310.525L410.487 310.014Z" fill="#BCC4C4"/>
<path d="M418.316 330.917L418.584 344.413L446.381 344.453V330.919L418.316 330.917Z" fill="#BCC4C4"/>
<path d="M380.598 289.046L380.384 305.278L394.892 305.486L395.125 289.046H380.598Z" fill="#BCC4C4"/>
<path d="M215.027 289.046H239.006L239.399 343.636H215.385L215.027 289.046Z" fill="#BCC4C4"/>
<path d="M253.229 289.046H276.135L276.116 343.636H253.245L253.229 289.046Z" fill="#BCC4C4"/>
<path d="M6.79029 298.288L6.29004 381.427L131.775 382.014L131.632 298.212L106.734 298.226L6.79029 298.288Z" fill="#BCC4C4"/>
<path d="M191.514 360.836L176.148 360.801L176.185 329.773L165.84 330L165.785 311.759L176.131 311.304L176.168 289.048L191.052 289.049L191.514 360.836Z" fill="#BCC4C4"/>
<path d="M18.9055 231.517L18.7627 289.048H49.8168L49.8356 231.309L18.9055 231.517Z" fill="#BCC4C4"/>
<path d="M52.8005 233.771L52.6934 280.199H69.032V233.582L52.8005 233.771Z" fill="#BCC4C4"/>
<path d="M74.3487 231.309L73.9912 289.048H103.902L104.08 231.309H74.3487Z" fill="#BCC4C4"/>
<path d="M143.708 240.795C146.555 232.27 156.614 231.692 159.905 236.769C165.4 245.244 163.718 249.319 163.387 252.308C162.414 261.097 153.562 262.365 147.583 257.444C144.58 254.973 141.858 246.336 143.708 240.795Z" fill="#BCC4C4"/>
<path d="M334.923 78.8001H268.83L269.027 52.6122L334.637 52.688L334.923 78.8001Z" fill="#BCC4C4"/>
<path d="M171.762 202.839L168.938 72.676L0.825195 72.9161L3.35859 201.956L171.762 202.839Z" fill="#BCC4C4"/>
<path d="M49.4983 370.732C49.4685 370.628 49.4266 370.537 49.3726 370.457C49.3186 370.376 49.2526 370.308 49.1744 370.253C49.0977 370.196 49.0097 370.153 48.9102 370.123C48.8122 370.093 48.7036 370.078 48.5843 370.078C48.3612 370.078 48.1652 370.133 47.9962 370.244C47.8286 370.355 47.6979 370.516 47.6041 370.728C47.5104 370.938 47.4635 371.195 47.4635 371.499C47.4635 371.803 47.5097 372.062 47.602 372.275C47.6943 372.488 47.825 372.651 47.9941 372.763C48.1631 372.874 48.3627 372.929 48.5928 372.929C48.8016 372.929 48.9798 372.892 49.1276 372.818C49.2767 372.743 49.3904 372.637 49.4685 372.501C49.548 372.364 49.5878 372.203 49.5878 372.017L49.7753 372.045H48.6503V371.35H50.4763V371.9C50.4763 372.283 50.3953 372.613 50.2334 372.888C50.0715 373.163 49.8485 373.374 49.5644 373.523C49.2803 373.671 48.955 373.745 48.5885 373.745C48.1794 373.745 47.82 373.655 47.5104 373.474C47.2007 373.293 46.9593 373.035 46.786 372.701C46.6141 372.366 46.5281 371.968 46.5281 371.508C46.5281 371.154 46.5793 370.839 46.6816 370.562C46.7852 370.283 46.9301 370.048 47.1162 369.854C47.3023 369.661 47.5189 369.514 47.7661 369.413C48.0132 369.312 48.281 369.262 48.5693 369.262C48.8165 369.262 49.0466 369.298 49.2597 369.371C49.4727 369.442 49.6617 369.543 49.8264 369.673C49.9926 369.804 50.1283 369.959 50.2334 370.14C50.3385 370.319 50.406 370.516 50.4358 370.732H49.4983ZM52.0919 369.322V373.685H51.1693V369.322H52.0919ZM56.5008 369.322V373.685H55.7039L53.8055 370.939H53.7735V373.685H52.8509V369.322H53.6606L55.5441 372.066H55.5825V369.322H56.5008ZM58.0152 373.685H57.0265L58.5329 369.322H59.7219L61.2261 373.685H60.2375L59.1444 370.319H59.1104L58.0152 373.685ZM57.9534 371.97H60.2886V372.69H57.9534V371.97ZM58.8014 368.9L59.2531 367.93H60.0926L59.4427 368.9H58.8014ZM64.0189 370.577C64.0019 370.405 63.9287 370.271 63.7994 370.176C63.6702 370.081 63.4948 370.033 63.2732 370.033C63.1226 370.033 62.9955 370.055 62.8918 370.097C62.7881 370.138 62.7085 370.196 62.6531 370.27C62.5992 370.344 62.5722 370.427 62.5722 370.521C62.5693 370.599 62.5857 370.668 62.6212 370.726C62.6581 370.784 62.7085 370.834 62.7725 370.877C62.8364 370.918 62.9102 370.954 62.9941 370.986C63.0779 371.016 63.1673 371.041 63.2625 371.062L63.6546 371.156C63.8449 371.199 64.0196 371.256 64.1787 371.327C64.3378 371.398 64.4756 371.485 64.5921 371.589C64.7085 371.692 64.7987 371.815 64.8627 371.955C64.928 372.096 64.9614 372.257 64.9628 372.439C64.9614 372.706 64.8932 372.937 64.7583 373.133C64.6247 373.328 64.4316 373.479 64.1787 373.587C63.9273 373.694 63.624 373.747 63.2689 373.747C62.9166 373.747 62.6098 373.693 62.3485 373.585C62.0885 373.477 61.8854 373.317 61.7391 373.106C61.5942 372.893 61.5182 372.629 61.5111 372.315H62.4039C62.4138 372.462 62.4557 372.584 62.5296 372.682C62.6048 372.778 62.705 372.851 62.83 372.901C62.9564 372.95 63.0992 372.974 63.2583 372.974C63.4145 372.974 63.5502 372.951 63.6652 372.905C63.7817 372.86 63.8719 372.797 63.9358 372.716C63.9997 372.635 64.0317 372.542 64.0317 372.437C64.0317 372.339 64.0026 372.256 63.9443 372.19C63.8875 372.123 63.8037 372.066 63.6929 372.019C63.5835 371.972 63.4493 371.93 63.2902 371.891L62.8151 371.772C62.4472 371.682 62.1567 371.543 61.9436 371.352C61.7306 371.162 61.6247 370.905 61.6262 370.583C61.6247 370.319 61.695 370.088 61.8371 369.891C61.9806 369.693 62.1773 369.539 62.4273 369.428C62.6773 369.317 62.9614 369.262 63.2796 369.262C63.6034 369.262 63.8861 369.317 64.1276 369.428C64.3705 369.539 64.5594 369.693 64.6943 369.891C64.8293 370.088 64.8989 370.317 64.9031 370.577H64.0189ZM66.5059 369.322V373.685H65.5834V369.322H66.5059ZM71.2749 371.503C71.2749 371.979 71.1847 372.384 71.0044 372.718C70.8254 373.052 70.5811 373.307 70.2714 373.483C69.9632 373.658 69.6166 373.745 69.2316 373.745C68.8438 373.745 68.4958 373.657 68.1876 373.481C67.8794 373.305 67.6357 373.05 67.4568 372.716C67.2778 372.382 67.1883 371.978 67.1883 371.503C67.1883 371.028 67.2778 370.623 67.4568 370.289C67.6357 369.955 67.8794 369.701 68.1876 369.526C68.4958 369.35 68.8438 369.262 69.2316 369.262C69.6166 369.262 69.9632 369.35 70.2714 369.526C70.5811 369.701 70.8254 369.955 71.0044 370.289C71.1847 370.623 71.2749 371.028 71.2749 371.503ZM70.3396 371.503C70.3396 371.195 70.2934 370.935 70.2011 370.724C70.1102 370.512 69.9816 370.351 69.8154 370.242C69.6492 370.133 69.4546 370.078 69.2316 370.078C69.0086 370.078 68.814 370.133 68.6478 370.242C68.4816 370.351 68.3524 370.512 68.26 370.724C68.1691 370.935 68.1237 371.195 68.1237 371.503C68.1237 371.812 68.1691 372.072 68.26 372.283C68.3524 372.495 68.4816 372.655 68.6478 372.765C68.814 372.874 69.0086 372.929 69.2316 372.929C69.4546 372.929 69.6492 372.874 69.8154 372.765C69.9816 372.655 70.1102 372.495 70.2011 372.283C70.2934 372.072 70.3396 371.812 70.3396 371.503Z" fill="#5F5F5F"/>
<path d="M474.914 115.821V111.458H476.662C476.983 111.458 477.25 111.505 477.465 111.601C477.679 111.696 477.841 111.828 477.949 111.997C478.056 112.164 478.11 112.358 478.11 112.576C478.11 112.747 478.076 112.897 478.008 113.026C477.94 113.154 477.846 113.259 477.727 113.341C477.609 113.422 477.474 113.48 477.322 113.514V113.556C477.488 113.564 477.644 113.61 477.789 113.697C477.935 113.784 478.054 113.905 478.145 114.061C478.235 114.216 478.281 114.401 478.281 114.615C478.281 114.847 478.223 115.054 478.108 115.235C477.995 115.416 477.826 115.559 477.603 115.664C477.38 115.769 477.105 115.821 476.779 115.821H474.914ZM475.837 115.067H476.589C476.846 115.067 477.034 115.018 477.152 114.92C477.27 114.821 477.328 114.689 477.328 114.524C477.328 114.403 477.299 114.297 477.241 114.204C477.183 114.112 477.1 114.039 476.992 113.987C476.885 113.934 476.758 113.908 476.61 113.908H475.837V115.067ZM475.837 113.284H476.521C476.647 113.284 476.76 113.262 476.858 113.218C476.957 113.172 477.035 113.108 477.092 113.026C477.15 112.944 477.179 112.845 477.179 112.73C477.179 112.572 477.123 112.445 477.011 112.348C476.9 112.252 476.743 112.204 476.538 112.204H475.837V113.284ZM479.395 115.877C479.254 115.877 479.133 115.827 479.032 115.728C478.933 115.627 478.883 115.506 478.883 115.365C478.883 115.226 478.933 115.107 479.032 115.007C479.133 114.908 479.254 114.858 479.395 114.858C479.531 114.858 479.65 114.908 479.753 115.007C479.855 115.107 479.906 115.226 479.906 115.365C479.906 115.459 479.882 115.545 479.834 115.623C479.787 115.7 479.725 115.762 479.648 115.809C479.572 115.854 479.487 115.877 479.395 115.877ZM482.604 115.821H481.615L483.122 111.458H484.311L485.815 115.821H484.826L483.733 112.455H483.699L482.604 115.821ZM482.542 114.106H484.877V114.826H482.542V114.106ZM487.887 115.821H486.34V111.458H487.9C488.339 111.458 488.717 111.545 489.033 111.72C489.35 111.893 489.594 112.142 489.764 112.468C489.936 112.793 490.022 113.182 490.022 113.635C490.022 114.09 489.936 114.481 489.764 114.807C489.594 115.134 489.349 115.385 489.029 115.559C488.711 115.734 488.33 115.821 487.887 115.821ZM487.263 115.031H487.849C488.121 115.031 488.351 114.983 488.537 114.886C488.724 114.788 488.865 114.637 488.959 114.432C489.054 114.226 489.102 113.961 489.102 113.635C489.102 113.313 489.054 113.049 488.959 112.845C488.865 112.64 488.725 112.49 488.539 112.393C488.353 112.297 488.124 112.248 487.851 112.248H487.263V115.031ZM490.705 111.458H491.843L493.045 114.39H493.096L494.298 111.458H495.436V115.821H494.541V112.981H494.504L493.375 115.8H492.766L491.637 112.971H491.6V115.821H490.705V111.458Z" fill="#5F5F5F"/>
<path d="M583.496 124.965V120.601H585.244C585.565 120.601 585.832 120.649 586.047 120.744C586.261 120.839 586.423 120.971 586.531 121.14C586.638 121.308 586.692 121.501 586.692 121.72C586.692 121.89 586.658 122.04 586.59 122.169C586.522 122.297 586.428 122.402 586.309 122.485C586.191 122.566 586.056 122.623 585.904 122.657V122.7C586.07 122.707 586.226 122.754 586.371 122.841C586.517 122.927 586.636 123.049 586.727 123.205C586.817 123.36 586.863 123.544 586.863 123.759C586.863 123.99 586.805 124.197 586.69 124.379C586.577 124.559 586.408 124.702 586.185 124.807C585.962 124.912 585.688 124.965 585.361 124.965H583.496ZM584.419 124.211H585.171C585.428 124.211 585.616 124.162 585.734 124.064C585.852 123.964 585.911 123.832 585.911 123.667C585.911 123.546 585.881 123.44 585.823 123.348C585.765 123.255 585.682 123.183 585.574 123.13C585.467 123.078 585.34 123.051 585.192 123.051H584.419V124.211ZM584.419 122.427H585.103C585.229 122.427 585.342 122.405 585.44 122.361C585.539 122.316 585.617 122.252 585.674 122.169C585.732 122.087 585.761 121.988 585.761 121.873C585.761 121.716 585.705 121.588 585.593 121.492C585.482 121.395 585.325 121.347 585.12 121.347H584.419V122.427ZM587.977 125.02C587.836 125.02 587.715 124.97 587.615 124.871C587.515 124.77 587.465 124.649 587.465 124.509C587.465 124.37 587.515 124.25 587.615 124.151C587.715 124.051 587.836 124.002 587.977 124.002C588.113 124.002 588.232 124.051 588.335 124.151C588.437 124.25 588.488 124.37 588.488 124.509C588.488 124.603 588.464 124.689 588.416 124.767C588.369 124.843 588.307 124.905 588.23 124.952C588.154 124.997 588.069 125.02 587.977 125.02ZM591.981 124.965H590.434V120.601H591.994C592.433 120.601 592.81 120.689 593.127 120.863C593.444 121.037 593.688 121.286 593.858 121.611C594.03 121.936 594.116 122.326 594.116 122.779C594.116 123.233 594.03 123.624 593.858 123.951C593.688 124.277 593.442 124.528 593.123 124.703C592.805 124.877 592.424 124.965 591.981 124.965ZM591.357 124.174H591.942C592.215 124.174 592.445 124.126 592.631 124.029C592.818 123.931 592.959 123.78 593.053 123.576C593.148 123.37 593.195 123.104 593.195 122.779C593.195 122.456 593.148 122.193 593.053 121.988C592.959 121.784 592.819 121.633 592.633 121.537C592.447 121.44 592.217 121.392 591.945 121.392H591.357V124.174ZM594.799 124.965V120.601H597.74V121.362H595.722V122.402H597.588V123.162H595.722V124.204H597.748V124.965H594.799ZM599.862 124.965V120.601H602.802V121.362H600.784V122.402H602.651V123.162H600.784V124.204H602.811V124.965H599.862ZM607.185 120.601V124.965H606.388L604.49 122.218H604.458V124.965H603.536V120.601H604.345L606.229 123.345H606.267V120.601H607.185ZM610.315 121.856C610.298 121.684 610.225 121.551 610.095 121.456C609.966 121.36 609.791 121.313 609.569 121.313C609.419 121.313 609.291 121.334 609.188 121.377C609.084 121.418 609.004 121.475 608.949 121.549C608.895 121.623 608.868 121.707 608.868 121.801C608.865 121.879 608.882 121.947 608.917 122.005C608.954 122.064 609.004 122.114 609.068 122.157C609.132 122.198 609.206 122.234 609.29 122.265C609.374 122.295 609.463 122.321 609.558 122.342L609.95 122.436C610.141 122.478 610.316 122.535 610.475 122.606C610.634 122.677 610.771 122.765 610.888 122.868C611.004 122.972 611.095 123.094 611.159 123.235C611.224 123.375 611.257 123.537 611.259 123.718C611.257 123.985 611.189 124.217 611.054 124.413C610.921 124.608 610.727 124.759 610.475 124.867C610.223 124.973 609.92 125.027 609.565 125.027C609.213 125.027 608.906 124.973 608.644 124.865C608.384 124.757 608.181 124.597 608.035 124.385C607.89 124.172 607.814 123.909 607.807 123.595H608.7C608.71 123.741 608.752 123.863 608.825 123.961C608.901 124.058 609.001 124.131 609.126 124.181C609.252 124.229 609.395 124.253 609.554 124.253C609.71 124.253 609.846 124.23 609.961 124.185C610.078 124.14 610.168 124.076 610.232 123.995C610.296 123.914 610.328 123.821 610.328 123.716C610.328 123.618 610.298 123.536 610.24 123.469C610.183 123.402 610.1 123.345 609.989 123.299C609.879 123.252 609.745 123.209 609.586 123.171L609.111 123.051C608.743 122.962 608.453 122.822 608.24 122.632C608.026 122.441 607.921 122.185 607.922 121.863C607.921 121.598 607.991 121.368 608.133 121.17C608.276 120.973 608.473 120.819 608.723 120.708C608.973 120.597 609.257 120.542 609.575 120.542C609.899 120.542 610.182 120.597 610.423 120.708C610.666 120.819 610.855 120.973 610.99 121.17C611.125 121.368 611.195 121.596 611.199 121.856H610.315ZM612.802 120.601V124.965H611.879V120.601H612.802ZM617.211 120.601V124.965H616.414L614.515 122.218H614.483V124.965H613.561V120.601H614.371L616.254 123.345H616.292V120.601H617.211ZM621.983 122.783C621.983 123.259 621.893 123.664 621.712 123.997C621.533 124.331 621.289 124.586 620.979 124.762C620.671 124.937 620.325 125.024 619.94 125.024C619.552 125.024 619.204 124.936 618.896 124.76C618.587 124.584 618.344 124.329 618.165 123.995C617.986 123.662 617.896 123.257 617.896 122.783C617.896 122.307 617.986 121.902 618.165 121.569C618.344 121.235 618.587 120.98 618.896 120.806C619.204 120.63 619.552 120.542 619.94 120.542C620.325 120.542 620.671 120.63 620.979 120.806C621.289 120.98 621.533 121.235 621.712 121.569C621.893 121.902 621.983 122.307 621.983 122.783ZM621.048 122.783C621.048 122.475 621.001 122.215 620.909 122.003C620.818 121.792 620.69 121.631 620.523 121.522C620.357 121.412 620.163 121.358 619.94 121.358C619.717 121.358 619.522 121.412 619.356 121.522C619.19 121.631 619.06 121.792 618.968 122.003C618.877 122.215 618.832 122.475 618.832 122.783C618.832 123.091 618.877 123.351 618.968 123.563C619.06 123.774 619.19 123.935 619.356 124.044C619.522 124.154 619.717 124.208 619.94 124.208C620.163 124.208 620.357 124.154 620.523 124.044C620.69 123.935 620.818 123.774 620.909 123.563C621.001 123.351 621.048 123.091 621.048 122.783Z" fill="#5F5F5F"/>
<path d="M49.1757 189.469H48.2425C48.2254 189.348 48.1906 189.241 48.1381 189.147C48.0855 189.052 48.018 188.971 47.9356 188.904C47.8532 188.837 47.7581 188.786 47.6501 188.751C47.5436 188.715 47.4278 188.697 47.3028 188.697C47.077 188.697 46.8802 188.753 46.7126 188.866C46.545 188.976 46.415 189.138 46.3227 189.351C46.2304 189.563 46.1842 189.82 46.1842 190.123C46.1842 190.434 46.2304 190.695 46.3227 190.907C46.4165 191.118 46.5471 191.278 46.7148 191.386C46.8824 191.494 47.0763 191.548 47.2964 191.548C47.42 191.548 47.5344 191.532 47.6395 191.499C47.746 191.466 47.8405 191.419 47.9229 191.356C48.0052 191.292 48.0734 191.215 48.1274 191.124C48.1828 191.033 48.2211 190.93 48.2425 190.813L49.1757 190.817C49.1515 191.018 49.0912 191.211 48.9946 191.397C48.8994 191.581 48.7709 191.747 48.6089 191.893C48.4484 192.038 48.2567 192.153 48.0336 192.238C47.8121 192.322 47.5613 192.364 47.2815 192.364C46.8923 192.364 46.5443 192.276 46.2375 192.1C45.9321 191.924 45.6906 191.669 45.5131 191.335C45.3369 191.001 45.2488 190.597 45.2488 190.123C45.2488 189.647 45.3383 189.242 45.5173 188.908C45.6963 188.574 45.9392 188.32 46.246 188.145C46.5528 187.969 46.898 187.881 47.2815 187.881C47.5344 187.881 47.7687 187.917 47.9846 187.988C48.202 188.059 48.3944 188.162 48.5621 188.299C48.7297 188.434 48.866 188.599 48.9711 188.795C49.0777 188.991 49.1459 189.216 49.1757 189.469ZM50.5074 192.305H49.5187L51.0251 187.941H52.214L53.7183 192.305H52.7297L51.6366 188.938H51.6025L50.5074 192.305ZM50.4456 190.589H52.7808V191.309H50.4456V190.589ZM54.2435 187.941H55.3813L56.583 190.873H56.6341L57.8358 187.941H58.9736V192.305H58.0787V189.464H58.0425L56.9133 192.283H56.3039L55.1746 189.454H55.1384V192.305H54.2435V187.941ZM59.7338 192.305V187.941H61.4553C61.7863 187.941 62.0683 188.004 62.3012 188.13C62.5342 188.255 62.7117 188.43 62.8339 188.653C62.9575 188.874 63.0193 189.13 63.0193 189.42C63.0193 189.709 62.9568 189.965 62.8318 190.187C62.7068 190.408 62.5257 190.581 62.2884 190.704C62.0526 190.828 61.7671 190.89 61.4319 190.89H60.3346V190.15H61.2828C61.4603 190.15 61.6066 190.12 61.7217 190.059C61.8382 189.996 61.9248 189.91 61.9816 189.801C62.0399 189.69 62.069 189.563 62.069 189.42C62.069 189.275 62.0399 189.148 61.9816 189.04C61.9248 188.931 61.8382 188.846 61.7217 188.787C61.6052 188.726 61.4575 188.695 61.2785 188.695H60.6563V192.305H59.7338ZM67.6285 190.123C67.6285 190.599 67.5383 191.003 67.3579 191.337C67.1789 191.671 66.9346 191.926 66.6249 192.102C66.3167 192.277 65.9701 192.364 65.5851 192.364C65.1974 192.364 64.8493 192.276 64.5411 192.1C64.2329 191.924 63.9893 191.669 63.8103 191.335C63.6313 191.001 63.5418 190.597 63.5418 190.123C63.5418 189.647 63.6313 189.242 63.8103 188.908C63.9893 188.574 64.2329 188.32 64.5411 188.145C64.8493 187.969 65.1974 187.881 65.5851 187.881C65.9701 187.881 66.3167 187.969 66.6249 188.145C66.9346 188.32 67.1789 188.574 67.3579 188.908C67.5383 189.242 67.6285 189.647 67.6285 190.123ZM66.6931 190.123C66.6931 189.814 66.6469 189.555 66.5546 189.343C66.4637 189.131 66.3351 188.971 66.1689 188.861C66.0028 188.752 65.8081 188.697 65.5851 188.697C65.3621 188.697 65.1675 188.752 65.0013 188.861C64.8351 188.971 64.7059 189.131 64.6135 189.343C64.5226 189.555 64.4772 189.814 64.4772 190.123C64.4772 190.431 64.5226 190.691 64.6135 190.903C64.7059 191.114 64.8351 191.275 65.0013 191.384C65.1675 191.493 65.3621 191.548 65.5851 191.548C65.8081 191.548 66.0028 191.493 66.1689 191.384C66.3351 191.275 66.4637 191.114 66.5546 190.903C66.6469 190.691 66.6931 190.431 66.6931 190.123ZM71.2474 192.305H69.7006V187.941H71.2602C71.6991 187.941 72.077 188.028 72.3937 188.203C72.7105 188.376 72.9541 188.626 73.1246 188.951C73.2964 189.276 73.3824 189.665 73.3824 190.118C73.3824 190.573 73.2964 190.964 73.1246 191.29C72.9541 191.617 72.7091 191.868 72.3895 192.042C72.0713 192.217 71.6906 192.305 71.2474 192.305ZM70.6231 191.514H71.2091C71.4818 191.514 71.7112 191.466 71.8973 191.369C72.0848 191.271 72.2254 191.12 72.3192 190.915C72.4143 190.709 72.4619 190.444 72.4619 190.118C72.4619 189.796 72.4143 189.532 72.3192 189.328C72.2254 189.123 72.0855 188.973 71.8994 188.876C71.7133 188.78 71.4839 188.731 71.2112 188.731H70.6231V191.514ZM74.0658 192.305V187.941H77.0061V188.702H74.9884V189.741H76.8548V190.502H74.9884V191.544H77.0146V192.305H74.0658ZM79.1283 192.305V187.941H82.0175V188.702H80.0509V189.741H81.8257V190.502H80.0509V192.305H79.1283ZM85.3334 187.941H86.2559V190.775C86.2559 191.093 86.18 191.371 86.028 191.61C85.8774 191.849 85.6665 192.035 85.3952 192.168C85.1238 192.3 84.8078 192.366 84.447 192.366C84.0848 192.366 83.768 192.3 83.4967 192.168C83.2254 192.035 83.0145 191.849 82.8639 191.61C82.7133 191.371 82.6381 191.093 82.6381 190.775V187.941H83.5606V190.696C83.5606 190.862 83.5969 191.01 83.6693 191.139C83.7432 191.268 83.8469 191.37 83.9804 191.444C84.1139 191.518 84.2694 191.555 84.447 191.555C84.626 191.555 84.7815 191.518 84.9136 191.444C85.0471 191.37 85.1501 191.268 85.2226 191.139C85.2964 191.01 85.3334 190.862 85.3334 190.696V187.941ZM86.8488 188.702V187.941H90.4326V188.702H89.0967V192.305H88.1847V188.702H86.8488ZM91.0228 192.305V187.941H93.9632V188.702H91.9454V189.741H93.8119V190.502H91.9454V191.544H93.9717V192.305H91.0228ZM94.6966 192.305V187.941H96.4438C96.7648 187.941 97.0326 187.988 97.2471 188.084C97.4616 188.179 97.6228 188.311 97.7307 188.48C97.8387 188.648 97.8927 188.841 97.8927 189.059C97.8927 189.23 97.8586 189.38 97.7904 189.509C97.7222 189.637 97.6285 189.742 97.5091 189.824C97.3912 189.905 97.2563 189.963 97.1043 189.997V190.04C97.2705 190.047 97.426 190.094 97.5709 190.18C97.7172 190.267 97.8358 190.388 97.9268 190.545C98.0177 190.699 98.0631 190.884 98.0631 191.099C98.0631 191.33 98.0056 191.537 97.8905 191.719C97.7769 191.899 97.6086 192.042 97.3856 192.147C97.1626 192.252 96.8877 192.305 96.561 192.305H94.6966ZM95.6192 191.55H96.3714C96.6285 191.55 96.816 191.501 96.9339 191.403C97.0518 191.304 97.1107 191.172 97.1107 191.007C97.1107 190.886 97.0816 190.78 97.0233 190.687C96.9651 190.595 96.882 190.523 96.7741 190.47C96.6675 190.417 96.5404 190.391 96.3927 190.391H95.6192V191.55ZM95.6192 189.767H96.3032C96.4296 189.767 96.5418 189.745 96.6398 189.701C96.7393 189.655 96.8174 189.591 96.8742 189.509C96.9324 189.427 96.9616 189.328 96.9616 189.213C96.9616 189.055 96.9055 188.928 96.7932 188.831C96.6824 188.735 96.5248 188.687 96.3202 188.687H95.6192V189.767ZM102.673 190.123C102.673 190.599 102.583 191.003 102.403 191.337C102.224 191.671 101.979 191.926 101.67 192.102C101.362 192.277 101.015 192.364 100.63 192.364C100.242 192.364 99.8943 192.276 99.586 192.1C99.2778 191.924 99.0342 191.669 98.8552 191.335C98.6762 191.001 98.5867 190.597 98.5867 190.123C98.5867 189.647 98.6762 189.242 98.8552 188.908C99.0342 188.574 99.2778 188.32 99.586 188.145C99.8943 187.969 100.242 187.881 100.63 187.881C101.015 187.881 101.362 187.969 101.67 188.145C101.979 188.32 102.224 188.574 102.403 188.908C102.583 189.242 102.673 189.647 102.673 190.123ZM101.738 190.123C101.738 189.814 101.692 189.555 101.6 189.343C101.509 189.131 101.38 188.971 101.214 188.861C101.048 188.752 100.853 188.697 100.63 188.697C100.407 188.697 100.212 188.752 100.046 188.861C99.8801 188.971 99.7508 189.131 99.6585 189.343C99.5676 189.555 99.5221 189.814 99.5221 190.123C99.5221 190.431 99.5676 190.691 99.6585 190.903C99.7508 191.114 99.8801 191.275 100.046 191.384C100.212 191.493 100.407 191.548 100.63 191.548C100.853 191.548 101.048 191.493 101.214 191.384C101.38 191.275 101.509 191.114 101.6 190.903C101.692 190.691 101.738 190.431 101.738 190.123ZM103.357 192.305V187.941H104.279V191.544H106.15V192.305H103.357Z" fill="#5F5F5F"/>
<path d="M282.043 69.0048V64.6412H283.765C284.096 64.6412 284.378 64.7044 284.611 64.8308C284.844 64.9558 285.021 65.1298 285.143 65.3528C285.267 65.5744 285.329 65.8301 285.329 66.1199C285.329 66.4097 285.266 66.6653 285.141 66.8869C285.016 67.1085 284.835 67.2811 284.598 67.4047C284.362 67.5283 284.077 67.59 283.741 67.59H282.644V66.8507H283.592C283.77 66.8507 283.916 66.8202 284.031 66.7591C284.148 66.6966 284.234 66.6106 284.291 66.5013C284.349 66.3905 284.379 66.2633 284.379 66.1199C284.379 65.975 284.349 65.8486 284.291 65.7406C284.234 65.6312 284.148 65.5467 284.031 65.4871C283.915 65.426 283.767 65.3954 283.588 65.3954H282.966V69.0048H282.043ZM289.938 66.823C289.938 67.2989 289.848 67.7037 289.667 68.0375C289.488 68.3713 289.244 68.6263 288.934 68.8024C288.626 68.9771 288.28 69.0645 287.895 69.0645C287.507 69.0645 287.159 68.9764 286.851 68.8003C286.542 68.6241 286.299 68.3692 286.12 68.0354C285.941 67.7016 285.851 67.2974 285.851 66.823C285.851 66.3472 285.941 65.9423 286.12 65.6085C286.299 65.2747 286.542 65.0204 286.851 64.8457C287.159 64.6696 287.507 64.5815 287.895 64.5815C288.28 64.5815 288.626 64.6696 288.934 64.8457C289.244 65.0204 289.488 65.2747 289.667 65.6085C289.848 65.9423 289.938 66.3472 289.938 66.823ZM289.003 66.823C289.003 66.5148 288.956 66.2548 288.864 66.0432C288.773 65.8315 288.645 65.671 288.479 65.5616C288.312 65.4523 288.118 65.3976 287.895 65.3976C287.672 65.3976 287.477 65.4523 287.311 65.5616C287.145 65.671 287.015 65.8315 286.923 66.0432C286.832 66.2548 286.787 66.5148 286.787 66.823C286.787 67.1312 286.832 67.3912 286.923 67.6028C287.015 67.8145 287.145 67.975 287.311 68.0844C287.477 68.1937 287.672 68.2484 287.895 68.2484C288.118 68.2484 288.312 68.1937 288.479 68.0844C288.645 67.975 288.773 67.8145 288.864 67.6028C288.956 67.3912 289.003 67.1312 289.003 66.823ZM290.621 69.0048V64.6412H292.343C292.673 64.6412 292.954 64.7001 293.187 64.818C293.421 64.9345 293.599 65.1 293.722 65.3145C293.845 65.5275 293.907 65.7783 293.907 66.0666C293.907 66.3564 293.844 66.6057 293.719 66.8145C293.594 67.0219 293.413 67.181 293.176 67.2918C292.94 67.4025 292.655 67.4579 292.32 67.4579H291.167V66.7165H292.17C292.347 66.7165 292.493 66.6923 292.609 66.644C292.726 66.5957 292.813 66.5233 292.869 66.4267C292.928 66.3301 292.957 66.2101 292.957 66.0666C292.957 65.9217 292.928 65.7996 292.869 65.7001C292.813 65.6007 292.725 65.5254 292.607 65.4743C292.491 65.4217 292.344 65.3954 292.166 65.3954H291.544V69.0048H290.621ZM292.978 67.019L294.062 69.0048H293.044L291.983 67.019H292.978ZM294.393 65.4018V64.6412H297.977V65.4018H296.641V69.0048H295.729V65.4018H294.393ZM298.786 69.0048H297.797L299.303 64.6412H300.492L301.997 69.0048H301.008L299.915 65.6383H299.881L298.786 69.0048ZM298.724 67.2896H301.059V68.0098H298.724V67.2896ZM302.522 69.0048V64.6412H304.243C304.573 64.6412 304.854 64.7001 305.087 64.818C305.322 64.9345 305.5 65.1 305.622 65.3145C305.746 65.5275 305.807 65.7783 305.807 66.0666C305.807 66.3564 305.745 66.6057 305.62 66.8145C305.495 67.0219 305.314 67.181 305.077 67.2918C304.841 67.4025 304.555 67.4579 304.22 67.4579H303.067V66.7165H304.071C304.247 66.7165 304.393 66.6923 304.51 66.644C304.626 66.5957 304.713 66.5233 304.77 66.4267C304.828 66.3301 304.857 66.2101 304.857 66.0666C304.857 65.9217 304.828 65.7996 304.77 65.7001C304.713 65.6007 304.626 65.5254 304.508 65.4743C304.391 65.4217 304.244 65.3954 304.067 65.3954H303.444V69.0048H302.522ZM304.878 67.019L305.963 69.0048H304.944L303.883 67.019H304.878ZM307.382 64.6412V69.0048H306.459V64.6412H307.382ZM308.893 69.0048H307.904L309.411 64.6412H310.6L312.104 69.0048H311.115L310.022 65.6383H309.988L308.893 69.0048ZM308.831 67.2896H311.167V68.0098H308.831V67.2896Z" fill="#5F5F5F"/>
<path d="M8.15188 65.7063C-17.7325 128.536 77.0812 106.302 109.931 99.1542C163.215 87.5605 274.963 140.879 277.416 81.3468C279.804 23.3977 212.517 42.0309 174.61 49.031C120.216 59.0758 57.4859 53.329 8.15188 65.7063Z" fill="#246884" fill-opacity="0.7"/>
<path d="M159.437 119.75C146.76 149.949 158.035 171.032 161.642 218.749C164.111 251.417 163.097 269.718 198.471 255.663C227.922 243.961 294.692 271.474 289.859 241.745C282.552 196.802 315.975 85.7684 271.463 102.584C238.841 114.909 231.778 111.177 183.19 102.793C172.804 101.001 164.84 110.767 159.437 119.75V119.75Z" fill="#E4B95A" fill-opacity="0.7"/>
<path d="M295.096 185.719C309.732 247.385 255.737 380.233 310.499 384.878C361.873 389.236 400.043 407.476 374.982 327.182C349.316 244.949 461.249 286.746 503.993 324.203C549 363.643 570.397 332.036 552.336 279.622C543.942 255.262 565.334 139.173 536.399 147.649C472.516 166.362 442.571 133.807 369.91 131.851C347.868 131.257 295.961 152.21 295.096 185.719Z" fill="#90CFDE" fill-opacity="0.7"/>
<path d="M0.824918 260.179C1.02677 325.376 -13.6935 396.708 73.2488 383.314C141.199 372.845 289.261 432.87 283.708 365.564C278.444 301.755 312.785 253.356 235.729 255.992C210.747 256.846 199.077 257.537 182.222 259.033C141.981 262.605 186.623 194.391 125.782 200.492C90.1868 204.062 5.64301 170.079 2.48054 229.216C1.92863 239.537 1.37679 249.858 0.824918 260.179Z" fill="#C65DC6" fill-opacity="0.7"/>
<path d="M343.66 32.7949C277.827 139.461 442.403 109.132 472.992 95.0619C590.504 41.0092 537.353 228.537 563.803 312.939C592.569 404.733 719.628 439.026 722.816 317.646C725.147 228.865 704.477 222.141 714.26 108.454C719.78 44.3046 720.292 -0.129168 664.929 2.97256C559.049 8.90444 440.281 -20.8269 343.66 32.7949Z" fill="#EA8C94" fill-opacity="0.7"/>
</g>
<defs>
<clipPath id="clip0_602_350">
<rect width="723" height="398" fill="white"/>
</clipPath>
</defs>
</svg>
