<svg width="931" height="435" viewBox="0 0 931 435" fill="none" xmlns="http://www.w3.org/2000/svg">
<g clip-path="url(#clip0_266_116)">
<path d="M216.732 80.1592L220.065 222.583L221.698 226.874L221.703 226.872L221.901 227.407L239.477 273.581L213.479 285.919L193.541 305.252L169.682 311.85V311.983L163.306 318.966L138.661 295.309L138.951 252.811L222.861 230.004L221.901 227.407L221.698 226.874L138.848 248.712H134.024H24.1608V252.811L64.1733 320.317L8.09766 320.235V325.935H169.681V315.919L193.709 309.253L193.881 324.779L184.721 325.935L184.274 394.382H213.478V324.779H197.653V307.995L228.631 299.715L256.915 298.004L256.918 396.349H266.925L264.764 290.38L364.827 291.321L365.332 425.566L375.12 424.988L408.459 361.68H431.553L432.719 333.887H404.299L403.741 357.489L369.724 422.511V288.248L375.407 270.766L387.531 256.006L434.615 255.946L480.865 310.086L482.604 433.865L657.687 433.943L657.86 380.708L695.207 380.707L695.667 418.028H750.132V403.006L750.134 372.489L706.612 372.49V325.451V288.575L760.802 289.051L765.169 280.206L867.465 281.6L868.393 136.279L876.775 136.34L876.955 102.782L719.518 104.716L689.978 105.294L690.242 144.106H647.565L647.574 136.505L633.927 136.574L634.223 144.794L561.528 144.105L546.828 127.716H445.119C445.119 127.716 421.677 122.562 416.06 111.044C409.264 97.1109 393.473 103.685 392.88 119.697C392.444 131.479 391.704 151.192 394.859 155.887C399.451 162.722 404.644 163.084 404.684 162.81L405.379 196.411L378.501 196.216C384.26 154.825 382.892 118.039 384.125 80.4013C328.892 80.3997 271.965 80.1616 216.732 80.1592V80.1592ZM223.862 90.6354L377.003 90.9705C374.481 122.579 380.645 151.119 373.022 188.033C345.297 198.854 337.291 200.03 319.997 208.696L313.058 202.108L309.504 205.716L316.488 211.709L301.272 229.329L297.145 217.936L316.488 198.706L300.027 183.804L279.313 202.494L294.418 218.995L299.602 231.475L280.546 255.243L244.793 269.872L227.03 221.696L223.862 90.6354ZM862.609 123.297V136.234V197.574L825.943 198.012L826.303 203.409L862.609 203.164L862.503 278.492L763.469 277.849L759.444 286.586L706.612 285.706V258.495V216.35L722.599 216.348L721.401 193.472L707.982 192.995L706.612 127.718H719.519L862.609 123.297ZM528.581 138.256L529.709 155.884H502.8V136.611L528.581 138.256ZM567.322 150.565H690.695L692.716 316.159L657.065 252.753L607.12 253.779L594.196 240.455L594.193 155.887H572.095L567.322 150.565ZM372.562 190.473C372.151 192.276 371.749 194.071 371.271 195.918L373.935 196.181L371.384 195.444L371.807 244.099L301.766 244.019L285.816 251.888L300.006 234.216C322.8 205.289 331.858 205.136 372.562 190.473H372.562ZM377.782 199.196H405.436L405.669 210.418L438.413 210.741L439.126 234.215H454.356L454.879 241.779L502.8 242.199V252.726L435.316 251.417L435.164 251.257L386.899 250.671L377.542 243.901L377.782 199.196ZM589.541 241.804L598.898 252.28L570.667 299.555L554.328 268.219L551.537 242.177L589.541 241.804ZM541.572 242.275L542.197 252.843L508.798 253.156V242.595L541.572 242.275ZM303.385 248.713H375.999L382.304 255.243L370.961 267.573L366.226 284.5H256.916V293.795L230.043 295.157L200.795 303.246L216.396 288.714L303.385 248.713ZM134.024 252.811V290.858V297.243L157.386 320.553L95.2798 319.987L134.024 252.811ZM439.871 256.194L542.532 258.488V258.493L542.757 258.913V302.54H484.06L439.871 256.194ZM549.011 270.593L566.114 302.54H550.181L549.011 270.593ZM646.135 286.019L679.832 310.087L692.886 330.056L693.271 361.68H675.159L653.641 357.489L657.153 315.916L646.135 286.019Z" stroke="#5F5F5F" stroke-width="1.13386" stroke-linecap="round"/>
<path d="M478.113 127.718L478.665 162.665L416.061 163.017L416.429 177.013L422.434 176.868L422.641 195.957L454.461 196.019L454.737 234.216L589.541 233.678L588.069 163.68L491.757 162.997L491.205 127.987L478.113 127.718Z" fill="#BCC4C4"/>
<path d="M586.363 28.2699L587.238 143.754L633.599 144.106L633.3 136.218L672.367 135.824L671.562 28.1455L586.363 28.2699Z" fill="#BCC4C4"/>
<path d="M719.521 81.4776L721.339 146.983L826.348 146.403L826.441 155.741L847.654 155.885L847.079 124.52L862.61 124.126L861.482 81.1875L719.521 81.4776Z" fill="#BCC4C4"/>
<path d="M719.521 173.109V226.358L828.027 225.675L825.358 172.032L719.521 173.109Z" fill="#BCC4C4"/>
<path d="M868.359 307.419L879.058 307.375L879.978 322.157L868.797 321.784L868.359 307.419Z" fill="#BCC4C4"/>
<path d="M808.377 325.7L809.251 371.931L706.635 372.49L706.611 325.452L808.377 325.7Z" fill="#BCC4C4"/>
<path d="M730.542 380.729L730.197 402.736L770.07 403.006L769.748 380.708L730.542 380.729Z" fill="#BCC4C4"/>
<path d="M498.03 368.513L497.619 418.03L559.243 417.651L559.542 387.828L538.367 387.37L528.592 368.589L498.03 368.513Z" fill="#BCC4C4"/>
<path d="M596.659 357.488L594.197 418.03H623.601L625.189 357.82L596.659 357.488Z" fill="#BCC4C4"/>
<path d="M598.269 315.917L574.801 304.601L599.304 259.364L651.832 258.494L679.832 310.004L677.762 361.68L652.246 357.488L654.155 317.954L637.29 287.997L613.707 286.816L598.269 315.917Z" fill="#BCC4C4"/>
<path d="M528.58 338.834V357.489H580.077L579.639 339.393L528.58 338.834Z" fill="#BCC4C4"/>
<path d="M538.662 361.68L539.007 376.431L574.8 376.474V361.682L538.662 361.68Z" fill="#BCC4C4"/>
<path d="M490.092 315.917L489.816 333.658L508.499 333.885L508.798 315.917H490.092Z" fill="#BCC4C4"/>
<path d="M276.889 315.917H307.765L308.272 375.582H277.349L276.889 315.917Z" fill="#BCC4C4"/>
<path d="M326.08 315.917H355.576L355.552 375.582H326.102L326.08 315.917Z" fill="#BCC4C4"/>
<path d="M8.74378 326.018L8.09961 416.886L169.685 417.528L169.501 325.936L137.44 325.95L8.74378 326.018Z" fill="#BCC4C4"/>
<path d="M246.611 394.381L226.824 394.343L226.872 360.43L213.551 360.679L213.48 340.742L226.802 340.245L226.851 315.92L246.016 315.921L246.611 394.381Z" fill="#BCC4C4"/>
<path d="M24.3441 253.039L24.1602 315.919H64.1482L64.1724 252.812L24.3441 253.039Z" fill="#BCC4C4"/>
<path d="M67.9915 255.504L67.8535 306.248H88.8926V255.297L67.9915 255.504Z" fill="#BCC4C4"/>
<path d="M95.7376 252.812L95.2773 315.919H133.793L134.023 252.812H95.7376Z" fill="#BCC4C4"/>
<path d="M185.05 263.181C188.716 253.863 201.669 253.231 205.908 258.78C212.983 268.043 210.817 272.497 210.391 275.764C209.139 285.37 197.739 286.756 190.041 281.378C186.174 278.676 182.668 269.236 185.05 263.181Z" fill="#BCC4C4"/>
<path d="M431.277 86.1253H346.17L346.423 57.5029L430.908 57.5858L431.277 86.1253Z" fill="#BCC4C4"/>
<path d="M221.176 221.697L217.54 79.4326L1.0625 79.695L4.32472 220.731L221.176 221.697Z" fill="#BCC4C4"/>
<path d="M10.4981 71.8143C-22.833 140.485 99.2577 116.184 141.559 108.372C210.172 95.7002 354.069 153.975 357.227 88.9088C360.302 25.5725 273.657 45.9379 224.845 53.5888C154.802 64.5674 74.025 58.2864 10.4981 71.8143V71.8143Z" fill="#BCC4C4" fill-opacity="0.5"/>
<path d="M5.32456 93.4019C5.09971 87.6702 6.77321 80.6945 10.8416 72.2525C42.499 65.5405 78.4447 63.7347 115.248 62.2451C117.963 62.1353 120.683 62.0271 123.406 61.9188C157.669 60.5561 192.446 59.173 224.922 54.0827C229.076 53.4316 233.5 52.6894 238.115 51.915C260.665 48.1315 287.793 43.5798 310.459 45.1274C324.108 46.0593 336.053 49.2 344.388 55.982C352.694 62.7401 357.49 73.1757 356.728 88.8846C356.338 96.9176 353.781 103.005 349.503 107.564C345.217 112.132 339.166 115.206 331.72 117.134C316.811 120.993 296.465 120.217 273.992 117.791C262.765 116.579 251.024 114.958 239.186 113.306C238.544 113.216 237.901 113.127 237.258 113.037C226.056 111.472 214.788 109.899 203.816 108.638C180.625 105.973 158.701 104.697 141.468 107.88C140.395 108.078 139.271 108.287 138.1 108.504C116.163 112.577 77.6638 119.726 47.6906 118.275C31.8798 117.509 18.5924 114.354 11.3158 107.238C7.69765 103.699 5.55073 99.167 5.32456 93.4019Z" stroke="#5F5F5F" stroke-opacity="0.2"/>
<path d="M205.305 130.883C188.981 163.89 203.5 186.932 208.144 239.085C211.323 274.79 210.017 294.793 255.568 279.431C293.491 266.641 379.471 296.712 373.247 264.219C363.838 215.098 406.877 93.7423 349.56 112.122C307.552 125.592 298.458 121.513 235.891 112.35C222.517 110.391 212.261 121.065 205.305 130.883V130.883Z" fill="#BCC4C4" fill-opacity="0.5"/>
<path d="M199.357 177.739C197.197 161.405 197.649 147.51 205.735 131.141C209.196 126.26 213.454 121.203 218.482 117.607C223.515 114.008 229.294 111.889 235.818 112.845C243.272 113.936 249.971 114.957 256.058 115.884C275.494 118.844 288.705 120.856 300.419 121.223C315.844 121.707 328.68 119.342 349.712 112.598C356.817 110.319 362.288 110.233 366.469 111.832C370.638 113.427 373.611 116.731 375.66 121.425C377.713 126.129 378.822 132.198 379.263 139.249C379.703 146.294 379.474 154.287 378.87 162.822C378.115 173.498 376.776 184.984 375.434 196.498C374.629 203.41 373.822 210.332 373.139 217.096C371.324 235.088 370.388 251.952 372.756 264.313C373.514 268.272 372.858 271.197 371.141 273.367C369.409 275.556 366.536 277.058 362.697 278.02C355.009 279.948 343.739 279.644 330.999 278.715C326.677 278.4 322.188 278.012 317.622 277.619C308.769 276.855 299.627 276.067 290.849 275.728C277.544 275.215 264.982 275.728 255.409 278.957C244.04 282.791 235.65 284.398 229.41 284.129C223.198 283.861 219.141 281.738 216.364 278.104C213.561 274.437 212.017 269.174 210.984 262.536C210.198 257.492 209.714 251.708 209.177 245.294C209.007 243.271 208.833 241.186 208.642 239.041C207.479 225.982 205.698 214.748 203.938 204.731C203.466 202.045 202.995 199.448 202.539 196.928C201.292 190.044 200.15 183.733 199.357 177.739Z" stroke="#5F5F5F" stroke-opacity="0.2"/>
<path d="M379.992 202.984C398.839 270.384 329.31 415.581 399.828 420.658C465.981 425.421 515.132 445.357 482.861 357.598C449.812 267.721 593.947 313.403 648.987 354.342C706.943 397.449 734.495 362.904 711.238 305.617C700.429 278.993 727.976 152.111 690.717 161.375C608.455 181.828 569.895 146.246 476.331 144.108C447.947 143.459 381.107 166.36 379.992 202.984V202.984Z" fill="#BCC4C4" fill-opacity="0.5"/>
<path d="M381.622 264.775C384.385 241.633 385.212 219.865 380.494 202.924C380.79 193.957 385.095 185.795 391.888 178.586C398.701 171.355 407.993 165.111 418.159 160.016C438.503 149.821 462.228 144.286 476.319 144.608C514.629 145.484 543.692 151.97 570.362 157.923C576.219 159.231 581.961 160.512 587.66 161.703C619.316 168.317 649.605 172.112 690.837 161.86C695.35 160.738 698.816 161.681 701.512 164.187C704.242 166.726 706.234 170.915 707.638 176.385C710.444 187.318 710.836 203.077 710.397 220.025C710.177 228.491 709.751 237.238 709.32 245.81C709.285 246.499 709.251 247.187 709.216 247.874C708.82 255.726 708.433 263.399 708.212 270.529C707.971 278.281 707.927 285.403 708.282 291.424C708.637 297.434 709.391 302.397 710.775 305.805C716.571 320.083 719.189 332.915 718.973 343.45C718.757 353.989 715.707 362.179 710.227 367.26C704.76 372.33 696.784 374.386 686.526 372.479C676.258 370.57 663.74 364.692 649.286 353.941C621.702 333.424 571.829 311.734 532.958 306.419C523.235 305.089 514.181 304.781 506.325 305.781C498.472 306.78 491.783 309.09 486.825 313.024C476.843 320.944 474.103 335.229 482.392 357.771C490.455 379.699 493.398 394.815 492.307 405.092C491.763 410.217 490.218 414.115 487.825 417.057C485.432 419.999 482.161 422.023 478.098 423.348C469.946 426.008 458.704 425.825 445.291 424.657C439.806 424.18 433.949 423.536 427.806 422.861C418.997 421.893 409.598 420.86 399.863 420.16C391.142 419.532 384.631 416.743 379.844 412.247C375.053 407.747 371.947 401.494 370.115 393.866C366.447 378.589 367.923 357.943 371.029 335.26C372.365 325.5 374.001 315.38 375.653 305.162C375.919 303.516 376.185 301.868 376.451 300.217C378.365 288.329 380.238 276.371 381.622 264.775Z" stroke="#5F5F5F" stroke-opacity="0.2"/>
<path d="M1.06224 284.366C1.32216 355.625 -17.633 433.588 94.3218 418.948C181.821 407.507 372.478 473.112 365.328 399.549C358.549 329.808 402.77 276.909 303.546 279.79C271.377 280.724 256.349 281.479 234.645 283.114C182.828 287.018 240.313 212.463 161.968 219.131C116.133 223.032 7.26645 185.891 3.19417 250.526C2.48348 261.806 1.77288 273.086 1.06224 284.366V284.366Z" fill="#BCC4C4" fill-opacity="0.5"/>
<path d="M94.257 418.453C66.3124 422.107 46.6128 419.971 32.7629 413.662C18.9372 407.364 10.8856 396.883 6.27842 383.704C1.66351 370.503 0.508841 354.605 0.50005 337.515C0.495806 329.264 0.758385 320.747 1.02401 312.131L1.05198 311.224C1.32654 302.307 1.59443 293.293 1.56229 284.381L3.69318 250.557C4.19761 242.551 6.32209 236.15 9.72157 231.057C13.121 225.964 17.8137 222.151 23.4961 219.349C34.8791 213.736 50.2006 212.194 66.9092 212.553C82.043 212.878 98.2496 214.759 113.605 216.542C115.192 216.726 116.771 216.909 118.338 217.09C135.04 219.012 150.492 220.61 162.011 219.629C181.541 217.967 192.463 221.381 198.748 227.23C205.041 233.086 206.809 241.49 207.757 250.14C207.951 251.904 208.111 253.688 208.27 255.46C208.498 257.994 208.723 260.504 209.04 262.892C209.582 266.97 210.401 270.805 211.998 274.047C213.602 277.303 215.99 279.959 219.647 281.665C223.292 283.366 228.155 284.104 234.683 283.613C256.377 281.978 271.396 281.223 303.56 280.29C328.345 279.57 344.069 282.341 353.859 287.914C363.594 293.457 367.52 301.808 368.606 312.487C369.573 321.988 368.285 333.269 366.835 345.979C366.648 347.614 366.459 349.273 366.271 350.954C364.629 365.68 363.13 382.107 364.83 399.598C365.713 408.681 363.542 415.555 358.952 420.701C354.347 425.864 347.255 429.345 338.188 431.52C320.044 435.871 294.225 434.935 265.368 432.047C249.134 430.422 231.986 428.186 214.731 425.935C201.306 424.184 187.817 422.425 174.642 420.938C144.574 417.546 116.198 415.584 94.257 418.453Z" stroke="#5F5F5F" stroke-opacity="0.2"/>
<path d="M442.528 35.8437C357.755 152.426 569.678 119.277 609.067 103.899C760.386 44.8216 691.944 249.783 726.004 342.031C763.046 442.359 926.658 479.84 930.763 347.176C933.765 250.141 907.148 242.792 919.745 118.537C926.854 48.4234 927.514 -0.141177 856.222 3.2489C719.882 9.73224 566.946 -22.7631 442.528 35.8437Z" fill="#EA8C94" fill-opacity="0.7"/>
<path d="M293.728 48.0629V67.3281H289.655V51.9291H289.542L285.13 54.6947V51.0825L289.9 48.0629H293.728Z" fill="#EBF0F1"/>
<path d="M285.882 160.586V157.651L292.739 151.301C293.323 150.737 293.812 150.229 294.207 149.777C294.608 149.326 294.912 148.884 295.119 148.451C295.326 148.012 295.43 147.539 295.43 147.031C295.43 146.466 295.301 145.98 295.044 145.573C294.787 145.159 294.436 144.842 293.991 144.622C293.545 144.397 293.04 144.284 292.476 144.284C291.887 144.284 291.372 144.403 290.933 144.641C290.494 144.88 290.156 145.221 289.917 145.667C289.679 146.112 289.56 146.642 289.56 147.256H285.694C285.694 145.996 285.979 144.902 286.55 143.973C287.12 143.045 287.92 142.327 288.948 141.819C289.977 141.311 291.162 141.057 292.504 141.057C293.884 141.057 295.085 141.302 296.107 141.791C297.136 142.274 297.935 142.945 298.506 143.804C299.077 144.663 299.362 145.648 299.362 146.758C299.362 147.485 299.218 148.203 298.929 148.912C298.647 149.621 298.142 150.408 297.415 151.273C296.687 152.132 295.662 153.164 294.339 154.368L291.526 157.124V157.256H299.616V160.586H285.882Z" fill="#EBF0F1"/>
<path d="M642.347 221.11C640.942 221.11 639.691 220.869 638.593 220.386C637.502 219.897 636.64 219.226 636.006 218.373C635.379 217.514 635.056 216.523 635.037 215.4H639.139C639.164 215.87 639.318 216.284 639.6 216.642C639.888 216.993 640.271 217.266 640.747 217.46C641.224 217.655 641.76 217.752 642.356 217.752C642.977 217.752 643.526 217.642 644.002 217.423C644.479 217.203 644.852 216.899 645.122 216.51C645.391 216.121 645.526 215.673 645.526 215.165C645.526 214.651 645.382 214.196 645.093 213.801C644.811 213.4 644.404 213.086 643.871 212.86C643.344 212.634 642.717 212.522 641.989 212.522H640.192V209.53H641.989C642.604 209.53 643.146 209.424 643.617 209.21C644.093 208.997 644.463 208.702 644.727 208.326C644.99 207.944 645.122 207.498 645.122 206.99C645.122 206.507 645.006 206.084 644.774 205.72C644.548 205.35 644.228 205.062 643.814 204.855C643.406 204.648 642.93 204.545 642.384 204.545C641.832 204.545 641.328 204.645 640.87 204.846C640.412 205.04 640.045 205.319 639.769 205.683C639.493 206.047 639.346 206.473 639.327 206.962H635.423C635.442 205.852 635.759 204.874 636.373 204.027C636.988 203.181 637.816 202.519 638.857 202.042C639.904 201.559 641.086 201.318 642.403 201.318C643.733 201.318 644.896 201.559 645.893 202.042C646.89 202.525 647.665 203.177 648.216 203.999C648.775 204.814 649.051 205.73 649.044 206.746C649.051 207.824 648.715 208.724 648.038 209.446C647.367 210.167 646.492 210.625 645.413 210.819V210.969C646.831 211.151 647.909 211.644 648.649 212.446C649.395 213.243 649.765 214.24 649.759 215.438C649.765 216.535 649.449 217.51 648.809 218.363C648.176 219.216 647.301 219.887 646.185 220.376C645.068 220.865 643.789 221.11 642.347 221.11Z" fill="#EBF0F1"/>
<path d="M283.967 400.59V397.382L292.01 384.711H294.776V389.151H293.139L288.069 397.175V397.326H299.498V400.59H283.967ZM293.214 403.977V399.612L293.289 398.191V384.711H297.109V403.977H293.214Z" fill="#EBF0F1"/>
<path d="M868.418 52.656C867.089 52.656 865.903 52.4114 864.862 51.9222C863.828 51.4331 863.006 50.7589 862.398 49.8998C861.789 49.0406 861.473 48.056 861.448 46.946H865.399C865.442 47.6923 865.756 48.2975 866.339 48.7615C866.922 49.2256 867.615 49.4576 868.418 49.4576C869.058 49.4576 869.622 49.3165 870.111 49.0343C870.607 48.7459 870.993 48.3476 871.268 47.8397C871.551 47.3254 871.692 46.7359 871.692 46.0712C871.692 45.3939 871.548 44.7981 871.259 44.2839C870.977 43.7696 870.585 43.3683 870.083 43.0798C869.582 42.7913 869.008 42.6439 868.362 42.6377C867.797 42.6377 867.249 42.7537 866.716 42.9857C866.189 43.2178 865.778 43.5344 865.483 43.9358L861.862 43.2867L862.774 33.1273H874.551V36.4574H866.132L865.634 41.2831H865.747C866.085 40.8065 866.596 40.4114 867.28 40.0978C867.964 39.7842 868.729 39.6275 869.575 39.6275C870.735 39.6275 871.77 39.9003 872.679 40.4459C873.589 40.9915 874.307 41.7409 874.834 42.6941C875.36 43.6411 875.621 44.7323 875.614 45.9677C875.621 47.2658 875.32 48.4197 874.711 49.4294C874.109 50.4328 873.266 51.223 872.181 51.7999C871.102 52.3706 869.848 52.656 868.418 52.656Z" fill="#EBF0F1"/>
<path d="M63.8871 405.93C63.8473 405.791 63.7914 405.669 63.7195 405.563C63.6475 405.455 63.5594 405.364 63.4553 405.29C63.353 405.215 63.2356 405.157 63.103 405.117C62.9723 405.077 62.8274 405.058 62.6683 405.058C62.371 405.058 62.1096 405.131 61.8842 405.279C61.6608 405.427 61.4865 405.642 61.3615 405.924C61.2365 406.204 61.174 406.547 61.174 406.952C61.174 407.358 61.2356 407.702 61.3587 407.987C61.4818 408.271 61.656 408.487 61.8814 408.637C62.1068 408.785 62.3729 408.859 62.6797 408.859C62.9581 408.859 63.1958 408.809 63.3928 408.711C63.5916 408.611 63.7431 408.469 63.8473 408.288C63.9534 408.106 64.0064 407.891 64.0064 407.643L64.2564 407.68H62.7564V406.754H65.1911V407.487C65.1911 407.998 65.0831 408.437 64.8672 408.805C64.6513 409.17 64.3539 409.452 63.9751 409.651C63.5964 409.848 63.1626 409.947 62.674 409.947C62.1286 409.947 61.6494 409.826 61.2365 409.586C60.8236 409.344 60.5017 409 60.2706 408.555C60.0414 408.108 59.9268 407.577 59.9268 406.964C59.9268 406.492 59.995 406.072 60.1314 405.702C60.2697 405.331 60.4628 405.017 60.7109 404.759C60.959 404.502 61.2479 404.306 61.5774 404.171C61.907 404.037 62.264 403.969 62.6484 403.969C62.978 403.969 63.2848 404.018 63.5689 404.114C63.853 404.209 64.1049 404.344 64.3246 404.518C64.5462 404.692 64.727 404.899 64.8672 405.14C65.0073 405.379 65.0973 405.642 65.1371 405.93H63.8871ZM67.3452 404.049V409.867H66.1151V404.049H67.3452ZM73.2237 404.049V409.867H72.1612L69.63 406.205H69.5874V409.867H68.3573V404.049H69.4368L71.9482 407.708H71.9993V404.049H73.2237ZM75.2429 409.867H73.9247L75.9333 404.049H77.5185L79.5242 409.867H78.206L76.7486 405.379H76.7032L75.2429 409.867ZM75.1605 407.58H78.2742V408.54H75.1605V407.58ZM76.2912 403.486L76.8935 402.194H78.0128L77.1463 403.486H76.2912ZM83.2479 405.722C83.2252 405.493 83.1276 405.315 82.9553 405.188C82.7829 405.061 82.549 404.998 82.2536 404.998C82.0528 404.998 81.8833 405.026 81.7451 405.083C81.6068 405.138 81.5007 405.215 81.4269 405.313C81.3549 405.412 81.3189 405.523 81.3189 405.648C81.3151 405.753 81.3369 405.844 81.3843 405.921C81.4335 405.999 81.5007 406.066 81.586 406.123C81.6712 406.178 81.7697 406.226 81.8814 406.268C81.9932 406.308 82.1125 406.342 82.2394 406.37L82.7621 406.495C83.0159 406.552 83.2489 406.628 83.461 406.722C83.6731 406.817 83.8568 406.933 84.0121 407.072C84.1674 407.21 84.2877 407.373 84.3729 407.56C84.46 407.748 84.5045 407.963 84.5064 408.205C84.5045 408.561 84.4136 408.87 84.2337 409.131C84.0557 409.391 83.7981 409.593 83.461 409.737C83.1257 409.879 82.7214 409.95 82.2479 409.95C81.7782 409.95 81.3691 409.878 81.0206 409.734C80.674 409.59 80.4032 409.377 80.2081 409.094C80.0149 408.81 79.9136 408.459 79.9042 408.04H81.0945C81.1078 408.236 81.1636 408.398 81.2621 408.529C81.3625 408.658 81.496 408.755 81.6627 408.822C81.8312 408.886 82.0216 408.918 82.2337 408.918C82.442 408.918 82.6229 408.888 82.7763 408.827C82.9316 408.767 83.0519 408.683 83.1371 408.575C83.2223 408.467 83.265 408.343 83.265 408.202C83.265 408.072 83.2261 407.962 83.1485 407.873C83.0727 407.784 82.961 407.708 82.8132 407.646C82.6674 407.583 82.4884 407.526 82.2763 407.475L81.6428 407.316C81.1523 407.197 80.7649 407.01 80.4809 406.756C80.1968 406.503 80.0557 406.161 80.0576 405.731C80.0557 405.379 80.1494 405.071 80.3388 404.808C80.5301 404.544 80.7924 404.339 81.1257 404.191C81.4591 404.043 81.8379 403.969 82.2621 403.969C82.6939 403.969 83.0708 404.043 83.3928 404.191C83.7167 404.339 83.9686 404.544 84.1485 404.808C84.3284 405.071 84.4212 405.376 84.4269 405.722H83.2479ZM86.564 404.049V409.867H85.3338V404.049H86.564ZM92.9226 406.958C92.9226 407.593 92.8024 408.132 92.5618 408.577C92.3232 409.022 91.9974 409.362 91.5846 409.597C91.1736 409.83 90.7115 409.947 90.1982 409.947C89.6812 409.947 89.2171 409.829 88.8062 409.594C88.3952 409.36 88.0704 409.02 87.8317 408.575C87.5931 408.129 87.4738 407.591 87.4738 406.958C87.4738 406.324 87.5931 405.784 87.8317 405.339C88.0704 404.894 88.3952 404.555 88.8062 404.322C89.2171 404.087 89.6812 403.969 90.1982 403.969C90.7115 403.969 91.1736 404.087 91.5846 404.322C91.9974 404.555 92.3232 404.894 92.5618 405.339C92.8024 405.784 92.9226 406.324 92.9226 406.958ZM91.6755 406.958C91.6755 406.547 91.6139 406.201 91.4908 405.918C91.3696 405.636 91.1982 405.422 90.9766 405.276C90.755 405.13 90.4955 405.058 90.1982 405.058C89.9009 405.058 89.6414 405.13 89.4198 405.276C89.1982 405.422 89.0258 405.636 88.9027 405.918C88.7815 406.201 88.7209 406.547 88.7209 406.958C88.7209 407.369 88.7815 407.716 88.9027 407.998C89.0258 408.28 89.1982 408.494 89.4198 408.64C89.6414 408.786 89.9009 408.859 90.1982 408.859C90.4955 408.859 90.755 408.786 90.9766 408.64C91.1982 408.494 91.3696 408.28 91.4908 407.998C91.6139 407.716 91.6755 407.369 91.6755 406.958Z" fill="#5F5F5F"/>
<path d="M611.56 128.031V122.213H613.89C614.318 122.213 614.675 122.277 614.961 122.403C615.247 122.53 615.462 122.706 615.606 122.932C615.75 123.155 615.822 123.413 615.822 123.705C615.822 123.932 615.776 124.132 615.685 124.304C615.594 124.474 615.469 124.615 615.31 124.724C615.153 124.832 614.973 124.909 614.771 124.955V125.011C614.992 125.021 615.2 125.083 615.393 125.199C615.588 125.314 615.746 125.476 615.867 125.685C615.988 125.891 616.049 126.137 616.049 126.423C616.049 126.732 615.972 127.008 615.819 127.25C615.667 127.491 615.443 127.681 615.146 127.821C614.848 127.961 614.482 128.031 614.046 128.031H611.56ZM612.79 127.026H613.793C614.136 127.026 614.386 126.96 614.543 126.83C614.701 126.697 614.779 126.521 614.779 126.301C614.779 126.14 614.74 125.998 614.663 125.875C614.585 125.752 614.474 125.655 614.33 125.585C614.188 125.515 614.019 125.48 613.822 125.48H612.79V127.026ZM612.79 124.648H613.702C613.871 124.648 614.021 124.618 614.151 124.56C614.284 124.499 614.388 124.414 614.464 124.304C614.541 124.194 614.58 124.062 614.58 123.909C614.58 123.699 614.505 123.529 614.356 123.401C614.208 123.272 613.998 123.207 613.725 123.207H612.79V124.648ZM617.534 128.105C617.347 128.105 617.186 128.039 617.051 127.906C616.919 127.772 616.852 127.611 616.852 127.423C616.852 127.238 616.919 127.079 617.051 126.946C617.186 126.813 617.347 126.747 617.534 126.747C617.716 126.747 617.875 126.813 618.011 126.946C618.148 127.079 618.216 127.238 618.216 127.423C618.216 127.548 618.184 127.663 618.119 127.767C618.057 127.869 617.974 127.952 617.872 128.014C617.77 128.075 617.657 128.105 617.534 128.105ZM621.813 128.031H620.495L622.504 122.213H624.089L626.094 128.031H624.776L623.319 123.543H623.273L621.813 128.031ZM621.731 125.744H624.844V126.705H621.731V125.744ZM628.857 128.031H626.795V122.213H628.874C629.46 122.213 629.963 122.33 630.386 122.562C630.808 122.794 631.133 123.126 631.36 123.56C631.589 123.993 631.704 124.512 631.704 125.116C631.704 125.723 631.589 126.243 631.36 126.679C631.133 127.115 630.806 127.449 630.38 127.682C629.956 127.915 629.448 128.031 628.857 128.031ZM628.025 126.977H628.806C629.17 126.977 629.476 126.913 629.724 126.784C629.974 126.653 630.161 126.452 630.286 126.179C630.413 125.904 630.477 125.55 630.477 125.116C630.477 124.687 630.413 124.335 630.286 124.062C630.161 123.79 629.975 123.589 629.727 123.46C629.478 123.331 629.173 123.267 628.809 123.267H628.025V126.977ZM632.615 122.213H634.132L635.734 126.122H635.803L637.405 122.213H638.922V128.031H637.729V124.244H637.68L636.175 128.003H635.362L633.857 124.23H633.808V128.031H632.615V122.213Z" fill="#5F5F5F"/>
<path d="M751.379 138.024V132.206H753.708C754.136 132.206 754.493 132.27 754.779 132.397C755.065 132.523 755.28 132.7 755.424 132.925C755.568 133.148 755.64 133.406 755.64 133.698C755.64 133.925 755.595 134.125 755.504 134.297C755.413 134.468 755.288 134.608 755.129 134.718C754.972 134.826 754.792 134.902 754.589 134.948V135.005C754.811 135.014 755.018 135.076 755.211 135.192C755.406 135.308 755.564 135.469 755.686 135.678C755.807 135.884 755.867 136.13 755.867 136.416C755.867 136.725 755.791 137.001 755.637 137.243C755.486 137.484 755.261 137.674 754.964 137.814C754.667 137.954 754.3 138.024 753.865 138.024H751.379ZM752.609 137.019H753.612C753.954 137.019 754.204 136.953 754.362 136.823C754.519 136.69 754.597 136.514 754.597 136.294C754.597 136.133 754.559 135.991 754.481 135.868C754.403 135.745 754.293 135.648 754.149 135.578C754.007 135.508 753.837 135.473 753.64 135.473H752.609V137.019ZM752.609 134.641H753.521C753.689 134.641 753.839 134.612 753.97 134.553C754.102 134.492 754.206 134.407 754.282 134.297C754.36 134.187 754.399 134.056 754.399 133.902C754.399 133.692 754.324 133.523 754.174 133.394C754.026 133.265 753.816 133.201 753.544 133.201H752.609V134.641ZM757.352 138.098C757.165 138.098 757.004 138.032 756.87 137.899C756.737 137.765 756.671 137.604 756.671 137.416C756.671 137.231 756.737 137.072 756.87 136.939C757.004 136.807 757.165 136.74 757.352 136.74C757.534 136.74 757.693 136.807 757.83 136.939C757.966 137.072 758.034 137.231 758.034 137.416C758.034 137.541 758.002 137.656 757.938 137.76C757.875 137.862 757.793 137.945 757.691 138.007C757.588 138.068 757.476 138.098 757.352 138.098ZM762.691 138.024H760.629V132.206H762.708C763.294 132.206 763.797 132.323 764.22 132.556C764.642 132.787 764.967 133.119 765.194 133.553C765.423 133.987 765.538 134.505 765.538 135.11C765.538 135.716 765.423 136.237 765.194 136.672C764.967 137.108 764.64 137.442 764.214 137.675C763.79 137.908 763.282 138.024 762.691 138.024ZM761.859 136.97H762.64C763.004 136.97 763.31 136.906 763.558 136.777C763.808 136.647 763.995 136.445 764.12 136.172C764.247 135.898 764.311 135.543 764.311 135.11C764.311 134.68 764.247 134.328 764.12 134.056C763.995 133.783 763.809 133.582 763.561 133.453C763.312 133.325 763.007 133.26 762.643 133.26H761.859V136.97ZM766.449 138.024V132.206H770.37V133.22H767.679V134.607H770.168V135.621H767.679V137.01H770.381V138.024H766.449ZM773.199 138.024V132.206H777.12V133.22H774.429V134.607H776.918V135.621H774.429V137.01H777.131V138.024H773.199ZM782.964 132.206V138.024H781.902L779.37 134.362H779.328V138.024H778.098V132.206H779.177L781.688 135.865H781.74V132.206H782.964ZM787.137 133.88C787.114 133.65 787.016 133.472 786.844 133.345C786.672 133.219 786.438 133.155 786.142 133.155C785.942 133.155 785.772 133.183 785.634 133.24C785.495 133.295 785.389 133.372 785.316 133.47C785.244 133.569 785.208 133.681 785.208 133.806C785.204 133.91 785.226 134.001 785.273 134.078C785.322 134.156 785.389 134.223 785.475 134.28C785.56 134.335 785.658 134.383 785.77 134.425C785.882 134.465 786.001 134.499 786.128 134.527L786.651 134.652C786.905 134.709 787.138 134.785 787.35 134.88C787.562 134.974 787.745 135.091 787.901 135.229C788.056 135.367 788.176 135.53 788.262 135.718C788.349 135.905 788.393 136.12 788.395 136.362C788.393 136.719 788.302 137.027 788.122 137.289C787.944 137.548 787.687 137.75 787.35 137.894C787.014 138.036 786.61 138.107 786.137 138.107C785.667 138.107 785.258 138.035 784.909 137.891C784.563 137.747 784.292 137.534 784.097 137.252C783.904 136.968 783.802 136.616 783.793 136.198H784.983C784.996 136.393 785.052 136.556 785.151 136.686C785.251 136.815 785.385 136.913 785.551 136.979C785.72 137.043 785.91 137.076 786.122 137.076C786.331 137.076 786.512 137.045 786.665 136.985C786.82 136.924 786.941 136.84 787.026 136.732C787.111 136.624 787.154 136.5 787.154 136.36C787.154 136.229 787.115 136.119 787.037 136.03C786.961 135.941 786.85 135.865 786.702 135.803C786.556 135.74 786.377 135.684 786.165 135.632L785.531 135.473C785.041 135.354 784.654 135.167 784.37 134.914C784.085 134.66 783.944 134.318 783.946 133.888C783.944 133.536 784.038 133.228 784.228 132.965C784.419 132.701 784.681 132.496 785.014 132.348C785.348 132.201 785.727 132.127 786.151 132.127C786.583 132.127 786.96 132.201 787.281 132.348C787.605 132.496 787.857 132.701 788.037 132.965C788.217 133.228 788.31 133.533 788.316 133.88H787.137ZM790.453 132.206V138.024H789.223V132.206H790.453ZM796.331 132.206V138.024H795.269L792.737 134.362H792.695V138.024H791.465V132.206H792.544L795.056 135.865H795.107V132.206H796.331ZM802.694 135.115C802.694 135.75 802.574 136.29 802.333 136.735C802.095 137.18 801.769 137.52 801.356 137.755C800.945 137.987 800.483 138.104 799.97 138.104C799.453 138.104 798.989 137.987 798.578 137.752C798.167 137.517 797.842 137.177 797.603 136.732C797.365 136.287 797.245 135.748 797.245 135.115C797.245 134.481 797.365 133.941 797.603 133.496C797.842 133.051 798.167 132.712 798.578 132.479C798.989 132.244 799.453 132.127 799.97 132.127C800.483 132.127 800.945 132.244 801.356 132.479C801.769 132.712 802.095 133.051 802.333 133.496C802.574 133.941 802.694 134.481 802.694 135.115ZM801.447 135.115C801.447 134.704 801.385 134.358 801.262 134.076C801.141 133.793 800.97 133.579 800.748 133.433C800.527 133.288 800.267 133.215 799.97 133.215C799.672 133.215 799.413 133.288 799.191 133.433C798.97 133.579 798.797 133.793 798.674 134.076C798.553 134.358 798.492 134.704 798.492 135.115C798.492 135.526 798.553 135.873 798.674 136.155C798.797 136.437 798.97 136.651 799.191 136.797C799.413 136.943 799.672 137.016 799.97 137.016C800.267 137.016 800.527 136.943 800.748 136.797C800.97 136.651 801.141 136.437 801.262 136.155C801.385 135.873 801.447 135.526 801.447 135.115Z" fill="#5F5F5F"/>
<path d="M63.5162 207.844H62.2718C62.2491 207.683 62.2027 207.54 62.1326 207.415C62.0626 207.288 61.9726 207.18 61.8628 207.091C61.7529 207.002 61.626 206.934 61.4821 206.886C61.34 206.839 61.1857 206.815 61.019 206.815C60.7179 206.815 60.4556 206.89 60.2321 207.04C60.0086 207.187 59.8353 207.403 59.7122 207.687C59.5891 207.97 59.5275 208.312 59.5275 208.716C59.5275 209.131 59.5891 209.479 59.7122 209.761C59.8372 210.044 60.0114 210.257 60.2349 210.401C60.4584 210.545 60.7169 210.616 61.0105 210.616C61.1753 210.616 61.3277 210.595 61.4679 210.551C61.6099 210.508 61.7359 210.444 61.8457 210.361C61.9556 210.276 62.0465 210.172 62.1184 210.051C62.1923 209.93 62.2434 209.792 62.2718 209.636L63.5162 209.642C63.484 209.909 63.4035 210.167 63.2747 210.415C63.1478 210.661 62.9764 210.882 62.7605 211.077C62.5465 211.27 62.2908 211.423 61.9934 211.537C61.698 211.649 61.3637 211.705 60.9906 211.705C60.4717 211.705 60.0076 211.587 59.5985 211.352C59.1913 211.117 58.8694 210.777 58.6326 210.332C58.3978 209.887 58.2804 209.348 58.2804 208.716C58.2804 208.081 58.3997 207.542 58.6383 207.097C58.877 206.652 59.2008 206.312 59.6099 206.08C60.019 205.845 60.4792 205.727 60.9906 205.727C61.3277 205.727 61.6402 205.775 61.9281 205.869C62.2179 205.964 62.4745 206.102 62.698 206.284C62.9215 206.464 63.1033 206.685 63.2434 206.946C63.3855 207.207 63.4764 207.507 63.5162 207.844ZM65.2917 211.625H63.9736L65.9821 205.807H67.5673L69.573 211.625H68.2548L66.7974 207.136H66.752L65.2917 211.625ZM65.2094 209.338H68.323V210.298H65.2094V209.338ZM70.2733 205.807H71.7903L73.3926 209.716H73.4608L75.0631 205.807H76.5801V211.625H75.3869V207.838H75.3386L73.8329 211.597H73.0204L71.5148 207.824H71.4665V211.625H70.2733V205.807ZM77.5936 211.625V205.807H79.8891C80.3304 205.807 80.7063 205.891 81.0169 206.06C81.3275 206.226 81.5643 206.458 81.7271 206.756C81.8919 207.051 81.9743 207.392 81.9743 207.778C81.9743 208.165 81.891 208.506 81.7243 208.801C81.5576 209.097 81.3161 209.327 80.9999 209.491C80.6855 209.656 80.3048 209.739 79.8578 209.739H78.3947V208.753H79.6589C79.8957 208.753 80.0908 208.712 80.2442 208.631C80.3995 208.547 80.515 208.433 80.5908 208.287C80.6684 208.139 80.7072 207.97 80.7072 207.778C80.7072 207.585 80.6684 207.417 80.5908 207.273C80.515 207.127 80.3995 207.014 80.2442 206.935C80.0889 206.853 79.8919 206.812 79.6533 206.812H78.8237V211.625H77.5936ZM88.1199 208.716C88.1199 209.35 87.9996 209.89 87.7591 210.335C87.5205 210.78 87.1947 211.12 86.7818 211.355C86.3708 211.588 85.9087 211.705 85.3955 211.705C84.8784 211.705 84.4144 211.587 84.0034 211.352C83.5924 211.117 83.2676 210.777 83.029 210.332C82.7903 209.887 82.671 209.348 82.671 208.716C82.671 208.081 82.7903 207.542 83.029 207.097C83.2676 206.652 83.5924 206.312 84.0034 206.08C84.4144 205.845 84.8784 205.727 85.3955 205.727C85.9087 205.727 86.3708 205.845 86.7818 206.08C87.1947 206.312 87.5205 206.652 87.7591 207.097C87.9996 207.542 88.1199 208.081 88.1199 208.716ZM86.8727 208.716C86.8727 208.305 86.8112 207.958 86.6881 207.676C86.5669 207.394 86.3955 207.18 86.1739 207.034C85.9523 206.888 85.6928 206.815 85.3955 206.815C85.0981 206.815 84.8386 206.888 84.6171 207.034C84.3955 207.18 84.2231 207.394 84.1 207.676C83.9788 207.958 83.9182 208.305 83.9182 208.716C83.9182 209.127 83.9788 209.473 84.1 209.756C84.2231 210.038 84.3955 210.252 84.6171 210.398C84.8386 210.544 85.0981 210.616 85.3955 210.616C85.6928 210.616 85.9523 210.544 86.1739 210.398C86.3955 210.252 86.5669 210.038 86.6881 209.756C86.8112 209.473 86.8727 209.127 86.8727 208.716ZM92.9452 211.625H90.8827V205.807H92.9622C93.5475 205.807 94.0513 205.923 94.4736 206.156C94.8959 206.387 95.2208 206.72 95.448 207.153C95.6772 207.587 95.7918 208.106 95.7918 208.71C95.7918 209.316 95.6772 209.837 95.448 210.273C95.2208 210.708 94.8941 211.043 94.4679 211.276C94.0437 211.509 93.5361 211.625 92.9452 211.625ZM92.1128 210.571H92.8941C93.2577 210.571 93.5636 210.507 93.8117 210.378C94.0617 210.247 94.2492 210.045 94.3742 209.773C94.5011 209.498 94.5645 209.144 94.5645 208.71C94.5645 208.28 94.5011 207.929 94.3742 207.656C94.2492 207.384 94.0626 207.183 93.8145 207.054C93.5664 206.925 93.2605 206.861 92.8969 206.861H92.1128V210.571ZM96.703 211.625V205.807H100.623V206.821H97.9331V208.207H100.422V209.222H97.9331V210.611H100.635V211.625H96.703ZM103.453 211.625V205.807H107.305V206.821H104.683V208.207H107.05V209.222H104.683V211.625H103.453ZM111.726 205.807H112.957V209.585C112.957 210.009 112.855 210.381 112.653 210.699C112.452 211.017 112.171 211.265 111.809 211.443C111.447 211.619 111.026 211.707 110.545 211.707C110.062 211.707 109.639 211.619 109.278 211.443C108.916 211.265 108.635 211.017 108.434 210.699C108.233 210.381 108.133 210.009 108.133 209.585V205.807H109.363V209.48C109.363 209.702 109.411 209.899 109.508 210.071C109.606 210.243 109.744 210.379 109.922 210.477C110.101 210.576 110.308 210.625 110.545 210.625C110.783 210.625 110.991 210.576 111.167 210.477C111.345 210.379 111.482 210.243 111.579 210.071C111.677 209.899 111.726 209.702 111.726 209.48V205.807ZM113.747 206.821V205.807H118.525V206.821H116.744V211.625H115.528V206.821H113.747ZM119.312 211.625V205.807H123.233V206.821H120.543V208.207H123.031V209.222H120.543V210.611H123.244V211.625H119.312ZM124.211 211.625V205.807H126.54C126.968 205.807 127.325 205.87 127.611 205.997C127.897 206.124 128.112 206.3 128.256 206.526C128.4 206.749 128.472 207.007 128.472 207.298C128.472 207.526 128.427 207.725 128.336 207.898C128.245 208.068 128.12 208.208 127.961 208.318C127.804 208.426 127.624 208.503 127.421 208.548V208.605C127.643 208.615 127.85 208.677 128.043 208.793C128.238 208.908 128.396 209.07 128.518 209.278C128.639 209.485 128.7 209.731 128.7 210.017C128.7 210.326 128.623 210.601 128.469 210.844C128.318 211.084 128.093 211.275 127.796 211.415C127.499 211.555 127.132 211.625 126.697 211.625H124.211ZM125.441 210.619H126.444C126.787 210.619 127.037 210.554 127.194 210.423C127.351 210.291 127.43 210.115 127.43 209.895C127.43 209.734 127.391 209.592 127.313 209.469C127.235 209.346 127.125 209.249 126.981 209.179C126.839 209.109 126.669 209.074 126.472 209.074H125.441V210.619ZM125.441 208.241H126.353C126.521 208.241 126.671 208.212 126.802 208.153C126.934 208.093 127.039 208.008 127.114 207.898C127.192 207.788 127.231 207.656 127.231 207.503C127.231 207.293 127.156 207.123 127.006 206.994C126.859 206.866 126.648 206.801 126.376 206.801H125.441V208.241ZM134.847 208.716C134.847 209.35 134.726 209.89 134.486 210.335C134.247 210.78 133.921 211.12 133.508 211.355C133.097 211.588 132.635 211.705 132.122 211.705C131.605 211.705 131.141 211.587 130.73 211.352C130.319 211.117 129.994 210.777 129.756 210.332C129.517 209.887 129.398 209.348 129.398 208.716C129.398 208.081 129.517 207.542 129.756 207.097C129.994 206.652 130.319 206.312 130.73 206.08C131.141 205.845 131.605 205.727 132.122 205.727C132.635 205.727 133.097 205.845 133.508 206.08C133.921 206.312 134.247 206.652 134.486 207.097C134.726 207.542 134.847 208.081 134.847 208.716ZM133.599 208.716C133.599 208.305 133.538 207.958 133.415 207.676C133.293 207.394 133.122 207.18 132.901 207.034C132.679 206.888 132.419 206.815 132.122 206.815C131.825 206.815 131.565 206.888 131.344 207.034C131.122 207.18 130.95 207.394 130.827 207.676C130.705 207.958 130.645 208.305 130.645 208.716C130.645 209.127 130.705 209.473 130.827 209.756C130.95 210.038 131.122 210.252 131.344 210.398C131.565 210.544 131.825 210.616 132.122 210.616C132.419 210.616 132.679 210.544 132.901 210.398C133.122 210.252 133.293 210.038 133.415 209.756C133.538 209.473 133.599 209.127 133.599 208.716ZM135.758 211.625V205.807H136.988V210.611H139.482V211.625H135.758Z" fill="#5F5F5F"/>
<path d="M363.201 76.8623V71.0441H365.496C365.938 71.0441 366.314 71.1284 366.624 71.297C366.935 71.4636 367.172 71.6956 367.335 71.993C367.499 72.2884 367.582 72.6293 367.582 73.0157C367.582 73.4021 367.498 73.743 367.332 74.0384C367.165 74.3339 366.924 74.564 366.607 74.7288C366.293 74.8936 365.912 74.9759 365.465 74.9759H364.002V73.9901H365.266C365.503 73.9901 365.698 73.9494 365.852 73.868C366.007 73.7846 366.122 73.6701 366.198 73.5242C366.276 73.3765 366.315 73.207 366.315 73.0157C366.315 72.8225 366.276 72.654 366.198 72.51C366.122 72.3642 366.007 72.2515 365.852 72.172C365.696 72.0905 365.499 72.0498 365.261 72.0498H364.431V76.8623H363.201ZM373.727 73.9532C373.727 74.5877 373.607 75.1275 373.366 75.5725C373.128 76.0176 372.802 76.3576 372.389 76.5924C371.978 76.8254 371.516 76.9419 371.003 76.9419C370.486 76.9419 370.022 76.8244 369.611 76.5896C369.2 76.3547 368.875 76.0148 368.636 75.5697C368.398 75.1246 368.278 74.5858 368.278 73.9532C368.278 73.3187 368.398 72.779 368.636 72.3339C368.875 71.8888 369.2 71.5498 369.611 71.3168C370.022 71.082 370.486 70.9646 371.003 70.9646C371.516 70.9646 371.978 71.082 372.389 71.3168C372.802 71.5498 373.128 71.8888 373.366 72.3339C373.607 72.779 373.727 73.3187 373.727 73.9532ZM372.48 73.9532C372.48 73.5422 372.419 73.1956 372.295 72.9134C372.174 72.6312 372.003 72.4172 371.781 72.2714C371.56 72.1256 371.3 72.0526 371.003 72.0526C370.706 72.0526 370.446 72.1256 370.224 72.2714C370.003 72.4172 369.831 72.6312 369.707 72.9134C369.586 73.1956 369.526 73.5422 369.526 73.9532C369.526 74.3642 369.586 74.7108 369.707 74.993C369.831 75.2752 370.003 75.4892 370.224 75.635C370.446 75.7809 370.706 75.8538 371.003 75.8538C371.3 75.8538 371.56 75.7809 371.781 75.635C372.003 75.4892 372.174 75.2752 372.295 74.993C372.419 74.7108 372.48 74.3642 372.48 73.9532ZM374.639 76.8623V71.0441H376.934C377.373 71.0441 377.748 71.1227 378.059 71.2799C378.371 71.4352 378.609 71.6559 378.772 71.9418C378.937 72.2259 379.019 72.5602 379.019 72.9447C379.019 73.331 378.936 73.6634 378.769 73.9418C378.603 74.2184 378.361 74.4305 378.045 74.5782C377.73 74.7259 377.35 74.7998 376.903 74.7998H375.366V73.8112H376.704C376.939 73.8112 377.134 73.779 377.289 73.7146C377.444 73.6502 377.56 73.5536 377.636 73.4248C377.713 73.296 377.752 73.136 377.752 72.9447C377.752 72.7515 377.713 72.5886 377.636 72.456C377.56 72.3235 377.443 72.2231 377.286 72.1549C377.131 72.0848 376.935 72.0498 376.698 72.0498H375.869V76.8623H374.639ZM377.781 74.2146L379.227 76.8623H377.869L376.454 74.2146H377.781ZM379.667 72.0583V71.0441H384.445V72.0583H382.664V76.8623H381.448V72.0583H379.667ZM385.524 76.8623H384.206L386.215 71.0441H387.8L389.805 76.8623H388.487L387.03 72.3737H386.984L385.524 76.8623ZM385.442 74.5754H388.555V75.5356H385.442V74.5754ZM390.506 76.8623V71.0441H392.801C393.241 71.0441 393.616 71.1227 393.926 71.2799C394.239 71.4352 394.476 71.6559 394.639 71.9418C394.804 72.2259 394.886 72.5602 394.886 72.9447C394.886 73.331 394.803 73.6634 394.636 73.9418C394.47 74.2184 394.228 74.4305 393.912 74.5782C393.598 74.7259 393.217 74.7998 392.77 74.7998H391.233V73.8112H392.571C392.806 73.8112 393.001 73.779 393.156 73.7146C393.312 73.6502 393.427 73.5536 393.503 73.4248C393.581 73.296 393.619 73.136 393.619 72.9447C393.619 72.7515 393.581 72.5886 393.503 72.456C393.427 72.3235 393.311 72.2231 393.153 72.1549C392.998 72.0848 392.802 72.0498 392.565 72.0498H391.736V76.8623H390.506ZM393.648 74.2146L395.094 76.8623H393.736L392.321 74.2146H393.648ZM396.986 71.0441V76.8623H395.756V71.0441H396.986ZM399.001 76.8623H397.683L399.691 71.0441H401.276L403.282 76.8623H401.964L400.506 72.3737H400.461L399.001 76.8623ZM398.918 74.5754H402.032V75.5356H398.918V74.5754Z" fill="#5F5F5F"/>
</g>
<defs>
<clipPath id="clip0_266_116">
<rect width="931" height="435" fill="white"/>
</clipPath>
</defs>
</svg>
