<svg width="122" height="119" viewBox="0 0 122 119" fill="none" xmlns="http://www.w3.org/2000/svg">
<path d="M0 3.71875C0 1.66494 1.70691 0 3.8125 0H26.6875C28.7931 0 30.5 1.66494 30.5 3.71875C30.5 5.77256 28.7931 7.4375 26.6875 7.4375H7.625V26.0312C7.625 28.0851 5.91809 29.75 3.8125 29.75C1.70691 29.75 0 28.0851 0 26.0312V3.71875Z" fill="#338A5F"/>
<path d="M91.5 3.71875C91.5 1.66494 93.2069 0 95.3125 0H118.188C120.293 0 122 1.66494 122 3.71875V26.0312C122 28.0851 120.293 29.75 118.188 29.75C116.082 29.75 114.375 28.0851 114.375 26.0312V7.4375H95.3125C93.2069 7.4375 91.5 5.77256 91.5 3.71875Z" fill="#338A5F"/>
<path d="M3.8125 89.25C5.91809 89.25 7.625 90.9149 7.625 92.9688V111.562H26.6875C28.7931 111.562 30.5 113.227 30.5 115.281C30.5 117.335 28.7931 119 26.6875 119H3.8125C1.70691 119 0 117.335 0 115.281V92.9688C0 90.9149 1.70691 89.25 3.8125 89.25Z" fill="#338A5F"/>
<path d="M118.188 89.25C120.293 89.25 122 90.9149 122 92.9688V115.281C122 117.335 120.293 119 118.188 119H95.3125C93.2069 119 91.5 117.335 91.5 115.281C91.5 113.227 93.2069 111.562 95.3125 111.562H114.375V92.9688C114.375 90.9149 116.082 89.25 118.188 89.25Z" fill="#338A5F"/>
<path d="M30.5 29.75H38.125V37.1875H30.5V29.75Z" fill="#338A5F"/>
<path d="M53.375 14.875H15.25V52.0625H53.375V14.875ZM22.875 22.3125H45.75V44.625H22.875V22.3125Z" fill="#338A5F"/>
<path d="M38.125 81.8125H30.5V89.25H38.125V81.8125Z" fill="#338A5F"/>
<path d="M53.375 66.9375H15.25V104.125H53.375V66.9375ZM22.875 74.375H45.75V96.6875H22.875V74.375Z" fill="#338A5F"/>
<path d="M83.875 29.75H91.5V37.1875H83.875V29.75Z" fill="#338A5F"/>
<path d="M68.625 14.875H106.75V52.0625H68.625V14.875ZM76.25 22.3125V44.625H99.125V22.3125H76.25Z" fill="#338A5F"/>
<path d="M61 59.5V74.375H68.625V81.8125H61V89.25H76.25V74.375H83.875V89.25H91.5V81.8125H106.75V74.375H83.875V59.5H61ZM76.25 74.375H68.625V66.9375H76.25V74.375Z" fill="#338A5F"/>
<path d="M106.75 89.25H99.125V96.6875H83.875V104.125H106.75V89.25Z" fill="#338A5F"/>
<path d="M76.25 104.125V96.6875H61V104.125H76.25Z" fill="#338A5F"/>
<path d="M91.5 66.9375H106.75V59.5H91.5V66.9375Z" fill="#338A5F"/>
</svg>
