<svg width="911" height="426" viewBox="0 0 911 426" fill="none" xmlns="http://www.w3.org/2000/svg">
<g clip-path="url(#clip0_348_70)">
<path d="M10.2726 70.1718C-22.3424 137.271 97.1255 113.526 138.518 105.893C205.657 93.5112 346.463 150.453 349.553 86.8753C352.562 24.9878 267.778 44.8873 220.015 52.3632C151.476 63.0907 72.4349 56.9533 10.2726 70.1718V70.1718Z" fill="#246884" fill-opacity="0.7"/>
<path d="M200.894 127.889C184.921 160.14 199.128 182.655 203.672 233.615C206.783 268.503 205.505 288.049 250.078 273.038C287.186 260.541 371.319 289.924 365.229 258.174C356.022 210.177 398.136 91.5974 342.05 109.556C300.945 122.718 292.046 118.733 230.823 109.78C217.737 107.866 207.701 118.295 200.894 127.889V127.889Z" fill="#E4B95A" fill-opacity="0.7"/>
<path d="M371.829 198.341C390.271 264.198 322.236 406.074 391.238 411.035C455.97 415.689 504.065 435.169 472.488 349.418C440.148 261.596 581.187 306.234 635.045 346.236C691.756 388.356 718.716 354.602 695.959 298.625C685.382 272.61 712.337 148.631 675.878 157.683C595.384 177.669 557.653 142.901 466.098 140.811C438.323 140.178 372.92 162.554 371.829 198.341V198.341Z" fill="#90CFDE" fill-opacity="0.7"/>
<path d="M1.03942 277.861C1.29376 347.489 -17.2542 423.669 92.2956 409.364C177.915 398.184 364.477 462.289 357.48 390.409C350.847 322.263 394.118 270.575 297.025 273.389C265.547 274.302 250.842 275.04 229.605 276.637C178.901 280.452 235.15 207.602 158.489 214.118C113.638 217.93 7.11035 181.638 3.12555 244.794C2.43013 255.816 1.7348 266.839 1.03942 277.861V277.861Z" fill="#C65DC6" fill-opacity="0.7"/>
<path d="M433.021 35.0237C350.069 148.939 557.44 116.549 595.982 101.523C744.051 43.7962 677.079 244.069 710.407 334.207C746.653 432.239 906.751 468.863 910.767 339.234C913.705 244.419 887.66 237.238 899.987 115.825C906.942 47.3157 907.588 -0.137947 837.828 3.17458C704.417 9.5096 554.766 -22.2423 433.021 35.0237Z" fill="#EA8C94" fill-opacity="0.7"/>
<path d="M212.075 78.3256L215.337 217.491L216.935 221.684L216.94 221.682L217.133 222.205L234.332 267.322L208.892 279.378L189.383 298.269L166.036 304.716V304.846L159.798 311.67L135.682 288.554L135.966 247.028L218.073 224.743L217.133 222.205L216.935 221.684L135.865 243.023H131.144H23.6413V247.028L62.7943 312.99L7.92322 312.909V318.479H166.036V308.692L189.547 302.179L189.715 317.349L180.753 318.479L180.314 385.36H208.892V317.349H193.406V300.949L223.719 292.859L251.395 291.187L251.398 387.282H261.191L259.076 283.737L356.989 284.657L357.484 415.831L367.061 415.266L399.684 353.406H422.282L423.422 326.249H395.614L395.068 349.311L361.781 412.846V281.654L367.342 264.572L379.205 250.15L425.278 250.091L470.535 302.993L472.236 423.94L643.558 424.016L643.727 371.999L680.271 371.998L680.722 408.465H734.017V393.787L734.019 363.968L691.432 363.969V318.006V281.973L744.457 282.439L748.731 273.796L848.83 275.158L849.737 133.162L857.939 133.222L858.116 100.431L704.061 102.321L675.155 102.885L675.414 140.809H633.653L633.663 133.382L620.308 133.45L620.598 141.482L549.464 140.808L535.08 124.794H435.556C435.556 124.794 412.618 119.759 407.121 108.504C400.472 94.8895 385.02 101.313 384.44 116.959C384.013 128.471 383.289 147.733 386.376 152.321C390.87 159 395.951 159.353 395.99 159.086L396.67 191.918L370.369 191.727C376.005 151.284 374.666 115.339 375.873 78.5621C321.826 78.5606 266.122 78.3279 212.075 78.3256V78.3256ZM219.053 88.5621L368.903 88.8895C366.436 119.775 372.468 147.662 365.008 183.731C337.879 194.305 330.045 195.454 313.123 203.922L306.332 197.485L302.854 201.01L309.689 206.866L294.799 224.083L290.761 212.951L309.689 194.161L293.582 179.599L273.312 197.862L288.093 213.985L293.165 226.18L274.518 249.404L239.534 263.698L222.153 216.625L219.053 88.5621ZM844.078 120.476V133.118V193.055L808.199 193.483L808.552 198.756L844.078 198.517L843.974 272.121L747.067 271.493L743.129 280.031L691.432 279.17V252.582V211.401L707.076 211.399L705.904 189.046L692.772 188.58L691.432 124.796H704.062L844.078 120.476ZM517.225 135.093L518.329 152.318H491.998V133.486L517.225 135.093ZM555.135 147.121H675.856L677.834 308.927L642.949 246.971L594.077 247.974L581.431 234.955L581.428 152.321H559.804L555.135 147.121ZM364.558 186.116C364.156 187.877 363.762 189.632 363.295 191.436L365.902 191.693L363.405 190.973L363.819 238.515L295.283 238.437L279.675 246.126L293.561 228.858C315.865 200.593 324.728 200.444 364.558 186.116H364.558ZM369.666 194.639H396.726L396.954 205.604L428.994 205.92L429.692 228.857H444.595L445.106 236.248L491.998 236.659V246.944L425.964 245.666L425.815 245.509L378.587 244.937L369.431 238.321L369.666 194.639ZM576.876 236.273L586.032 246.509L558.407 292.702L542.42 262.083L539.688 236.637L576.876 236.273ZM529.937 236.732L530.549 247.059L497.867 247.365V237.045L529.937 236.732ZM296.867 243.023H367.921L374.091 249.404L362.991 261.452L358.358 277.992H251.397V287.075L225.1 288.405L196.481 296.309L211.747 282.109L296.867 243.023ZM131.145 247.028V284.204V290.444L154.005 313.22L93.2324 312.667L131.145 247.028ZM430.421 250.333L530.877 252.575V252.58L531.097 252.991V295.619H473.661L430.421 250.333ZM537.216 264.403L553.952 295.619H538.362L537.216 264.403ZM632.254 279.476L665.227 302.993L678 322.505L678.377 353.406H660.655L639.599 349.311L643.035 308.69L632.254 279.476Z" stroke="#5F5F5F" stroke-width="1.13386" stroke-linecap="round"/>
<path d="M439.934 126.72L440.513 161.543L374.905 161.894L375.291 175.839L381.584 175.695L381.801 194.716L415.148 194.778L415.437 232.84L556.707 232.303L555.164 162.554L454.232 161.873L453.654 126.988L439.934 126.72Z" fill="#BCC4C4"/>
<path d="M553.375 27.6257L554.291 142.699L602.876 143.05L602.562 135.19L643.504 134.798L642.66 27.5018L553.375 27.6257Z" fill="#BCC4C4"/>
<path d="M692.92 80.6444L694.825 145.917L804.87 145.339L804.968 154.643L827.199 154.788L826.596 123.533L842.872 123.142L841.69 80.3554L692.92 80.6444Z" fill="#BCC4C4"/>
<path d="M692.92 171.95V225.01L806.63 224.329L803.833 170.877L692.92 171.95Z" fill="#BCC4C4"/>
<path d="M848.898 305.782L860.11 305.739L861.074 320.469L849.356 320.097L848.898 305.782Z" fill="#BCC4C4"/>
<path d="M786.039 323.998L786.955 370.065L679.417 370.622L679.392 323.751L786.039 323.998Z" fill="#BCC4C4"/>
<path d="M704.469 378.832L704.108 400.761L745.893 401.029L745.556 378.811L704.469 378.832Z" fill="#BCC4C4"/>
<path d="M460.805 366.659L460.375 416L524.954 415.622L525.267 385.906L503.077 385.449L492.833 366.734L460.805 366.659Z" fill="#BCC4C4"/>
<path d="M564.164 355.674L561.584 416H592.399L594.062 356.004L564.164 355.674Z" fill="#BCC4C4"/>
<path d="M565.852 314.25L541.258 302.974L566.937 257.898L621.984 257.031L651.328 308.359L649.158 359.851L622.418 355.674L624.419 316.28L606.745 286.429L582.031 285.253L565.852 314.25Z" fill="#BCC4C4"/>
<path d="M492.821 337.085V355.674H546.788L546.33 337.642L492.821 337.085Z" fill="#BCC4C4"/>
<path d="M503.386 359.85L503.748 374.549L541.258 374.593V359.853L503.386 359.85Z" fill="#BCC4C4"/>
<path d="M452.487 314.25L452.198 331.928L471.777 332.155L472.09 314.25H452.487Z" fill="#BCC4C4"/>
<path d="M229.057 314.25H261.415L261.945 373.703H229.539L229.057 314.25Z" fill="#BCC4C4"/>
<path d="M280.608 314.25H311.519L311.493 373.703H280.63L280.608 314.25Z" fill="#BCC4C4"/>
<path d="M-51.9508 324.316L-52.6259 414.86L116.71 415.499L116.517 324.233L82.9184 324.248L-51.9508 324.316Z" fill="#BCC4C4"/>
<path d="M197.326 392.435L176.59 392.397L176.64 358.605L162.68 358.853L162.606 338.986L176.567 338.491L176.618 314.253L196.703 314.253L197.326 392.435Z" fill="#BCC4C4"/>
<path d="M-35.601 251.596L-35.7937 314.253H6.11243L6.13781 251.37L-35.601 251.596Z" fill="#BCC4C4"/>
<path d="M10.1388 254.052L9.99426 304.615H32.0425V253.845L10.1388 254.052Z" fill="#BCC4C4"/>
<path d="M39.2173 251.37L38.735 314.253H79.0978L79.3386 251.37H39.2173Z" fill="#BCC4C4"/>
<path d="M132.814 261.701C136.655 252.417 150.23 251.787 154.672 257.316C162.086 266.546 159.816 270.984 159.37 274.24C158.058 283.812 146.111 285.193 138.044 279.834C133.991 277.142 130.317 267.735 132.814 261.701V261.701Z" fill="#BCC4C4"/>
<path d="M390.849 85.2758H301.661L301.926 56.7551L390.464 56.8377L390.849 85.2758Z" fill="#BCC4C4"/>
<path d="M170.672 220.364L166.861 78.6061L-60 78.8676L-56.5813 219.403L170.672 220.364Z" fill="#BCC4C4"/>
<path d="M10.2726 70.1718C-22.3424 137.271 97.1255 113.526 138.518 105.893C205.657 93.5112 346.463 150.453 349.553 86.8753C352.562 24.9878 267.778 44.8873 220.015 52.3632C151.476 63.0907 72.4349 56.9533 10.2726 70.1718V70.1718Z" fill="#246884" fill-opacity="0.7"/>
<path d="M200.894 127.889C184.921 160.14 199.128 182.655 203.672 233.615C206.783 268.503 205.505 288.049 250.078 273.038C287.186 260.541 371.319 289.924 365.229 258.174C356.022 210.177 398.136 91.5974 342.05 109.556C300.945 122.718 292.046 118.733 230.823 109.779C217.737 107.866 207.701 118.295 200.894 127.889V127.889Z" fill="#E4B95A" fill-opacity="0.7"/>
<path d="M371.829 198.341C390.27 264.198 322.236 406.074 391.238 411.035C455.97 415.689 504.065 435.169 472.488 349.418C440.148 261.596 581.187 306.234 635.045 346.236C691.755 388.356 718.716 354.602 695.959 298.625C685.382 272.61 712.337 148.631 675.878 157.683C595.384 177.669 557.652 142.901 466.097 140.811C438.323 140.178 372.919 162.554 371.829 198.341V198.341Z" fill="#90CFDE" fill-opacity="0.7"/>
<path d="M1.03942 277.861C1.29376 347.489 -17.2542 423.669 92.2956 409.364C177.915 398.184 364.477 462.289 357.48 390.409C350.847 322.263 394.118 270.575 297.025 273.389C265.547 274.302 250.842 275.04 229.605 276.637C178.901 280.452 235.15 207.602 158.489 214.118C113.638 217.93 7.11035 181.638 3.12555 244.794C2.43013 255.816 1.7348 266.839 1.03942 277.861V277.861Z" fill="#C65DC6" fill-opacity="0.7"/>
<path d="M433.021 35.0237C350.069 148.939 557.44 116.549 595.982 101.523C744.051 43.7962 677.079 244.069 710.407 334.207C746.653 432.239 906.751 468.863 910.767 339.234C913.705 244.419 887.66 237.238 899.987 115.825C906.942 47.3157 907.588 -0.137947 837.828 3.17458C704.417 9.5096 554.766 -22.2423 433.021 35.0237Z" fill="#EA8C94" fill-opacity="0.7"/>
<path d="M61.5172 395.721C61.4874 395.617 61.4455 395.525 61.3915 395.446C61.3375 395.365 61.2715 395.297 61.1934 395.241C61.1167 395.184 61.0286 395.141 60.9292 395.111C60.8312 395.081 60.7225 395.067 60.6032 395.067C60.3802 395.067 60.1841 395.122 60.0151 395.233C59.8475 395.344 59.7168 395.505 59.6231 395.716C59.5293 395.927 59.4824 396.184 59.4824 396.488C59.4824 396.792 59.5286 397.05 59.6209 397.263C59.7133 397.476 59.8439 397.639 60.013 397.751C60.182 397.862 60.3816 397.917 60.6117 397.917C60.8205 397.917 60.9988 397.881 61.1465 397.807C61.2956 397.731 61.4093 397.626 61.4874 397.489C61.567 397.353 61.6067 397.192 61.6067 397.006L61.7942 397.033H60.6692V396.339H62.4952V396.888C62.4952 397.272 62.4143 397.601 62.2523 397.877C62.0904 398.151 61.8674 398.363 61.5833 398.512C61.2992 398.66 60.9739 398.733 60.6074 398.733C60.1983 398.733 59.839 398.643 59.5293 398.463C59.2196 398.281 58.9782 398.023 58.8049 397.689C58.633 397.354 58.5471 396.956 58.5471 396.496C58.5471 396.143 58.5982 395.827 58.7005 395.55C58.8042 395.272 58.9491 395.036 59.1351 394.843C59.3212 394.65 59.5378 394.503 59.785 394.402C60.0321 394.301 60.2999 394.251 60.5883 394.251C60.8354 394.251 61.0655 394.287 61.2786 394.359C61.4917 394.43 61.6806 394.531 61.8454 394.662C62.0116 394.792 62.1472 394.948 62.2523 395.128C62.3574 395.307 62.4249 395.505 62.4547 395.721H61.5172ZM64.1108 394.31V398.674H63.1882V394.31H64.1108ZM68.5197 394.31V398.674H67.7228L65.8244 395.927H65.7924V398.674H64.8699V394.31H65.6795L67.563 397.055H67.6014V394.31H68.5197ZM70.0341 398.674H69.0455L70.5519 394.31H71.7408L73.245 398.674H72.2564L71.1634 395.307H71.1293L70.0341 398.674ZM69.9723 396.959H72.3075V397.679H69.9723V396.959ZM70.8203 393.888L71.272 392.919H72.1115L71.4617 393.888H70.8203ZM76.0378 395.565C76.0208 395.393 75.9476 395.26 75.8184 395.165C75.6891 395.069 75.5137 395.022 75.2921 395.022C75.1415 395.022 75.0144 395.043 74.9107 395.086C74.807 395.127 74.7275 395.184 74.6721 395.258C74.6181 395.332 74.5911 395.416 74.5911 395.51C74.5883 395.588 74.6046 395.656 74.6401 395.714C74.677 395.773 74.7275 395.823 74.7914 395.866C74.8553 395.907 74.9292 395.943 75.013 395.974C75.0968 396.004 75.1863 396.03 75.2814 396.051L75.6735 396.145C75.8638 396.187 76.0385 396.244 76.1976 396.315C76.3567 396.386 76.4945 396.474 76.611 396.577C76.7275 396.681 76.8177 396.803 76.8816 396.944C76.9469 397.084 76.9803 397.246 76.9817 397.427C76.9803 397.694 76.9121 397.926 76.7772 398.122C76.6437 398.317 76.4505 398.468 76.1976 398.576C75.9462 398.682 75.6429 398.736 75.2878 398.736C74.9356 398.736 74.6287 398.682 74.3674 398.574C74.1074 398.466 73.9043 398.306 73.758 398.094C73.6131 397.881 73.5371 397.618 73.53 397.304H74.4228C74.4327 397.45 74.4746 397.572 74.5485 397.67C74.6238 397.767 74.7239 397.84 74.8489 397.89C74.9753 397.938 75.1181 397.962 75.2772 397.962C75.4334 397.962 75.5691 397.939 75.6841 397.894C75.8006 397.849 75.8908 397.785 75.9547 397.704C76.0187 397.623 76.0506 397.53 76.0506 397.425C76.0506 397.327 76.0215 397.245 75.9633 397.178C75.9064 397.111 75.8226 397.055 75.7118 397.008C75.6025 396.961 75.4682 396.918 75.3091 396.88L74.834 396.76C74.4661 396.671 74.1756 396.531 73.9625 396.341C73.7495 396.15 73.6437 395.894 73.6451 395.572C73.6437 395.307 73.714 395.077 73.856 394.879C73.9995 394.682 74.1962 394.528 74.4462 394.417C74.6962 394.306 74.9803 394.251 75.2985 394.251C75.6223 394.251 75.905 394.306 76.1465 394.417C76.3894 394.528 76.5783 394.682 76.7133 394.879C76.8482 395.077 76.9178 395.305 76.9221 395.565H76.0378ZM78.5249 394.31V398.674H77.6023V394.31H78.5249ZM83.2939 396.492C83.2939 396.968 83.2037 397.373 83.0233 397.706C82.8443 398.04 82.6 398.295 82.2903 398.471C81.9821 398.646 81.6355 398.733 81.2505 398.733C80.8628 398.733 80.5147 398.645 80.2065 398.469C79.8983 398.293 79.6547 398.038 79.4757 397.704C79.2967 397.371 79.2072 396.966 79.2072 396.492C79.2072 396.016 79.2967 395.611 79.4757 395.278C79.6547 394.944 79.8983 394.689 80.2065 394.515C80.5147 394.339 80.8628 394.251 81.2505 394.251C81.6355 394.251 81.9821 394.339 82.2903 394.515C82.6 394.689 82.8443 394.944 83.0233 395.278C83.2037 395.611 83.2939 396.016 83.2939 396.492ZM82.3585 396.492C82.3585 396.184 82.3123 395.924 82.22 395.712C82.1291 395.501 82.0005 395.34 81.8344 395.231C81.6682 395.121 81.4736 395.067 81.2505 395.067C81.0275 395.067 80.8329 395.121 80.6667 395.231C80.5005 395.34 80.3713 395.501 80.279 395.712C80.188 395.924 80.1426 396.184 80.1426 396.492C80.1426 396.8 80.188 397.06 80.279 397.272C80.3713 397.483 80.5005 397.644 80.6667 397.753C80.8329 397.863 81.0275 397.917 81.2505 397.917C81.4736 397.917 81.6682 397.863 81.8344 397.753C82.0005 397.644 82.1291 397.483 82.22 397.272C82.3123 397.06 82.3585 396.8 82.3585 396.492Z" fill="#5F5F5F"/>
<path d="M598.306 123.285V118.921H600.053C600.374 118.921 600.641 118.969 600.856 119.064C601.07 119.159 601.232 119.291 601.34 119.461C601.448 119.628 601.502 119.821 601.502 120.04C601.502 120.211 601.467 120.36 601.399 120.49C601.331 120.617 601.237 120.723 601.118 120.805C601 120.886 600.865 120.943 600.713 120.978V121.02C600.879 121.027 601.035 121.074 601.18 121.161C601.326 121.247 601.445 121.369 601.536 121.525C601.627 121.68 601.672 121.865 601.672 122.079C601.672 122.311 601.614 122.517 601.499 122.699C601.386 122.88 601.217 123.022 600.994 123.127C600.771 123.233 600.497 123.285 600.17 123.285H598.306ZM599.228 122.531H599.98C600.237 122.531 600.425 122.482 600.543 122.384C600.661 122.284 600.72 122.152 600.72 121.988C600.72 121.867 600.69 121.76 600.632 121.668C600.574 121.576 600.491 121.503 600.383 121.451C600.276 121.398 600.149 121.372 600.002 121.372H599.228V122.531ZM599.228 120.747H599.912C600.038 120.747 600.151 120.725 600.249 120.681C600.348 120.636 600.426 120.572 600.483 120.49C600.541 120.407 600.57 120.309 600.57 120.193C600.57 120.036 600.514 119.909 600.402 119.812C600.291 119.715 600.134 119.667 599.929 119.667H599.228V120.747ZM602.786 123.34C602.645 123.34 602.524 123.291 602.424 123.191C602.324 123.09 602.274 122.97 602.274 122.829C602.274 122.69 602.324 122.571 602.424 122.471C602.524 122.372 602.645 122.322 602.786 122.322C602.922 122.322 603.042 122.372 603.144 122.471C603.246 122.571 603.297 122.69 603.297 122.829C603.297 122.923 603.273 123.009 603.225 123.087C603.178 123.164 603.116 123.225 603.039 123.272C602.963 123.318 602.878 123.34 602.786 123.34ZM605.995 123.285H605.007L606.513 118.921H607.702L609.206 123.285H608.217L607.124 119.919H607.09L605.995 123.285ZM605.933 121.57H608.269V122.29H605.933V121.57ZM611.278 123.285H609.731V118.921H611.291C611.73 118.921 612.108 119.009 612.424 119.184C612.741 119.357 612.985 119.606 613.155 119.931C613.327 120.257 613.413 120.646 613.413 121.099C613.413 121.554 613.327 121.944 613.155 122.271C612.985 122.598 612.74 122.848 612.42 123.023C612.102 123.198 611.721 123.285 611.278 123.285ZM610.654 122.495H611.24C611.513 122.495 611.742 122.446 611.928 122.35C612.116 122.252 612.256 122.1 612.35 121.896C612.445 121.69 612.493 121.424 612.493 121.099C612.493 120.777 612.445 120.513 612.35 120.309C612.256 120.104 612.116 119.953 611.93 119.857C611.744 119.76 611.515 119.712 611.242 119.712H610.654V122.495ZM614.097 118.921H615.234L616.436 121.853H616.487L617.689 118.921H618.827V123.285H617.932V120.445H617.896L616.766 123.264H616.157L615.028 120.434H614.991V123.285H614.097V118.921Z" fill="#5F5F5F"/>
<path d="M735.122 133.05V128.686H736.869C737.19 128.686 737.458 128.734 737.672 128.829C737.887 128.924 738.048 129.056 738.156 129.225C738.264 129.393 738.318 129.586 738.318 129.805C738.318 129.975 738.284 130.125 738.216 130.254C738.148 130.382 738.054 130.487 737.934 130.57C737.817 130.651 737.682 130.708 737.53 130.742V130.785C737.696 130.792 737.851 130.839 737.996 130.926C738.143 131.012 738.261 131.134 738.352 131.29C738.443 131.445 738.488 131.629 738.488 131.844C738.488 132.075 738.431 132.282 738.316 132.464C738.202 132.644 738.034 132.787 737.811 132.892C737.588 132.997 737.313 133.05 736.986 133.05H735.122ZM736.045 132.296H736.797C737.054 132.296 737.241 132.247 737.359 132.149C737.477 132.049 737.536 131.917 737.536 131.752C737.536 131.632 737.507 131.525 737.449 131.433C737.39 131.34 737.307 131.268 737.199 131.215C737.093 131.163 736.966 131.137 736.818 131.137H736.045V132.296ZM736.045 130.512H736.728C736.855 130.512 736.967 130.49 737.065 130.446C737.165 130.401 737.243 130.337 737.299 130.254C737.358 130.172 737.387 130.073 737.387 129.958C737.387 129.801 737.331 129.673 737.219 129.577C737.108 129.48 736.95 129.432 736.746 129.432H736.045V130.512ZM739.602 133.105C739.462 133.105 739.341 133.056 739.24 132.956C739.141 132.855 739.091 132.735 739.091 132.594C739.091 132.455 739.141 132.335 739.24 132.236C739.341 132.137 739.462 132.087 739.602 132.087C739.739 132.087 739.858 132.137 739.96 132.236C740.062 132.335 740.114 132.455 740.114 132.594C740.114 132.688 740.089 132.774 740.041 132.852C739.994 132.928 739.932 132.99 739.856 133.037C739.779 133.083 739.695 133.105 739.602 133.105ZM743.606 133.05H742.059V128.686H743.619C744.058 128.686 744.436 128.774 744.753 128.948C745.069 129.122 745.313 129.371 745.483 129.696C745.655 130.021 745.741 130.411 745.741 130.864C745.741 131.318 745.655 131.709 745.483 132.036C745.313 132.362 745.068 132.613 744.748 132.788C744.43 132.963 744.049 133.05 743.606 133.05ZM742.982 132.259H743.568C743.841 132.259 744.07 132.211 744.256 132.114C744.444 132.016 744.584 131.865 744.678 131.661C744.773 131.455 744.821 131.189 744.821 130.864C744.821 130.541 744.773 130.278 744.678 130.073C744.584 129.869 744.444 129.718 744.258 129.622C744.072 129.525 743.843 129.477 743.57 129.477H742.982V132.259ZM746.425 133.05V128.686H749.365V129.447H747.347V130.487H749.214V131.247H747.347V132.289H749.374V133.05H746.425ZM751.487 133.05V128.686H754.428V129.447H752.41V130.487H754.276V131.247H752.41V132.289H754.436V133.05H751.487ZM758.811 128.686V133.05H758.014L756.116 130.303H756.084V133.05H755.161V128.686H755.971L757.854 131.431H757.893V128.686H758.811ZM761.94 129.941C761.923 129.769 761.85 129.636 761.721 129.541C761.592 129.445 761.416 129.398 761.195 129.398C761.044 129.398 760.917 129.419 760.813 129.462C760.709 129.503 760.63 129.561 760.575 129.634C760.521 129.708 760.494 129.792 760.494 129.886C760.491 129.964 760.507 130.032 760.543 130.09C760.58 130.149 760.63 130.199 760.694 130.242C760.758 130.283 760.832 130.319 760.915 130.35C760.999 130.38 761.089 130.406 761.184 130.427L761.576 130.521C761.766 130.563 761.941 130.62 762.1 130.691C762.259 130.762 762.397 130.85 762.513 130.953C762.63 131.057 762.72 131.179 762.784 131.32C762.849 131.46 762.883 131.622 762.884 131.803C762.883 132.07 762.815 132.302 762.68 132.498C762.546 132.693 762.353 132.844 762.1 132.952C761.849 133.058 761.545 133.112 761.19 133.112C760.838 133.112 760.531 133.058 760.27 132.95C760.01 132.842 759.807 132.682 759.66 132.47C759.516 132.257 759.44 131.994 759.432 131.68H760.325C760.335 131.826 760.377 131.948 760.451 132.046C760.526 132.143 760.626 132.216 760.751 132.266C760.878 132.314 761.021 132.338 761.18 132.338C761.336 132.338 761.472 132.315 761.587 132.27C761.703 132.225 761.793 132.161 761.857 132.08C761.921 131.999 761.953 131.906 761.953 131.801C761.953 131.703 761.924 131.621 761.866 131.554C761.809 131.487 761.725 131.431 761.614 131.384C761.505 131.337 761.371 131.294 761.212 131.256L760.736 131.137C760.369 131.047 760.078 130.907 759.865 130.717C759.652 130.526 759.546 130.27 759.548 129.948C759.546 129.683 759.616 129.453 759.758 129.255C759.902 129.058 760.099 128.904 760.349 128.793C760.599 128.682 760.883 128.627 761.201 128.627C761.525 128.627 761.807 128.682 762.049 128.793C762.292 128.904 762.481 129.058 762.616 129.255C762.751 129.453 762.82 129.681 762.825 129.941H761.94ZM764.427 128.686V133.05H763.505V128.686H764.427ZM768.836 128.686V133.05H768.039L766.141 130.303H766.109V133.05H765.186V128.686H765.996L767.88 131.431H767.918V128.686H768.836ZM773.608 130.868C773.608 131.344 773.518 131.749 773.338 132.083C773.159 132.416 772.915 132.671 772.605 132.847C772.297 133.022 771.95 133.11 771.565 133.11C771.177 133.11 770.829 133.021 770.521 132.845C770.213 132.669 769.969 132.414 769.79 132.08C769.611 131.747 769.522 131.342 769.522 130.868C769.522 130.392 769.611 129.987 769.79 129.654C769.969 129.32 770.213 129.065 770.521 128.891C770.829 128.715 771.177 128.627 771.565 128.627C771.95 128.627 772.297 128.715 772.605 128.891C772.915 129.065 773.159 129.32 773.338 129.654C773.518 129.987 773.608 130.392 773.608 130.868ZM772.673 130.868C772.673 130.56 772.627 130.3 772.535 130.088C772.444 129.877 772.315 129.716 772.149 129.607C771.983 129.497 771.788 129.443 771.565 129.443C771.342 129.443 771.148 129.497 770.981 129.607C770.815 129.716 770.686 129.877 770.594 130.088C770.503 130.3 770.457 130.56 770.457 130.868C770.457 131.176 770.503 131.436 770.594 131.648C770.686 131.86 770.815 132.02 770.981 132.129C771.148 132.239 771.342 132.293 771.565 132.293C771.788 132.293 771.983 132.239 772.149 132.129C772.315 132.02 772.444 131.86 772.535 131.648C772.627 131.436 772.673 131.176 772.673 130.868Z" fill="#5F5F5F"/>
<path d="M60.8623 202.13H59.9291C59.9121 202.009 59.8773 201.902 59.8247 201.808C59.7721 201.713 59.7047 201.632 59.6223 201.565C59.5399 201.499 59.4447 201.448 59.3368 201.412C59.2302 201.377 59.1145 201.359 58.9895 201.359C58.7636 201.359 58.5669 201.415 58.3993 201.527C58.2317 201.638 58.1017 201.8 58.0094 202.013C57.917 202.225 57.8709 202.482 57.8709 202.784C57.8709 203.095 57.917 203.357 58.0094 203.568C58.1031 203.78 58.2338 203.94 58.4014 204.048C58.569 204.156 58.7629 204.21 58.9831 204.21C59.1067 204.21 59.221 204.193 59.3261 204.161C59.4327 204.128 59.5271 204.08 59.6095 204.018C59.6919 203.954 59.7601 203.877 59.814 203.786C59.8694 203.695 59.9078 203.591 59.9291 203.475L60.8623 203.479C60.8382 203.679 60.7778 203.872 60.6812 204.058C60.5861 204.243 60.4575 204.409 60.2956 204.555C60.1351 204.7 59.9433 204.815 59.7203 204.9C59.4987 204.984 59.248 205.026 58.9682 205.026C58.579 205.026 58.2309 204.938 57.9241 204.762C57.6187 204.585 57.3773 204.33 57.1997 203.997C57.0236 203.663 56.9355 203.259 56.9355 202.784C56.9355 202.308 57.025 201.904 57.204 201.57C57.3829 201.236 57.6258 200.982 57.9327 200.807C58.2395 200.631 58.5846 200.543 58.9682 200.543C59.221 200.543 59.4554 200.578 59.6713 200.649C59.8886 200.72 60.0811 200.824 60.2487 200.96C60.4163 201.095 60.5527 201.261 60.6578 201.457C60.7643 201.653 60.8325 201.877 60.8623 202.13ZM62.194 204.966H61.2054L62.7118 200.602H63.9007L65.405 204.966H64.4163L63.3233 201.6H63.2892L62.194 204.966ZM62.1322 203.251H64.4675V203.971H62.1322V203.251ZM65.9302 200.602H67.0679L68.2697 203.534H68.3208L69.5225 200.602H70.6603V204.966H69.7654V202.126H69.7292L68.5999 204.945H67.9905L66.8613 202.115H66.8251V204.966H65.9302V200.602ZM71.4204 204.966V200.602H73.142C73.473 200.602 73.7549 200.666 73.9879 200.792C74.2208 200.917 74.3984 201.091 74.5205 201.314C74.6441 201.536 74.7059 201.791 74.7059 202.081C74.7059 202.371 74.6434 202.627 74.5184 202.848C74.3934 203.07 74.2123 203.242 73.9751 203.366C73.7393 203.49 73.4538 203.551 73.1186 203.551H72.0213V202.812H72.9694C73.147 202.812 73.2933 202.781 73.4083 202.72C73.5248 202.658 73.6115 202.572 73.6683 202.463C73.7265 202.352 73.7556 202.225 73.7556 202.081C73.7556 201.936 73.7265 201.81 73.6683 201.702C73.6115 201.592 73.5248 201.508 73.4083 201.448C73.2918 201.387 73.1441 201.357 72.9651 201.357H72.343V204.966H71.4204ZM79.3151 202.784C79.3151 203.26 79.2249 203.665 79.0445 203.999C78.8655 204.333 78.6212 204.588 78.3116 204.764C78.0033 204.938 77.6567 205.026 77.2718 205.026C76.884 205.026 76.536 204.938 76.2277 204.762C75.9195 204.585 75.6759 204.33 75.4969 203.997C75.3179 203.663 75.2285 203.259 75.2285 202.784C75.2285 202.308 75.3179 201.904 75.4969 201.57C75.6759 201.236 75.9195 200.982 76.2277 200.807C76.536 200.631 76.884 200.543 77.2718 200.543C77.6567 200.543 78.0033 200.631 78.3116 200.807C78.6212 200.982 78.8655 201.236 79.0445 201.57C79.2249 201.904 79.3151 202.308 79.3151 202.784ZM78.3797 202.784C78.3797 202.476 78.3336 202.216 78.2412 202.004C78.1503 201.793 78.0218 201.632 77.8556 201.523C77.6894 201.414 77.4948 201.359 77.2718 201.359C77.0488 201.359 76.8542 201.414 76.688 201.523C76.5218 201.632 76.3925 201.793 76.3002 202.004C76.2093 202.216 76.1638 202.476 76.1638 202.784C76.1638 203.092 76.2093 203.352 76.3002 203.564C76.3925 203.776 76.5218 203.936 76.688 204.046C76.8542 204.155 77.0488 204.21 77.2718 204.21C77.4948 204.21 77.6894 204.155 77.8556 204.046C78.0218 203.936 78.1503 203.776 78.2412 203.564C78.3336 203.352 78.3797 203.092 78.3797 202.784ZM82.9341 204.966H81.3872V200.602H82.9469C83.3858 200.602 83.7636 200.69 84.0804 200.865C84.3971 201.038 84.6407 201.287 84.8112 201.612C84.9831 201.938 85.069 202.327 85.069 202.78C85.069 203.235 84.9831 203.625 84.8112 203.952C84.6407 204.279 84.3957 204.529 84.0761 204.704C83.7579 204.879 83.3773 204.966 82.9341 204.966ZM82.3098 204.176H82.8957C83.1684 204.176 83.3978 204.127 83.5839 204.031C83.7714 203.933 83.9121 203.781 84.0058 203.577C84.101 203.371 84.1486 203.105 84.1486 202.78C84.1486 202.458 84.101 202.194 84.0058 201.99C83.9121 201.785 83.7721 201.634 83.5861 201.538C83.4 201.441 83.1706 201.393 82.8978 201.393H82.3098V204.176ZM85.7524 204.966V200.602H88.6928V201.363H86.675V202.403H88.5415V203.164H86.675V204.205H88.7013V204.966H85.7524ZM90.8149 204.966V200.602H93.7041V201.363H91.7375V202.403H93.5124V203.164H91.7375V204.966H90.8149ZM97.02 200.602H97.9426V203.436C97.9426 203.754 97.8666 204.033 97.7146 204.271C97.564 204.51 97.3531 204.696 97.0818 204.83C96.8105 204.962 96.4944 205.028 96.1336 205.028C95.7714 205.028 95.4547 204.962 95.1834 204.83C94.9121 204.696 94.7011 204.51 94.5505 204.271C94.4 204.033 94.3247 203.754 94.3247 203.436V200.602H95.2473V203.357C95.2473 203.524 95.2835 203.671 95.3559 203.801C95.4298 203.93 95.5335 204.031 95.667 204.105C95.8005 204.179 95.9561 204.216 96.1336 204.216C96.3126 204.216 96.4682 204.179 96.6003 204.105C96.7338 204.031 96.8368 203.93 96.9092 203.801C96.9831 203.671 97.02 203.524 97.02 203.357V200.602ZM98.5355 201.363V200.602H102.119V201.363H100.783V204.966H99.8714V201.363H98.5355ZM102.709 204.966V200.602H105.65V201.363H103.632V202.403H105.499V203.164H103.632V204.205H105.658V204.966H102.709ZM106.383 204.966V200.602H108.13C108.451 200.602 108.719 200.65 108.934 200.745C109.148 200.84 109.309 200.972 109.417 201.141C109.525 201.309 109.579 201.502 109.579 201.721C109.579 201.891 109.545 202.041 109.477 202.171C109.409 202.298 109.315 202.404 109.196 202.486C109.078 202.567 108.943 202.624 108.791 202.659V202.701C108.957 202.708 109.113 202.755 109.258 202.842C109.404 202.928 109.522 203.05 109.613 203.206C109.704 203.361 109.75 203.546 109.75 203.76C109.75 203.992 109.692 204.198 109.577 204.38C109.464 204.561 109.295 204.703 109.072 204.808C108.849 204.914 108.574 204.966 108.248 204.966H106.383ZM107.306 204.212H108.058C108.315 204.212 108.503 204.163 108.621 204.065C108.738 203.965 108.797 203.833 108.797 203.668C108.797 203.548 108.768 203.441 108.71 203.349C108.652 203.257 108.569 203.184 108.461 203.132C108.354 203.079 108.227 203.053 108.079 203.053H107.306V204.212ZM107.306 202.428H107.99C108.116 202.428 108.228 202.406 108.326 202.362C108.426 202.317 108.504 202.253 108.561 202.171C108.619 202.088 108.648 201.99 108.648 201.874C108.648 201.717 108.592 201.59 108.48 201.493C108.369 201.396 108.211 201.348 108.007 201.348H107.306V202.428ZM114.36 202.784C114.36 203.26 114.27 203.665 114.089 203.999C113.91 204.333 113.666 204.588 113.356 204.764C113.048 204.938 112.702 205.026 112.317 205.026C111.929 205.026 111.581 204.938 111.273 204.762C110.964 204.585 110.721 204.33 110.542 203.997C110.363 203.663 110.273 203.259 110.273 202.784C110.273 202.308 110.363 201.904 110.542 201.57C110.721 201.236 110.964 200.982 111.273 200.807C111.581 200.631 111.929 200.543 112.317 200.543C112.702 200.543 113.048 200.631 113.356 200.807C113.666 200.982 113.91 201.236 114.089 201.57C114.27 201.904 114.36 202.308 114.36 202.784ZM113.425 202.784C113.425 202.476 113.378 202.216 113.286 202.004C113.195 201.793 113.067 201.632 112.901 201.523C112.734 201.414 112.54 201.359 112.317 201.359C112.094 201.359 111.899 201.414 111.733 201.523C111.567 201.632 111.437 201.793 111.345 202.004C111.254 202.216 111.209 202.476 111.209 202.784C111.209 203.092 111.254 203.352 111.345 203.564C111.437 203.776 111.567 203.936 111.733 204.046C111.899 204.155 112.094 204.21 112.317 204.21C112.54 204.21 112.734 204.155 112.901 204.046C113.067 203.936 113.195 203.776 113.286 203.564C113.378 203.352 113.425 203.092 113.425 202.784ZM115.043 204.966V200.602H115.966V204.205H117.837V204.966H115.043Z" fill="#5F5F5F"/>
<path d="M355.283 73.2867V68.9231H357.005C357.336 68.9231 357.618 68.9863 357.851 69.1127C358.083 69.2377 358.261 69.4117 358.383 69.6348C358.507 69.8563 358.569 70.112 358.569 70.4018C358.569 70.6916 358.506 70.9473 358.381 71.1688C358.256 71.3904 358.075 71.563 357.838 71.6866C357.602 71.8102 357.316 71.872 356.981 71.872H355.884V71.1326H356.832C357.01 71.1326 357.156 71.1021 357.271 71.041C357.387 70.9785 357.474 70.8926 357.531 70.7832C357.589 70.6724 357.618 70.5453 357.618 70.4018C357.618 70.2569 357.589 70.1305 357.531 70.0225C357.474 69.9132 357.387 69.8286 357.271 69.769C357.155 69.7079 357.007 69.6774 356.828 69.6774H356.206V73.2867H355.283ZM363.178 71.1049C363.178 71.5808 363.088 71.9856 362.907 72.3194C362.728 72.6532 362.484 72.9082 362.174 73.0843C361.866 73.259 361.519 73.3464 361.134 73.3464C360.747 73.3464 360.399 73.2583 360.09 73.0822C359.782 72.9061 359.539 72.6511 359.36 72.3173C359.181 71.9835 359.091 71.5794 359.091 71.1049C359.091 70.6291 359.181 70.2242 359.36 69.8904C359.539 69.5566 359.782 69.3024 360.09 69.1277C360.399 68.9515 360.747 68.8634 361.134 68.8634C361.519 68.8634 361.866 68.9515 362.174 69.1277C362.484 69.3024 362.728 69.5566 362.907 69.8904C363.088 70.2242 363.178 70.6291 363.178 71.1049ZM362.242 71.1049C362.242 70.7967 362.196 70.5367 362.104 70.3251C362.013 70.1134 361.884 69.9529 361.718 69.8436C361.552 69.7342 361.357 69.6795 361.134 69.6795C360.911 69.6795 360.717 69.7342 360.551 69.8436C360.384 69.9529 360.255 70.1134 360.163 70.3251C360.072 70.5367 360.027 70.7967 360.027 71.1049C360.027 71.4132 360.072 71.6731 360.163 71.8848C360.255 72.0964 360.384 72.2569 360.551 72.3663C360.717 72.4757 360.911 72.5304 361.134 72.5304C361.357 72.5304 361.552 72.4757 361.718 72.3663C361.884 72.2569 362.013 72.0964 362.104 71.8848C362.196 71.6731 362.242 71.4132 362.242 71.1049ZM363.861 73.2867V68.9231H365.583C365.912 68.9231 366.194 68.9821 366.427 69.1C366.661 69.2164 366.839 69.3819 366.961 69.5964C367.085 69.8095 367.147 70.0602 367.147 70.3485C367.147 70.6383 367.084 70.8876 366.959 71.0964C366.834 71.3038 366.653 71.4629 366.416 71.5737C366.18 71.6845 365.895 71.7399 365.559 71.7399H364.407V70.9984H365.41C365.586 70.9984 365.733 70.9742 365.849 70.9259C365.966 70.8777 366.052 70.8052 366.109 70.7086C366.167 70.612 366.196 70.492 366.196 70.3485C366.196 70.2036 366.167 70.0815 366.109 69.9821C366.052 69.8826 365.965 69.8073 365.847 69.7562C365.731 69.7036 365.583 69.6774 365.406 69.6774H364.784V73.2867H363.861ZM366.218 71.3009L367.302 73.2867H366.284L365.223 71.3009H366.218ZM367.633 69.6838V68.9231H371.216V69.6838H369.88V73.2867H368.968V69.6838H367.633ZM372.025 73.2867H371.037L372.543 68.9231H373.732L375.236 73.2867H374.248L373.155 69.9203H373.121L372.025 73.2867ZM371.964 71.5715H374.299V72.2917H371.964V71.5715ZM375.762 73.2867V68.9231H377.483C377.813 68.9231 378.094 68.9821 378.327 69.1C378.561 69.2164 378.74 69.3819 378.862 69.5964C378.985 69.8095 379.047 70.0602 379.047 70.3485C379.047 70.6383 378.985 70.8876 378.86 71.0964C378.735 71.3038 378.553 71.4629 378.316 71.5737C378.08 71.6845 377.795 71.7399 377.46 71.7399H376.307V70.9984H377.311C377.487 70.9984 377.633 70.9742 377.75 70.9259C377.866 70.8777 377.953 70.8052 378.009 70.7086C378.068 70.612 378.097 70.492 378.097 70.3485C378.097 70.2036 378.068 70.0815 378.009 69.9821C377.953 69.8826 377.865 69.8073 377.747 69.7562C377.631 69.7036 377.484 69.6774 377.306 69.6774H376.684V73.2867H375.762ZM378.118 71.3009L379.203 73.2867H378.184L377.123 71.3009H378.118ZM380.622 68.9231V73.2867H379.699V68.9231H380.622ZM382.133 73.2867H381.144L382.651 68.9231H383.84L385.344 73.2867H384.355L383.262 69.9203H383.228L382.133 73.2867ZM382.071 71.5715H384.406V72.2917H382.071V71.5715Z" fill="#5F5F5F"/>
</g>
<defs>
<clipPath id="clip0_348_70">
<rect width="911" height="425.049" fill="white"/>
</clipPath>
</defs>
</svg>
